<?xml version="1.0" encoding="utf-8"?>
<!-- Generator: Adobe Illustrator 19.0.0, SVG Export Plug-In . SVG Version: 6.00 Build 0)  -->
<svg version="1.1" id="objects" xmlns="http://www.w3.org/2000/svg" xmlns:xlink="http://www.w3.org/1999/xlink" x="0px" y="0px"
	 viewBox="0 0 1672.4 885.5" style="enable-background:new 0 0 1672.4 885.5;" xml:space="preserve">
<style type="text/css">
	.st0{fill:#EBEBEB;}
	.st1{opacity:0.43;}
	.st2{fill:none;}
	.st3{display:none;opacity:0.59;fill:url(#SVGID_1_);}
</style>
<g>
	<g>
		<circle class="st0" cx="1652.1" cy="145.3" r="10"/>
	</g>
	<g>
		<circle class="st0" cx="1569.4" cy="75.7" r="10"/>
	</g>
	<g>
		<circle class="st0" cx="1503.3" cy="184.2" r="10"/>
	</g>
	<g>
		<circle class="st0" cx="1623.8" cy="272.6" r="10"/>
	</g>
	<g>
		<circle class="st0" cx="1485.6" cy="389" r="10"/>
	</g>
	<g>
		<circle class="st0" cx="1402.9" cy="277.2" r="10"/>
	</g>
	<g>
		<circle class="st0" cx="1326.5" cy="343.9" r="10"/>
	</g>
	<g>
		<circle class="st0" cx="1314.5" cy="157.8" r="10"/>
	</g>
	<g>
		<circle class="st0" cx="1445.4" cy="77.9" r="10"/>
	</g>
	<g>
		<circle class="st0" cx="1291.4" cy="31" r="10"/>
	</g>
	<g>
		<circle class="st0" cx="1122.3" cy="82.2" r="10"/>
	</g>
	<g>
		<circle class="st0" cx="1166.9" cy="223.6" r="10"/>
	</g>
	<g>
		<circle class="st0" cx="1144.8" cy="393.9" r="10"/>
	</g>
	<g>
		<circle class="st0" cx="1022.2" cy="285.7" r="10"/>
	</g>
	<g>
		<circle class="st0" cx="1051.6" cy="171.7" r="10"/>
	</g>
	<g>
		<circle class="st0" cx="915.7" cy="106.5" r="10"/>
	</g>
	<g>
		<circle class="st0" cx="820.7" cy="202.9" r="10"/>
	</g>
	<g>
		<circle class="st0" cx="928" cy="189.4" r="10"/>
	</g>
	<g>
		<circle class="st0" cx="888.6" cy="302.1" r="10"/>
	</g>
	<g>
		<circle class="st0" cx="792.2" cy="444.7" r="10"/>
	</g>
	<g>
		<circle class="st0" cx="682" cy="403.9" r="10"/>
	</g>
	<g>
		<circle class="st0" cx="677.9" cy="270.8" r="10"/>
	</g>
	<g>
		<circle class="st0" cx="702.5" cy="106.5" r="10"/>
	</g>
	<g>
		<circle class="st0" cx="545.6" cy="72.1" r="10"/>
	</g>
	<g>
		<circle class="st0" cx="915.6" cy="14.7" r="10"/>
	</g>
	<g>
		<circle class="st0" cx="568.1" cy="162.2" r="10"/>
	</g>
	<g>
		<circle class="st0" cx="398.3" cy="106.5" r="10"/>
	</g>
	<g>
		<circle class="st0" cx="331.7" cy="207" r="10"/>
	</g>
	<g>
		<circle class="st0" cx="431.1" cy="190" r="10"/>
	</g>
	<g>
		<circle class="st0" cx="453.2" cy="326.8" r="10"/>
	</g>
	<g>
		<circle class="st0" cx="426.2" cy="450.7" r="10"/>
	</g>
	<g>
		<circle class="st0" cx="547" cy="495.6" r="10"/>
	</g>
	<g>
		<circle class="st0" cx="454" cy="566.9" r="10"/>
	</g>
	<g>
		<circle class="st0" cx="345.3" cy="579.8" r="10"/>
	</g>
	<g>
		<circle class="st0" cx="182.4" cy="530.9" r="10"/>
	</g>
	<g>
		<circle class="st0" cx="280.8" cy="399.9" r="10"/>
	</g>
	<g>
		<circle class="st0" cx="254.3" cy="288.5" r="10"/>
	</g>
	<g>
		<circle class="st0" cx="110.4" cy="177.1" r="10"/>
	</g>
	<g>
		<circle class="st0" cx="21.4" cy="78" r="10"/>
	</g>
	<g>
		<circle class="st0" cx="16.7" cy="293.9" r="10"/>
	</g>
	<g>
		<circle class="st0" cx="157.9" cy="344.2" r="10"/>
	</g>
	<g>
		<circle class="st0" cx="96.8" cy="406.7" r="10"/>
	</g>
	<g>
		<circle class="st0" cx="19.4" cy="477.3" r="10"/>
	</g>
	<g>
		<circle class="st0" cx="45.9" cy="616.5" r="10"/>
	</g>
	<g>
		<circle class="st0" cx="141.6" cy="678.3" r="10"/>
	</g>
	<g>
		<circle class="st0" cx="231.2" cy="622.6" r="10"/>
	</g>
	<g>
		<circle class="st0" cx="306.6" cy="710.2" r="10"/>
	</g>
	<g>
		<circle class="st0" cx="222.8" cy="771.7" r="10"/>
	</g>
	<g>
		<circle class="st0" cx="297.1" cy="770.6" r="10"/>
	</g>
	<g>
		<circle class="st0" cx="97.8" cy="822.3" r="10"/>
	</g>
	<g>
		<circle class="st0" cx="21.4" cy="747.6" r="10"/>
	</g>
	<g>
		<circle class="st0" cx="321.6" cy="856.2" r="10"/>
	</g>
	<g>
		<circle class="st0" cx="458.7" cy="652.5" r="10"/>
	</g>
	<g>
		<circle class="st0" cx="559.9" cy="825" r="10"/>
	</g>
	<g>
		<circle class="st0" cx="650.9" cy="640.9" r="10"/>
	</g>
	<g>
		<circle class="st0" cx="725.6" cy="525.5" r="10"/>
	</g>
	<g>
		<circle class="st0" cx="748.7" cy="708.2" r="10"/>
	</g>
	<g>
		<circle class="st0" cx="770.4" cy="591.4" r="10"/>
	</g>
	<g>
		<circle class="st0" cx="881.1" cy="583.2" r="10"/>
	</g>
	<g>
		<circle class="st0" cx="877.7" cy="685.1" r="10"/>
	</g>
	<g>
		<circle class="st0" cx="806.4" cy="782.2" r="10"/>
	</g>
	<g>
		<circle class="st0" cx="857.3" cy="829" r="10"/>
	</g>
	<g>
		<circle class="st0" cx="1056.3" cy="767.2" r="10"/>
	</g>
	<g>
		<circle class="st0" cx="1009.5" cy="633.5" r="10"/>
	</g>
	<g>
		<circle class="st0" cx="973.8" cy="502.4" r="10"/>
	</g>
	<g>
		<circle class="st0" cx="966" cy="423" r="10"/>
	</g>
	<g>
		<circle class="st0" cx="1061.1" cy="390.4" r="10"/>
	</g>
	<g>
		<circle class="st0" cx="1077.4" cy="474.6" r="10"/>
	</g>
	<g>
		<circle class="st0" cx="1182.4" cy="545.5" r="10"/>
	</g>
	<g>
		<circle class="st0" cx="1107.2" cy="590" r="10"/>
	</g>
	<g>
		<circle class="st0" cx="1181.9" cy="682.4" r="10"/>
	</g>
	<g>
		<circle class="st0" cx="1254.6" cy="823.6" r="10"/>
	</g>
	<g>
		<circle class="st0" cx="1375.5" cy="702.1" r="10"/>
	</g>
	<g>
		<circle class="st0" cx="1372.8" cy="557.4" r="10"/>
	</g>
	<g>
		<circle class="st0" cx="1373.2" cy="468.8" r="10"/>
	</g>
	<g>
		<circle class="st0" cx="1287.6" cy="618.2" r="10"/>
	</g>
	<g>
		<circle class="st0" cx="1352.8" cy="867.4" r="10"/>
	</g>
	<g>
		<circle class="st0" cx="1312.3" cy="761.1" r="10"/>
	</g>
	<g>
		<circle class="st0" cx="1469.9" cy="757.1" r="10"/>
	</g>
	<g>
		<circle class="st0" cx="1547.3" cy="641.6" r="10"/>
	</g>
	<g>
		<circle class="st0" cx="1598.6" cy="495.8" r="10"/>
	</g>
	<g>
		<circle class="st0" cx="1655.6" cy="398.5" r="10"/>
	</g>
	<g>
		<circle class="st0" cx="1638.7" cy="679.5" r="10"/>
	</g>
	<g>
		<circle class="st0" cx="1417.4" cy="822.8" r="10"/>
	</g>
	<g>
		<circle class="st0" cx="1602.1" cy="824.2" r="10"/>
	</g>
	<g>
		<circle class="st0" cx="1074.6" cy="873.2" r="10"/>
	</g>
	<g>
		<circle class="st0" cx="457.7" cy="752.6" r="10"/>
	</g>
</g>
<g class="st1">
	<path class="st0" d="M1351.3,874.1l0.5,0.3l69.1-50.6l-0.1-0.1c2.1-1.6,9.7-11.7,48.5-67.4l135.1,71.4l0-0.1l49,23.4l0.9-1.8
		l-49.4-23.6l37.3-148.5l0.7,0.3l-0.3-1.2l12.9,5.1l0.8-1.9l-14.2-5.6l-41.6-171.4l52.7,46.4l1.3-1.5l-54.5-47.9l56.3-95.9l0.8,0.1
		l-32.6-123.9l0.5-0.4l-0.5-0.4l32.7-138.5l-152.1,42.5l65.4-103.1l80.1,61.5l1.2-1.6l-78.2-60.1l84.9,7.7l0.2-2l-88.1-8l-0.7-0.5
		l-0.3,0.5L1441.5,77l-150.1-47l-163.9,53.8l-5,0.1l188.5,72.1l-140.6,64.6l-51.9-136.5l-0.8,1.1l-201.6,20.3l-0.4-0.2l-0.2,0.2
		H707.5l208.2-89.7l206.3,67.3l0.6-1.9L915.5,13.7l-213.2,91.9L542.8,69.7l-134.5,33.6L29.5,75.8l-0.1,2l378.9,27.5l0.2,0
		l134.4-33.6l156.3,35L564,161.1l-165.6-55.7L110.7,172L22.1,90.8l-1.4,1.5l87.9,80.6l-87.8,50.9l1,1.8l87.8-51l49.3,170.7L14,291.9
		l78.3,113.2l-81.8,71.3l165.4,51.5L46.1,615.1c-11-15.5-27.1-38.6-27.8-40.7l-1.9,0.6c1,3.1,25.8,38.1,28.7,42l0.6,0.8L177.9,529
		l0.7,1.4l-3.9,1.3l5.2,1.4l48.9,96.2l-84,49c-0.1,0-0.2-0.1-0.4-0.1l-92.9-58.6l-1.1,1.7l91.3,57.6c-5.3,2.1-19.6,9.6-60.7,34.3
		c-30,18-59.8,36.6-60.1,36.8l1.1,1.7c44.6-27.8,112-68.6,121.5-71.3c-3.5,12.9-41.3,125.6-46.1,140l-71.2-65.2l-1.4,1.5l73.5,67.3
		l0.5-1.5c1.8-5.3,41.3-122.9,46.4-140.7l73.2,91.1l-115.8,45.3l0.7,1.9l116.6-45.6l98.5,79.8l-215.3-32l-0.3-0.1l-81.8,45l1,1.8
		l81.2-44.7l218,32.4l0.2,0.8l0.9-0.7l3.3,0.5l-1.9-1.5l5.4-3.9L559,827.3l-0.2-1.9l0.5,0.4l1,0.7l91-184.1l102.1,69.2l55,70.2
		l0.1-0.2l46.1,41L569,823.9l181.5-109.5l-1.1-1.7L561.7,826l295.3-1.4l0.1,0.1l0.3-0.1l217,49.5l0.2,0.1l179.8-46.1L1351.3,874.1z
		 M1351.6,872l-96.2-45.8L1186,686.1l0.1-0.1l2.1,1.3c12,7.1,72,42.6,128,75.6l-59.6,59.2l1.4,1.4l60-59.6c47.5,28,91.7,54,100.4,59
		L1351.6,872z M460.5,749l-3.3,2l-1.7-0.4l-142.7-35.1l149.9-61.3L635.2,643L462.5,747.7l0.6-89.8l-2,0L460.5,749z M460,751.6
		l0.4-0.3l0,0.3L460,751.6z M334.7,211.8l117.9,115.8l2.5,4.5l-26.2,120l116,43.9l-93.8,69.6l-0.9-6.2l-22.9-107l0.6,0.2
		L334.7,211.8z M280.4,400.8l0.4,0.2l-97.9,122.5l-21.1-174.9L280.4,400.8z M162.8,346.8l90.9-56.6l25.7,108L162.8,346.8z
		 M282,399.4l-0.2,0.2l-26.4-111.1c1.9-4.6,45.6-50,75.6-80.6L424.4,449L282,399.4z M919.2,188.2l101.6,94.2l-131.7,20.7l-62.2-102
		L919.2,188.2z M827.4,198.9l88.6-91.2c49.3,22.5,121.3,56.1,133.3,63.2c-17.7,2.1-128.6,15-129.8,15.1l-2.2,0.3l0,0L827.4,198.9z
		 M1402.1,274.1l-86.6-116.3l184.9,27.3L1402.1,274.1z M1501.6,186.9l-17.7,197l-80.5-108.2L1501.6,186.9z M1400.6,275.5l-73.1,66.1
		c0-6.5-1.2-26.7-6-92c-2.8-38-5.7-76.4-6.6-89.2L1400.6,275.5z M1401.8,277.1l80.2,107.8l-153.5-41.5L1401.8,277.1z M1014.6,629.1
		l90.4-43.9l77.7,99.8l-167.4-53.7C1015.1,630.5,1014.9,629.8,1014.6,629.1z M1012.9,630.4l-0.7-0.2l0.5-0.3
		C1012.8,630.1,1012.9,630.3,1012.9,630.4z M1004.4,629.2l-121.7-46.5c6.4-6.9,55.6-48.6,90.7-78c3.3,12.2,20.5,66.3,38.8,123.3
		l-2.7,1.3l-2.7-0.9l-0.4-0.1L1004.4,629.2z M878.9,577.8l-0.1-0.8l-0.4,0l-84.5-133.8L972.3,503c-7.3,6.1-26,21.9-44.6,37.6
		c-33.5,28.5-43.6,37.6-46.5,40.9L878.9,577.8z M1183.1,544.2l-37.1-149.6c1.4-0.4,2.8-0.8,4.2-1.2l220,78.8L1183.1,544.2z
		 M1375.6,472.4l-0.1,0.6l-0.4-0.4L1375.6,472.4z M793.6,440.1l94.1-133.5l80.1,115.1C958.1,425.5,860.3,434.6,793.6,440.1z
		 M1061.7,386.7l16.9,81.9l-102.7,31.5l-0.4,0.2c0,0-0.3,0.2-0.8,0.7l-4.5-78.3L1061.7,386.7z M879.5,434.5c67-6.4,84.2-9.4,88.8-11
		l4.4,77.4l-176.2-59.1C809.2,440.9,844.4,437.9,879.5,434.5z M1079.5,470.4l98.9,73.5l-0.3,0l1.8,1.2l-74.5,38.6l-0.6,0.3l-0.4-0.3
		c-0.3-0.2-32.2-21.1-64-41.5c-44.7-28.7-59.1-37.4-64.1-39.9c0.1-0.1,0.3-0.2,0.4-0.3L1079.5,470.4z M1101.8,584.4l-87.8,42.6
		c-19.2-59.8-36.1-113.2-38.8-123.1C986.3,509.6,1054.9,553.8,1101.8,584.4z M1181.6,546.5l0.1,0.4l0.6-0.2l104.2,69.9l0.2,0.2
		l-101.8,67.6l-77.4-99.5L1181.6,546.5z M1374.1,561.1c1.6,63.4,3.6,138.3,3.7,143.7l0,0.8l-1.8-0.9l-86.2-87.5L1374.1,561.1z
		 M1369.7,561.6l-81.3,54l-0.5-0.5l-102.2-68.6L1369.7,561.6z M1187.6,544.6l184.5-70.9c0,8.1,0.9,44.5,1.9,86.2L1187.6,544.6z
		 M1153.6,392.4c60.8-17.1,162.6-45.5,172.2-47.5l45.6,125.5L1153.6,392.4z M1146,392.5c-0.5,0.1-0.9,0.3-1.4,0.4l-1,0.3l37.2,149.9
		l-100.1-74.3l-17-82.3l79.6,7l0.2-2l-80.2-7.1l-0.1-0.4l-0.2,0.1l-37.5-97.4L1146,392.5z M1061.1,384.7L971,420.1l52-134.2
		L1061.1,384.7z M969,419.8l-79.8-114.7l132.3-20.8L969,419.8z M791.5,439.5l-0.7-1.1l-0.2,1.5L684,400.4l202.6-95.7L791.5,439.5z
		 M789.9,441.8l-0.5,0.7l0,0l-57.8,83.2l-48.5-123.5L789.9,441.8z M1288.1,618.2l84.6,85.9l-183.9-18.7l-1.6-0.2L1288.1,618.2z
		 M1373.2,706.2l-55.5,55.2c-52.8-31.2-109.2-64.5-124.4-73.6L1373.2,706.2z M1378.6,706l166-62.2c-18,26.1-49.2,71.5-75.9,109.9
		L1378.6,706z M1379.8,703.3c-0.3-10.9-2.2-81.2-3.7-141.4l168.5,79.6L1379.8,703.3z M1376.1,559.6c-1-40.4-1.9-75.8-1.9-85.1
		l173.5,165.8l-0.3,0.1L1376.1,559.6z M1377,474.4l133,15.6c15.8,61.8,33.5,131.4,37.6,147.5L1377,474.4z M1375.9,472.2l0.2-0.1
		l-0.8-0.3l108.8-83.5c2.2,8.6,13.1,51.4,25.4,99.5L1375.9,472.2z M1373.7,470.6l-45.5-125.2l154.3,41.7L1373.7,470.6z
		 M1324.3,343.4c-8.2,1.8-40.7,10.3-173.9,47.9l-1.1-0.4l-0.3,0.8c-0.8,0.2-1.6,0.5-2.5,0.7l24-168.5L1324.3,343.4z M1144.9,388.9
		l-120-105.5l143.5-59.8L1144.9,388.9z M886.4,302.5l-202,95.4l140.3-196.2l0.2-0.1L886.4,302.5z M681.1,399
		c0.6-53.7,1.1-116.5,0.7-125.5l139-69.8L681.1,399z M679.1,399.2l-219.8-69.5l220.6-55.5C680.2,284.6,679.5,365.5,679.1,399.2z
		 M459,327.6l105.2-163.8l114.6,108.6L459,327.6z M455.9,328.6l-1.5-0.5l-22.1-137.3L562,163.4L455.9,328.6z M429.9,189.7l0.2,0.6
		l21.5,133.6L332.8,207.1l-0.5-0.5L429.9,189.7z M333,204.4l65.1-91.7l31.1,75.1L333,204.4z M456.6,334.8l88.2,158.9l-113.5-42.9
		L456.6,334.8z M546.8,497.1l99.9,139.8l-2.1,0.8l-193.1-69.1l-0.1-0.8L546.8,497.1z M448.2,559.6l1,7.2l-2.8,2.1l3.2,1.2l11.4,81
		l-110.3-73.6l75.6-120.3L448.2,559.6z M349,578.7l111.3,74.2l-150.9,61.7l-1.9-0.5l39.3-136.1L349,578.7z M463.3,652.1l-11.5-81.3
		l190.2,68l-3,1.9L463.3,652.1z M644,640l0.7-0.3l1.3,0.5l-2.6,0.2L644,640z M647.9,638.5l0.3,0.4l-0.6-0.2L647.9,638.5z
		 M649.9,637.8l2.8-1.1l-1.8,2.5L649.9,637.8z M648.7,636.1l-100.8-141l-90.7-163.3l0.1-0.6l223.4,70.7l49,124.7l-176.2-31.9
		L676,403.4l-1.2-1.6l-126.1,94.1l181,32.7l-74.8,105.2L648.7,636.1z M731.1,530L731.1,530l1-1.5l1-1.4l0,0l56.8-81.8l-20,144.5
		l-111.7,42.5L731.1,530z M792.1,444.2l84,133.1L772,589.2L792.1,444.2z M772.2,591.2l105.2-12l2.5,3.9L755.6,708l16.2-116.6
		L772.2,591.2z M1001.9,630.4l-119.4,56.2l-0.3-0.1c0.1-11.4,0.3-47,0.3-73.4c0-13.3-0.1-24.1-0.2-28.4L1001.9,630.4z M1004.5,631.4
		l3,1.1l2.1-1l4.1,1.3c15.9,49.5,32.3,100.3,41,127.2L885,687.7L1004.5,631.4z M1016.1,633.6l163.4,52.5l-122.6,74.2
		C1045.6,725.3,1030.4,678.1,1016.1,633.6z M1183.5,686l0.3,0.3l68.8,139l-193.9-63.7L1183.5,686z M1420.2,821.7
		c-5.6-3.1-51.3-30-100.7-59.2l56.2-55.8l91.8,48.6C1443.6,789.6,1423.5,818,1420.2,821.7z M1640.3,676.4l-37.2,148.3l-132.6-70.1
		c4.5-6.5,9.5-13.6,14.9-21.4c31.1-44.9,62.4-90.5,62.7-90.9l0.5-0.7l0,0l0.3,0.1l1,1l0.2-0.5L1640.3,676.4z M1640.1,674.1l-89.3-34
		l47.8-137.1L1640.1,674.1z M1597.4,500.3l-47.7,136.9c-4-15.7-21.7-85.1-37.5-146.9L1597.4,500.3z M1511.6,488.2
		c-11.6-45.3-22-86.1-25-98.2l109.4,108.1L1511.6,488.2z M1598.5,497.8l-111.1-109.9l166.7,15.2L1598.5,497.8z M1654.4,401.1
		l-167.1-15.2l135.4-105.1L1654.4,401.1z M1621.7,279l-135.8,105.4l17.8-198L1621.7,279z M1654.4,143.1l-31.6,134.2L1505,184.9
		L1654.4,143.1z M1568.4,79.1l-65.5,103.2L1449.3,79L1568.4,79.1z M1291.4,32.1l143.7,45l-300.7,6.5L1291.4,32.1z M1132.8,85.7
		l308.5-6.7l5.7,0l-133.5,75.8L1132.8,85.7z M1316.1,155.8L1316.1,155.8l-0.2-0.1l132-74.9l53,102.3L1316.1,155.8z M1312.6,157.4
		c4.6,59.9,12.7,169,12.9,184.4l-153.9-119.6l0.6-0.3l-0.1,0L1312.6,157.4z M1167.1,221.9l-142.5,59.4l26.6-100.5l-2-0.5
		l-26.7,100.9l-100.6-93.3c16.6-1.9,121.8-14.2,129.5-15.1L1167.1,221.9z M1167.9,220.1l-114.7-48.8l64.6-83.1L1167.9,220.1z
		 M1115.8,87.4l-64.4,82.7c-3.6-2.6-17-9.6-67.2-33c-27.5-12.8-55.3-25.6-64.7-29.9L1115.8,87.4z M913.3,107.5l-89.2,91.9l-0.3,0
		l-118.3-91.9L913.3,107.5z M702.4,107.7l117.9,91.6l-246.8-39.8L702.4,107.7z M571.4,160.3l-0.1,0.9l249.5,40.2L681,271.7
		L565.8,162.6L571.4,160.3z M115.8,172.9l282.4-65.3l161.3,54.2l-118,23.9l-10.4,1.8l-32.6-78.9l-68.2,96.2l-0.9-0.9l0.6,1.4l0,0.1
		L115.8,172.9z M328.9,207.1c-19.2,19.6-69.5,71.2-75.1,80.2c-8.5-4.5-86.5-68.4-140-112.7L328.9,207.1z M112.3,176
		c8.7,7.2,38.5,31.9,68.3,56.2c51.5,42,66.7,53.5,71.6,56.5l-90.9,56.7L112.3,176z M19.3,296l139.3,51.3l-64.8,56.5L19.3,296z
		 M14.6,475.5l78.9-68.7l82.3,118.9L14.6,475.5z M180.3,529.2l0.5,0.2l-1.6-2.4l-0.5-1l-0.1,0.1L95,405.4l64.8-56.5l21.6,179.6
		l101.2-126.7l138.6,48.3l-240.7,79.7L180.3,529.2z M181.8,531.5l242.6-80.3l2.7,0.9l-78.2,124.5L181.8,531.5z M182.6,533.8
		l164.2,44.3l-117.3,47.6l-0.1,0.1L182.6,533.8z M231.6,627.1l112.2-45.5l-38.2,132.2l-1.5-0.4L231.6,627.1z M146.2,679.9l85.3-49.8
		l70.6,83.9L220.2,772L146.2,679.9z M322.5,854.1l-0.4-1.5l2.7-0.3L322.5,854.1z M320.2,853.2l-98.5-79.8l82.1-58l1.2,0.3l-1,3.4
		l5.5-2.3L455,752.5l0.6,0.1l-154.1,18.7l0.1,1l-1,0.2L320.2,853.2z M321.7,850.7l-18.9-77.5l154.9-18.8L328.2,850L321.7,850.7z
		 M332.2,849.6l129.3-95.3l97.2,71.1L332.2,849.6z M559.5,823.4L463.2,753l0.7-0.5l-1.4-0.3l0-2.1l177.1-107.4l9.6-0.6L559.5,823.4z
		 M653.9,641.8l1.9-0.1l-3.4-1.2l3.6-5l113.4-43.2l-16.2,116.9L653.9,641.8z M755.5,711l124.8-125.4c0.4,12.4,0,75.4-0.1,101.2
		l-71.6,91.7L755.5,711z M809.8,780l70.6-90.4l0.1,0.1l2-0.9l170.9,72.9l-195.8,60.8L809.8,780z M1074.6,872.1l-213.4-48.7l195-60.6
		l1.7,0.7l-0.1-0.2l193.1,63.5L1074.6,872.1z"/>
	<path d="M1589.4,823.2c-2.1,0.4-211.8,43.2-224.1,43.2v2c12.5,0,215.9-41.5,224.5-43.3L1589.4,823.2z"/>
	<path class="st2" d="M1377.9,705.6l0-0.8c-0.1-5.4-2.2-80.3-3.7-143.7l-84.2,55.9l86.2,87.5L1377.9,705.6z"/>
	<polygon class="st2" points="790.6,439.9 790.8,438.4 791.5,439.5 886.5,304.7 684,400.4 	"/>
	<path class="st2" d="M1544.6,643.7l-166,62.2l90.1,47.6C1495.4,715.2,1526.6,669.9,1544.6,643.7z"/>
	<polygon class="st2" points="789.4,442.5 789.4,442.5 789.9,441.8 683.1,402.2 731.6,525.7 	"/>
	<path class="st2" d="M1376.2,561.9c1.5,60.2,3.4,130.5,3.7,141.4l164.8-61.8L1376.2,561.9z"/>
	<polygon class="st2" points="461.1,651.1 449.7,570.1 446.5,568.9 449.2,566.8 448.2,559.6 426.3,457.2 350.8,577.5 	"/>
	<polygon class="st2" points="971,420.1 1061.1,384.7 1023,285.9 	"/>
	<path class="st2" d="M1187.6,544.6l186.5,15.3c-1-41.7-1.9-78.1-1.9-86.2L1187.6,544.6z"/>
	<polygon class="st2" points="889.2,305.1 969,419.8 1021.4,284.4 	"/>
	<polygon class="st2" points="1287.9,615.1 1288.4,615.6 1369.7,561.6 1185.8,546.5 	"/>
	<path class="st2" d="M1153.6,392.4l217.8,78.1L1325.8,345C1316.2,346.9,1214.4,375.3,1153.6,392.4z"/>
	<path class="st2" d="M1063,383.9l0.2-0.1l0.1,0.4l80.2,7.1l-0.2,2l-79.6-7l17,82.3l100.1,74.3l-37.2-149.9l1-0.3
		c0.5-0.1,0.9-0.3,1.4-0.4l-120.5-105.9L1063,383.9z"/>
	<path class="st2" d="M1377,474.4l170.6,163.1c-4.1-16.1-21.9-85.7-37.6-147.5L1377,474.4z"/>
	<path class="st2" d="M1373.2,706.2l-180-18.3c15.3,9,71.6,42.4,124.4,73.6L1373.2,706.2z"/>
	<polygon class="st2" points="332.8,207.1 451.7,323.9 430.2,190.3 429.9,189.7 332.3,206.6 	"/>
	<polygon class="st2" points="432.3,190.8 454.4,328.1 455.9,328.6 562,163.4 	"/>
	<polygon class="st2" points="459,327.6 678.7,272.4 564.2,163.8 	"/>
	<polygon class="st2" points="398.1,112.7 333,204.4 429.1,187.8 	"/>
	<polygon class="st2" points="451.5,568.5 644.6,637.6 646.7,636.8 546.8,497.1 451.4,567.8 	"/>
	<polygon class="st2" points="456.6,334.8 431.3,450.8 544.8,493.7 	"/>
	<path class="st2" d="M1375.3,471.9l0.8,0.3l-0.2,0.1l133.5,15.7c-12.3-48.1-23.2-91-25.4-99.5L1375.3,471.9z"/>
	<path class="st2" d="M1146.5,392.3c0.8-0.2,1.7-0.5,2.5-0.7l0.3-0.8l1.1,0.4c133.3-37.5,165.8-46.1,173.9-47.9l-153.8-119.6
		L1146.5,392.3z"/>
	<polygon class="st2" points="1328.1,345.4 1373.7,470.6 1482.4,387.1 	"/>
	<polygon class="st2" points="1024.9,283.4 1144.9,388.9 1168.5,223.6 	"/>
	<polygon class="st2" points="684.4,397.9 886.4,302.5 824.9,201.6 824.8,201.7 	"/>
	<path class="st2" d="M681.1,399l139.7-195.3l-139,69.8C682.3,282.5,681.7,345.3,681.1,399z"/>
	<path class="st2" d="M679.9,274.2l-220.6,55.5l219.8,69.5C679.5,365.5,680.2,284.6,679.9,274.2z"/>
	<path class="st2" d="M1374.2,474.6c0.1,9.3,0.9,44.7,1.9,85.1l171.2,80.9l0.3-0.1L1374.2,474.6z"/>
	<polygon class="st2" points="889.2,303.1 1020.8,282.4 919.2,188.2 827,201.1 	"/>
	<polygon class="st2" points="162.8,346.8 279.4,398.1 253.7,290.1 	"/>
	<path class="st2" d="M331,207.9c-30.1,30.6-73.7,76-75.6,80.6l26.4,111.1l0.2-0.2L424.4,449L331,207.9z"/>
	<path class="st2" d="M917.2,186.3l2.2-0.3c1.2-0.1,112.1-13,129.8-15.1c-11.9-7.2-84-40.7-133.3-63.2l-88.6,91.2L917.2,186.3
		L917.2,186.3z"/>
	<polygon class="st2" points="1483.9,383.9 1501.6,186.9 1403.4,275.7 	"/>
	<polygon class="st2" points="1315.6,157.8 1402.1,274.1 1500.5,185.1 	"/>
	<polygon class="st2" points="1286.7,616.8 1286.5,616.6 1182.3,546.7 1181.7,546.9 1181.6,546.5 1107.4,584.9 1184.9,684.4 	"/>
	<path class="st2" d="M1258,823.7l-1.4-1.4l59.6-59.2c-55.9-33-115.9-68.5-128-75.6l-2.1-1.3l-0.1,0.1l69.4,140.1l96.2,45.8l66.8-49
		c-8.8-5-52.9-31-100.4-59L1258,823.7z"/>
	<polygon class="st2" points="462.5,747.7 635.2,643 462.7,654.2 312.8,715.5 455.4,750.6 457.2,751 460.5,749 461.1,657.9 
		463.1,657.9 	"/>
	<polygon class="st2" points="450.2,559.2 451.1,565.5 544.9,495.9 428.9,452.1 455.1,332.1 452.6,327.6 334.7,211.8 427.9,452.4 
		427.4,452.2 	"/>
	<polygon class="st2" points="460,751.6 460.4,751.7 460.4,751.4 	"/>
	<polygon class="st2" points="280.8,401 280.4,400.8 161.8,348.6 182.9,523.5 	"/>
	<path class="st2" d="M1327.5,341.6l73.1-66.1l-85.7-115.1c1,12.8,3.9,51.2,6.6,89.2C1326.3,314.8,1327.5,335.1,1327.5,341.6z"/>
	<path class="st2" d="M972.7,501l-4.4-77.4c-4.6,1.6-21.8,4.6-88.8,11c-35.1,3.3-70.3,6.3-83,7.4L972.7,501z"/>
	<polygon class="st2" points="1482.1,384.9 1401.8,277.1 1328.6,343.4 	"/>
	<polygon class="st2" points="1375.6,472.4 1375,472.6 1375.5,473 	"/>
	<path class="st2" d="M793.6,440.1c66.7-5.5,164.6-14.6,174.2-18.4l-80.1-115.1L793.6,440.1z"/>
	<path class="st2" d="M976.3,502.3c5,2.5,19.4,11.2,64.1,39.9c31.8,20.5,63.7,41.3,64,41.5l0.4,0.3l0.6-0.3l74.5-38.6l-1.8-1.2
		l0.3,0l-98.9-73.5L976.7,502C976.5,502.1,976.4,502.2,976.3,502.3z"/>
	<path class="st2" d="M1101.8,584.4c-46.9-30.7-115.5-74.9-126.6-80.5c2.7,10,19.7,63.4,38.8,123.1L1101.8,584.4z"/>
	<path class="st2" d="M975.5,500.3l0.4-0.2l102.7-31.5l-16.9-81.9l-91.4,36l4.5,78.3C975.2,500.5,975.5,500.3,975.5,500.3z"/>
	<path class="st2" d="M1182.7,684.9l-77.7-99.8l-90.4,43.9c0.2,0.7,0.5,1.4,0.7,2.1L1182.7,684.9z"/>
	<path class="st2" d="M1012.9,630.4c0-0.2-0.1-0.3-0.2-0.5l-0.5,0.3L1012.9,630.4z"/>
	<path class="st2" d="M1150.3,393.4c-1.4,0.4-2.8,0.8-4.2,1.2l37.1,149.6l187.1-71.9L1150.3,393.4z"/>
	<path class="st2" d="M927.7,540.6c18.5-15.8,37.2-31.5,44.6-37.6l-178.4-59.8L878.4,577l0.4,0l0.1,0.8l2.3,3.7
		C884.1,578.2,894.2,569.1,927.7,540.6z"/>
	<path class="st2" d="M1009.5,629.3l2.7-1.3c-18.3-57-35.4-111.1-38.8-123.3c-35.1,29.4-84.2,71.1-90.7,78l121.7,46.5l1.9-0.9
		l0.4,0.1L1009.5,629.3z"/>
	<polygon class="st2" points="1188.8,685.4 1372.8,704.2 1288.1,618.2 1187.2,685.3 	"/>
	<path class="st2" d="M252.2,288.6c-4.9-3-20.1-14.5-71.6-56.5c-29.7-24.3-59.5-49-68.3-56.2l49,169.4L252.2,288.6z"/>
	<path class="st2" d="M328.9,207.1l-215-32.5c53.5,44.4,131.5,108.2,140,112.7C259.3,278.3,309.7,226.7,328.9,207.1z"/>
	<polygon class="st2" points="330,205.2 329.4,203.7 330.3,204.7 398.5,108.5 431.2,187.4 441.6,185.6 559.6,161.8 398.2,107.6 
		115.8,172.9 329.9,205.2 	"/>
	<polygon class="st2" points="19.3,296 93.9,403.7 158.7,347.3 	"/>
	<polygon class="st2" points="282.7,401.8 181.5,528.5 159.8,348.9 95,405.4 178.5,526.1 178.7,526 179.2,527 180.8,529.4 
		180.3,529.2 180.6,529.8 421.3,450.1 	"/>
	<polygon class="st2" points="309.4,714.7 460.3,652.9 349,578.7 346.9,578.2 307.6,714.2 	"/>
	<polygon class="st2" points="681,271.7 820.8,201.4 571.3,161.2 571.4,160.3 565.8,162.6 	"/>
	<path class="st2" d="M1051.5,170.1l64.4-82.7l-196.3,19.8c9.5,4.3,37.3,17.1,64.7,29.9C1034.5,160.5,1047.9,167.6,1051.5,170.1z"/>
	<polygon class="st2" points="1167.9,220.1 1117.8,88.2 1053.2,171.3 	"/>
	<path class="st2" d="M921.9,187.8l100.6,93.3l26.7-100.9l2,0.5l-26.6,100.5l142.5-59.4l-115.7-49.2
		C1043.7,173.7,938.5,185.9,921.9,187.8z"/>
	<polygon class="st2" points="702.4,107.7 573.5,159.5 820.3,199.3 	"/>
	<polygon class="st2" points="824.1,199.4 913.3,107.5 705.5,107.5 823.8,199.4 	"/>
	<polygon class="st2" points="427.1,452.1 424.5,451.2 181.8,531.5 348.9,576.6 	"/>
	<polygon class="st2" points="301.5,772.3 301.4,771.3 455.5,752.7 455,752.5 309.6,716.8 304,719.1 305,715.7 303.8,715.4 
		221.7,773.4 320.2,853.2 300.5,772.6 	"/>
	<path class="st2" d="M880.2,585.5L755.5,711l53,67.5l71.6-91.7C880.3,661,880.6,597.9,880.2,585.5z"/>
	<polygon class="st2" points="656.1,635.4 652.5,640.4 655.9,641.6 653.9,641.8 753.3,709.1 769.5,592.2 	"/>
	<polygon class="st2" points="639.6,642.7 462.5,750.1 462.5,752.2 463.8,752.5 463.2,753 559.5,823.4 649.2,642.1 	"/>
	<polygon class="st2" points="882.5,688.8 880.5,689.7 880.5,689.6 809.8,780 857.6,822.5 1053.4,761.7 	"/>
	<polygon class="st2" points="1057.9,763.4 1058,763.6 1056.3,762.9 861.3,823.5 1074.6,872.1 1251,826.9 	"/>
	<polygon class="st2" points="231.5,630.2 146.2,679.9 220.2,772 302.1,714.1 	"/>
	<polygon class="st2" points="346.8,578.1 182.6,533.8 229.4,625.8 229.5,625.7 	"/>
	<polygon class="st2" points="305.6,713.7 343.8,581.6 231.6,627.1 304.1,713.4 	"/>
	<polygon class="st2" points="332.2,849.6 558.7,825.3 461.5,754.2 	"/>
	<polygon class="st2" points="322.5,854.1 324.9,852.4 322.2,852.7 	"/>
	<path class="st2" d="M1172.3,222l-0.6,0.3l153.9,119.6c-0.3-15.4-8.4-124.5-12.9-184.4l-140.4,64.5L1172.3,222z"/>
	<polygon class="st2" points="302.8,773.2 321.7,850.7 328.2,850 457.7,754.5 	"/>
	<polygon class="st2" points="14.6,475.5 175.8,525.7 93.5,406.8 	"/>
	<path class="st2" d="M882.1,686.4l0.3,0.1l119.4-56.2l-119.6-45.7c0.2,4.2,0.2,15.1,0.2,28.4C882.4,639.4,882.2,675.1,882.1,686.4z
		"/>
	<polygon class="st2" points="879.8,583.1 877.3,579.2 772.2,591.2 771.7,591.4 755.6,708 	"/>
	<polygon class="st2" points="792.1,444.2 772,589.2 876.1,577.3 	"/>
	<path class="st2" d="M1375.7,706.7l-56.2,55.8c49.3,29.1,95.1,56.1,100.7,59.2c3.4-3.7,23.5-32.1,47.3-66.4L1375.7,706.7z"/>
	<path class="st2" d="M1179.5,686l-163.4-52.5c14.3,44.5,29.5,91.7,40.8,126.7L1179.5,686z"/>
	<polygon class="st2" points="1252.6,825.3 1183.8,686.3 1183.5,686 1058.7,761.5 	"/>
	<path class="st2" d="M1054.7,760c-8.7-26.9-25.1-77.7-41-127.2l-4.1-1.3l-2.1,1l-3-1.1L885,687.7L1054.7,760z"/>
	<polygon class="st2" points="644.6,639.8 644,640 643.3,640.4 645.9,640.2 	"/>
	<polygon class="st2" points="647.9,638.5 647.6,638.7 648.2,638.9 	"/>
	<polygon class="st2" points="1447.9,80.8 1315.9,155.7 1316.2,155.8 1316.1,155.8 1501,183.1 	"/>
	<polygon class="st2" points="451.9,570.8 463.3,652.1 639,640.7 642,638.8 	"/>
	<polygon class="st2" points="649.9,637.8 650.9,639.2 652.7,636.7 	"/>
	<polygon class="st2" points="548.6,495.9 674.7,401.8 676,403.4 553.6,494.7 729.8,526.5 680.8,401.8 457.3,331.2 457.2,331.7 
		547.9,495.1 648.7,636.1 654.8,633.7 729.6,528.6 	"/>
	<polygon class="st2" points="789.9,445.4 733.1,527.2 733.1,527.2 732.2,528.5 731.1,530 731.1,530 658.2,632.4 769.9,589.9 	"/>
	<polygon class="st2" points="1622.7,277.3 1654.4,143.1 1505,184.9 	"/>
	<polygon class="st2" points="1654.4,401.1 1622.8,280.8 1487.3,385.9 	"/>
	<polygon class="st2" points="1485.9,384.4 1621.7,279 1503.7,186.4 	"/>
	<polygon class="st2" points="1568.4,79.1 1449.3,79 1502.9,182.4 	"/>
	<polygon class="st2" points="1291.4,32.1 1134.4,83.6 1435.1,77.1 	"/>
	<polygon class="st2" points="1598.5,497.8 1654.1,403.1 1487.4,387.9 	"/>
	<path class="st2" d="M1549.6,637.2l47.7-136.9l-85.2-10C1527.9,552.1,1545.6,621.5,1549.6,637.2z"/>
	<path class="st2" d="M1549.9,642.6l-1-1l-0.3-0.1l0,0l-0.5,0.7c-0.3,0.5-31.6,46-62.7,90.9c-5.4,7.8-10.3,14.9-14.9,21.4
		l132.6,70.1l37.2-148.3l-90.2-34.3L1549.9,642.6z"/>
	<polygon class="st2" points="1640.1,674.1 1598.6,503 1550.8,640.1 	"/>
	<path class="st2" d="M1511.6,488.2l84.3,9.9l-109.4-108.1C1489.6,402.1,1500.1,442.9,1511.6,488.2z"/>
	<polygon class="st2" points="1441.3,79 1132.8,85.7 1313.5,154.8 1447,79 	"/>
	
		<linearGradient id="SVGID_1_" gradientUnits="userSpaceOnUse" x1="407.1443" y1="444.3163" x2="1267.847" y2="444.3163" gradientTransform="matrix(0 1 -1 0 1278.955 -393.4854)">
		<stop  offset="0" style="stop-color:#50504E"/>
		<stop  offset="3.974792e-002" style="stop-color:#626261"/>
		<stop  offset="0.1936" style="stop-color:#A5A5A4"/>
		<stop  offset="0.3227" style="stop-color:#D6D6D5"/>
		<stop  offset="0.4204" style="stop-color:#F4F4F4"/>
		<stop  offset="0.4753" style="stop-color:#FFFFFF"/>
		<stop  offset="1" style="stop-color:#000000"/>
	</linearGradient>
	<path class="st3" d="M1351.3,874.1l0.5,0.3l69.1-50.6l-0.1-0.1c2.1-1.6,9.7-11.7,48.5-67.4l135.1,71.4l0-0.1l49,23.4l0.9-1.8
		l-49.4-23.6l37.3-148.5l0.7,0.3l-0.3-1.2l12.9,5.1l0.8-1.9l-14.2-5.6l-41.6-171.4l52.7,46.4l1.3-1.5l-54.5-47.9l56.3-95.9l0.8,0.1
		l-32.6-123.9l0.5-0.4l-0.5-0.4l32.7-138.5l-152.1,42.5l65.4-103.1l80.1,61.5l1.2-1.6l-78.2-60.1l84.9,7.7l0.2-2l-88.1-8l-0.7-0.5
		l-0.3,0.5L1441.5,77l-150.1-47l-163.9,53.8l-5,0.1l188.5,72.1l-140.6,64.6l-51.9-136.5l-0.8,1.1l-201.6,20.3l-0.4-0.2l-0.2,0.2
		H707.5l208.2-89.7l206.3,67.3l0.6-1.9L915.5,13.7l-213.2,91.9L542.8,69.7l-134.5,33.6L29.5,75.8l-0.1,2l378.9,27.5l0.2,0
		l134.4-33.6l156.3,35L564,161.1l-165.6-55.7L110.7,172L22.1,90.8l-1.4,1.5l87.9,80.6l-87.8,50.9l1,1.8l87.8-51l49.3,170.7L14,291.9
		l78.3,113.2l-81.8,71.3l165.4,51.5L46.1,615.1c-11-15.5-27.1-38.6-27.8-40.7l-1.9,0.6c1,3.1,25.8,38.1,28.7,42l0.6,0.8L177.9,529
		l0.7,1.4l-3.9,1.3l5.2,1.4l48.9,96.2l-84,49c-0.1,0-0.2-0.1-0.4-0.1l-92.9-58.6l-1.1,1.7l91.3,57.6c-5.3,2.1-19.6,9.6-60.7,34.3
		c-30,18-59.8,36.6-60.1,36.8l1.1,1.7c44.6-27.8,112-68.6,121.5-71.3c-3.5,12.9-41.3,125.6-46.1,140l-71.2-65.2l-1.4,1.5l73.5,67.3
		l0.5-1.5c1.8-5.3,41.3-122.9,46.4-140.7l73.2,91.1l-115.8,45.3l0.7,1.9l116.6-45.6l98.5,79.8l-215.3-32l-0.3-0.1l-81.8,45l1,1.8
		l81.2-44.7l218,32.4l0.2,0.8l0.9-0.7l3.3,0.5l-1.9-1.5l5.4-3.9L559,827.3l-0.2-1.9l0.5,0.4l1,0.7l91-184.1l102.1,69.2l55,70.2
		l0.1-0.2l46.1,41L569,823.9l181.5-109.5l-1.1-1.7L561.7,826l295.3-1.4l0.1,0.1l0.3-0.1l217,49.5l0.2,0.1l179.8-46.1L1351.3,874.1z
		 M1351.6,872l-96.2-45.8L1186,686.1l0.1-0.1l2.1,1.3c12,7.1,72,42.6,128,75.6l-59.6,59.2l1.4,1.4l60-59.6c47.5,28,91.7,54,100.4,59
		L1351.6,872z M460.5,749l-3.3,2l-1.7-0.4l-142.7-35.1l149.9-61.3L635.2,643L462.5,747.7l0.6-89.8l-2,0L460.5,749z M460,751.6
		l0.4-0.3l0,0.3L460,751.6z M334.7,211.8l117.9,115.8l2.5,4.5l-26.2,120l116,43.9l-93.8,69.6l-0.9-6.2l-22.9-107l0.6,0.2
		L334.7,211.8z M280.4,400.8l0.4,0.2l-97.9,122.5l-21.1-174.9L280.4,400.8z M162.8,346.8l90.9-56.6l25.7,108L162.8,346.8z
		 M282,399.4l-0.2,0.2l-26.4-111.1c1.9-4.6,45.6-50,75.6-80.6L424.4,449L282,399.4z M919.2,188.2l101.6,94.2l-131.7,20.7l-62.2-102
		L919.2,188.2z M827.4,198.9l88.6-91.2c49.3,22.5,121.3,56.1,133.3,63.2c-17.7,2.1-128.6,15-129.8,15.1l-2.2,0.3l0,0L827.4,198.9z
		 M1402.1,274.1l-86.6-116.3l184.9,27.3L1402.1,274.1z M1501.6,186.9l-17.7,197l-80.5-108.2L1501.6,186.9z M1400.6,275.5l-73.1,66.1
		c0-6.5-1.2-26.7-6-92c-2.8-38-5.7-76.4-6.6-89.2L1400.6,275.5z M1401.8,277.1l80.2,107.8l-153.5-41.5L1401.8,277.1z M1014.6,629.1
		l90.4-43.9l77.7,99.8l-167.4-53.7C1015.1,630.5,1014.9,629.8,1014.6,629.1z M1012.9,630.4l-0.7-0.2l0.5-0.3
		C1012.8,630.1,1012.9,630.3,1012.9,630.4z M1004.4,629.2l-121.7-46.5c6.4-6.9,55.6-48.6,90.7-78c3.3,12.2,20.5,66.3,38.8,123.3
		l-2.7,1.3l-2.7-0.9l-0.4-0.1L1004.4,629.2z M878.9,577.8l-0.1-0.8l-0.4,0l-84.5-133.8L972.3,503c-7.3,6.1-26,21.9-44.6,37.6
		c-33.5,28.5-43.6,37.6-46.5,40.9L878.9,577.8z M1183.1,544.2l-37.1-149.6c1.4-0.4,2.8-0.8,4.2-1.2l220,78.8L1183.1,544.2z
		 M1375.6,472.4l-0.1,0.6l-0.4-0.4L1375.6,472.4z M793.6,440.1l94.1-133.5l80.1,115.1C958.1,425.5,860.3,434.6,793.6,440.1z
		 M1061.7,386.7l16.9,81.9l-102.7,31.5l-0.4,0.2c0,0-0.3,0.2-0.8,0.7l-4.5-78.3L1061.7,386.7z M879.5,434.5c67-6.4,84.2-9.4,88.8-11
		l4.4,77.4l-176.2-59.1C809.2,440.9,844.4,437.9,879.5,434.5z M1079.5,470.4l98.9,73.5l-0.3,0l1.8,1.2l-74.5,38.6l-0.6,0.3l-0.4-0.3
		c-0.3-0.2-32.2-21.1-64-41.5c-44.7-28.7-59.1-37.4-64.1-39.9c0.1-0.1,0.3-0.2,0.4-0.3L1079.5,470.4z M1101.8,584.4l-87.8,42.6
		c-19.2-59.8-36.1-113.2-38.8-123.1C986.3,509.6,1054.9,553.8,1101.8,584.4z M1181.6,546.5l0.1,0.4l0.6-0.2l104.2,69.9l0.2,0.2
		l-101.8,67.6l-77.4-99.5L1181.6,546.5z M1374.1,561.1c1.6,63.4,3.6,138.3,3.7,143.7l0,0.8l-1.8-0.9l-86.2-87.5L1374.1,561.1z
		 M1369.7,561.6l-81.3,54l-0.5-0.5l-102.2-68.6L1369.7,561.6z M1187.6,544.6l184.5-70.9c0,8.1,0.9,44.5,1.9,86.2L1187.6,544.6z
		 M1153.6,392.4c60.8-17.1,162.6-45.5,172.2-47.5l45.6,125.5L1153.6,392.4z M1146,392.5c-0.5,0.1-0.9,0.3-1.4,0.4l-1,0.3l37.2,149.9
		l-100.1-74.3l-17-82.3l79.6,7l0.2-2l-80.2-7.1l-0.1-0.4l-0.2,0.1l-37.5-97.4L1146,392.5z M1061.1,384.7L971,420.1l52-134.2
		L1061.1,384.7z M969,419.8l-79.8-114.7l132.3-20.8L969,419.8z M791.5,439.5l-0.7-1.1l-0.2,1.5L684,400.4l202.6-95.7L791.5,439.5z
		 M789.9,441.8l-0.5,0.7l0,0l-57.8,83.2l-48.5-123.5L789.9,441.8z M1288.1,618.2l84.6,85.9l-183.9-18.7l-1.6-0.2L1288.1,618.2z
		 M1373.2,706.2l-55.5,55.2c-52.8-31.2-109.2-64.5-124.4-73.6L1373.2,706.2z M1378.6,706l166-62.2c-18,26.1-49.2,71.5-75.9,109.9
		L1378.6,706z M1379.8,703.3c-0.3-10.9-2.2-81.2-3.7-141.4l168.5,79.6L1379.8,703.3z M1376.1,559.6c-1-40.4-1.9-75.8-1.9-85.1
		l173.5,165.8l-0.3,0.1L1376.1,559.6z M1377,474.4l133,15.6c15.8,61.8,33.5,131.4,37.6,147.5L1377,474.4z M1375.9,472.2l0.2-0.1
		l-0.8-0.3l108.8-83.5c2.2,8.6,13.1,51.4,25.4,99.5L1375.9,472.2z M1373.7,470.6l-45.5-125.2l154.3,41.7L1373.7,470.6z
		 M1324.3,343.4c-8.2,1.8-40.7,10.3-173.9,47.9l-1.1-0.4l-0.3,0.8c-0.8,0.2-1.6,0.5-2.5,0.7l24-168.5L1324.3,343.4z M1144.9,388.9
		l-120-105.5l143.5-59.8L1144.9,388.9z M886.4,302.5l-202,95.4l140.3-196.2l0.2-0.1L886.4,302.5z M681.1,399
		c0.6-53.7,1.1-116.5,0.7-125.5l139-69.8L681.1,399z M679.1,399.2l-219.8-69.5l220.6-55.5C680.2,284.6,679.5,365.5,679.1,399.2z
		 M459,327.6l105.2-163.8l114.6,108.6L459,327.6z M455.9,328.6l-1.5-0.5l-22.1-137.3L562,163.4L455.9,328.6z M429.9,189.7l0.2,0.6
		l21.5,133.6L332.8,207.1l-0.5-0.5L429.9,189.7z M333,204.4l65.1-91.7l31.1,75.1L333,204.4z M456.6,334.8l88.2,158.9l-113.5-42.9
		L456.6,334.8z M546.8,497.1l99.9,139.8l-2.1,0.8l-193.1-69.1l-0.1-0.8L546.8,497.1z M448.2,559.6l1,7.2l-2.8,2.1l3.2,1.2l11.4,81
		l-110.3-73.6l75.6-120.3L448.2,559.6z M349,578.7l111.3,74.2l-150.9,61.7l-1.9-0.5l39.3-136.1L349,578.7z M463.3,652.1l-11.5-81.3
		l190.2,68l-3,1.9L463.3,652.1z M644,640l0.7-0.3l1.3,0.5l-2.6,0.2L644,640z M647.9,638.5l0.3,0.4l-0.6-0.2L647.9,638.5z
		 M649.9,637.8l2.8-1.1l-1.8,2.5L649.9,637.8z M648.7,636.1l-100.8-141l-90.7-163.3l0.1-0.6l223.4,70.7l49,124.7l-176.2-31.9
		L676,403.4l-1.2-1.6l-126.1,94.1l181,32.7l-74.8,105.2L648.7,636.1z M731.1,530L731.1,530l1-1.5l1-1.4l0,0l56.8-81.8l-20,144.5
		l-111.7,42.5L731.1,530z M792.1,444.2l84,133.1L772,589.2L792.1,444.2z M772.2,591.2l105.2-12l2.5,3.9L755.6,708l16.2-116.6
		L772.2,591.2z M1001.9,630.4l-119.4,56.2l-0.3-0.1c0.1-11.4,0.3-47,0.3-73.4c0-13.3-0.1-24.1-0.2-28.4L1001.9,630.4z M1004.5,631.4
		l3,1.1l2.1-1l4.1,1.3c15.9,49.5,32.3,100.3,41,127.2L885,687.7L1004.5,631.4z M1016.1,633.6l163.4,52.5l-122.6,74.2
		C1045.6,725.3,1030.4,678.1,1016.1,633.6z M1183.5,686l0.3,0.3l68.8,139l-193.9-63.7L1183.5,686z M1420.2,821.7
		c-5.6-3.1-51.3-30-100.7-59.2l56.2-55.8l91.8,48.6C1443.6,789.6,1423.5,818,1420.2,821.7z M1640.3,676.4l-37.2,148.3l-132.6-70.1
		c4.5-6.5,9.5-13.6,14.9-21.4c31.1-44.9,62.4-90.5,62.7-90.9l0.5-0.7l0,0l0.3,0.1l1,1l0.2-0.5L1640.3,676.4z M1640.1,674.1l-89.3-34
		l47.8-137.1L1640.1,674.1z M1597.4,500.3l-47.7,136.9c-4-15.7-21.7-85.1-37.5-146.9L1597.4,500.3z M1511.6,488.2
		c-11.6-45.3-22-86.1-25-98.2l109.4,108.1L1511.6,488.2z M1598.5,497.8l-111.1-109.9l166.7,15.2L1598.5,497.8z M1654.4,401.1
		l-167.1-15.2l135.4-105.1L1654.4,401.1z M1621.7,279l-135.8,105.4l17.8-198L1621.7,279z M1654.4,143.1l-31.6,134.2L1505,184.9
		L1654.4,143.1z M1568.4,79.1l-65.5,103.2L1449.3,79L1568.4,79.1z M1291.4,32.1l143.7,45l-300.7,6.5L1291.4,32.1z M1132.8,85.7
		l308.5-6.7l5.7,0l-133.5,75.8L1132.8,85.7z M1316.1,155.8L1316.1,155.8l-0.2-0.1l132-74.9l53,102.3L1316.1,155.8z M1312.6,157.4
		c4.6,59.9,12.7,169,12.9,184.4l-153.9-119.6l0.6-0.3l-0.1,0L1312.6,157.4z M1167.1,221.9l-142.5,59.4l26.6-100.5l-2-0.5
		l-26.7,100.9l-100.6-93.3c16.6-1.9,121.8-14.2,129.5-15.1L1167.1,221.9z M1167.9,220.1l-114.7-48.8l64.6-83.1L1167.9,220.1z
		 M1115.8,87.4l-64.4,82.7c-3.6-2.6-17-9.6-67.2-33c-27.5-12.8-55.3-25.6-64.7-29.9L1115.8,87.4z M913.3,107.5l-89.2,91.9l-0.3,0
		l-118.3-91.9L913.3,107.5z M702.4,107.7l117.9,91.6l-246.8-39.8L702.4,107.7z M571.4,160.3l-0.1,0.9l249.5,40.2L681,271.7
		L565.8,162.6L571.4,160.3z M115.8,172.9l282.4-65.3l161.3,54.2l-118,23.9l-10.4,1.8l-32.6-78.9l-68.2,96.2l-0.9-0.9l0.6,1.4l0,0.1
		L115.8,172.9z M328.9,207.1c-19.2,19.6-69.5,71.2-75.1,80.2c-8.5-4.5-86.5-68.4-140-112.7L328.9,207.1z M112.3,176
		c8.7,7.2,38.5,31.9,68.3,56.2c51.5,42,66.7,53.5,71.6,56.5l-90.9,56.7L112.3,176z M19.3,296l139.3,51.3l-64.8,56.5L19.3,296z
		 M14.6,475.5l78.9-68.7l82.3,118.9L14.6,475.5z M180.3,529.2l0.5,0.2l-1.6-2.4l-0.5-1l-0.1,0.1L95,405.4l64.8-56.5l21.6,179.6
		l101.2-126.7l138.6,48.3l-240.7,79.7L180.3,529.2z M181.8,531.5l242.6-80.3l2.7,0.9l-78.2,124.5L181.8,531.5z M182.6,533.8
		l164.2,44.3l-117.3,47.6l-0.1,0.1L182.6,533.8z M231.6,627.1l112.2-45.5l-38.2,132.2l-1.5-0.4L231.6,627.1z M146.2,679.9l85.3-49.8
		l70.6,83.9L220.2,772L146.2,679.9z M322.5,854.1l-0.4-1.5l2.7-0.3L322.5,854.1z M320.2,853.2l-98.5-79.8l82.1-58l1.2,0.3l-1,3.4
		l5.5-2.3L455,752.5l0.6,0.1l-154.1,18.7l0.1,1l-1,0.2L320.2,853.2z M321.7,850.7l-18.9-77.5l154.9-18.8L328.2,850L321.7,850.7z
		 M332.2,849.6l129.3-95.3l97.2,71.1L332.2,849.6z M559.5,823.4L463.2,753l0.7-0.5l-1.4-0.3l0-2.1l177.1-107.4l9.6-0.6L559.5,823.4z
		 M653.9,641.8l1.9-0.1l-3.4-1.2l3.6-5l113.4-43.2l-16.2,116.9L653.9,641.8z M755.5,711l124.8-125.4c0.4,12.4,0,75.4-0.1,101.2
		l-71.6,91.7L755.5,711z M809.8,780l70.6-90.4l0.1,0.1l2-0.9l170.9,72.9l-195.8,60.8L809.8,780z M1074.6,872.1l-213.4-48.7l195-60.6
		l1.7,0.7l-0.1-0.2l193.1,63.5L1074.6,872.1z"/>
	<path class="st0" d="M1589.4,823.2c-2.1,0.4-211.8,43.2-224.1,43.2v2c12.5,0,215.9-41.5,224.5-43.3L1589.4,823.2z"/>
</g>
</svg>
