<?xml version="1.0" encoding="utf-8"?>
<?xml-stylesheet href="../css/svg-style.css" type="text/css"?>
<svg xmlns="http://www.w3.org/2000/svg" viewBox="0 0 122 122">
	<circle class="overview-build-circle overview-circle" cx="61.4" cy="61.1" r="61"/>
	<path id="mct-building-icon" class="overview-circle-icon" d="M88.2 61.3c0-0.3-0.1-0.5-0.4-0.7l-7.3-6.1V40.8c0-0.3-0.1-0.6-0.3-0.8 -0.2-0.2-0.5-0.3-0.8-0.3H73c-0.3 0-0.6 0.1-0.8 0.3 -0.2 0.2-0.3 0.5-0.3 0.8v6.5l-8.2-6.8c-0.7-0.6-1.6-0.9-2.5-0.9 -1 0-1.8 0.3-2.5 0.9L34.6 60.6c-0.2 0.2-0.3 0.4-0.4 0.7 0 0.3 0.1 0.6 0.2 0.8l2.1 2.5c0.2 0.2 0.4 0.3 0.7 0.4 0.3 0 0.5-0.1 0.8-0.2l23.2-19.3 23.2 19.3c0.2 0.2 0.4 0.2 0.7 0.2h0.1c0.3 0 0.5-0.2 0.7-0.4l2.1-2.5C88.2 61.9 88.2 61.6 88.2 61.3zM80.5 64.2L61.2 48.3 42 64.2c0 0 0 0.1 0 0.1 0 0 0 0.1 0 0.1v16.1c0 0.6 0.2 1.1 0.6 1.5 0.4 0.4 0.9 0.6 1.5 0.6H57V69.7h8.6v12.9h12.9c0.6 0 1.1-0.2 1.5-0.6 0.4-0.4 0.6-0.9 0.6-1.5V64.4C80.5 64.3 80.5 64.2 80.5 64.2z"/>
</svg>