<?xml version="1.0" encoding="utf-8"?>
<?xml-stylesheet href="../css/svg-style.css" type="text/css"?>
<svg xmlns="http://www.w3.org/2000/svg" viewBox="0 0 122 122">
	<circle class="overview-gov-circle overview-circle" cx="61" cy="61" r="61"/>
	<path class="overview-circle-icon" d="M30.9 84.7c-0.6 0-1.2 0.2-1.6 0.6 -0.5 0.4-0.7 0.9-0.7 1.5v4.3h64.3v-4.3c0-0.6-0.2-1.1-0.7-1.5 -0.5-0.4-1-0.6-1.6-0.6H30.9zM37.2 78.3h-2c-0.6 0-1.2 0.2-1.6 0.6 -0.5 0.4-0.7 0.9-0.7 1.5v2.1h55.7v-2.1c0-0.6-0.2-1.1-0.7-1.5 -0.5-0.4-1-0.6-1.6-0.6h-2V52.6h-8.6v25.7h-4.3V52.6h-8.6v25.7h-4.3V52.6H50v25.7h-4.3V52.6h-8.6V78.3zM28.6 44v4.3h4.3c0 0.6 0.2 1.1 0.7 1.5 0.5 0.4 1 0.6 1.6 0.6h51.1c0.6 0 1.2-0.2 1.6-0.6 0.5-0.4 0.7-0.9 0.7-1.5h4.3V44L60.7 31.1 28.6 44z"/>
</svg>