<?xml version="1.0" encoding="utf-8"?>
<?xml-stylesheet href="../css/svg-style.css" type="text/css"?>
<svg xmlns="http://www.w3.org/2000/svg" viewBox="0 0 122 122">
	<circle class="overview-public-circle overview-circle" cx="60.9" cy="61.1" r="61"/>
	<path class="overview-circle-icon" d="M98.8 47.2L61.3 35.4c-0.1 0-0.2 0-0.3 0 -0.1 0-0.2 0-0.3 0L23.1 47.2c-0.5 0.2-0.7 0.5-0.7 1 0 0.5 0.2 0.9 0.7 1l11.1 3.5c-1.9 2.7-3 6.4-3.3 11 -1.5 0.8-2.2 2.1-2.2 3.7 0 1.5 0.6 2.7 1.9 3.6l-1.9 14.5c0 0.3 0 0.6 0.3 0.8 0.2 0.2 0.5 0.4 0.8 0.4h6.4c0.3 0 0.6-0.1 0.8-0.4 0.2-0.2 0.3-0.5 0.3-0.8l-1.9-14.5c1.3-0.8 1.9-2 1.9-3.6 0-1.6-0.7-2.8-2.1-3.6 0.1-2.3 0.5-4.2 1.1-6 0.6-1.7 1.4-3 2.4-3.7L60.6 61c0.1 0 0.2 0 0.3 0 0.1 0 0.2 0 0.3 0l37.5-11.8c0.5-0.2 0.7-0.5 0.7-1C99.5 47.7 99.3 47.3 98.8 47.2zM62.5 65.1c-0.5 0.2-1 0.2-1.6 0.2 -0.6 0-1.1-0.1-1.6-0.2l-19.2-6.1 -0.6 10.6c-0.1 1.5 0.8 3 2.7 4.3 1.9 1.3 4.5 2.4 7.9 3.1 3.3 0.8 6.9 1.2 10.8 1.2 3.9 0 7.5-0.4 10.8-1.2 3.3-0.8 5.9-1.8 7.9-3.1 1.9-1.3 2.8-2.7 2.7-4.3l-0.6-10.6L62.5 65.1z"/>
</svg>