<?xml version="1.0" encoding="utf-8"?>
<?xml-stylesheet href="../css/svg-style.css" type="text/css"?>
<svg xmlns="http://www.w3.org/2000/svg" viewBox="0 0 122 122">
	<circle class="overview-infra-circle overview-circle" cx="61" cy="61" r="61"/>
	<path class="overview-circle-icon" d="M88 40.6c-0.3-0.6-0.6-1.2-1-1.7 1.1-2.5 1.7-4.1 1.7-4.6 0-0.1 0-0.2-0.1-0.2 -2.7-1.6-4.1-2.3-4.2-2.3l-0.2 0.1c-0.9 0.9-1.9 2.2-3.1 3.8 -0.4 0-0.8-0.1-1-0.1 -0.2 0-0.6 0-1 0.1 -0.3-0.5-0.9-1.2-1.7-2.3 -0.8-1-1.4-1.6-1.5-1.6 0 0-0.4 0.2-1 0.5 -0.6 0.4-1.3 0.7-2 1.1 -0.7 0.4-1.1 0.6-1.2 0.7 -0.1 0.1-0.1 0.1-0.1 0.2 0 0.6 0.6 2.1 1.7 4.6 -0.4 0.5-0.7 1.1-1 1.7 -3.3 0.3-5 0.7-5 1v4.7c0 0.4 1.7 0.7 5 1 0.3 0.6 0.6 1.2 1 1.7 -1.1 2.5-1.7 4.1-1.7 4.6 0 0.1 0 0.2 0.1 0.2 2.7 1.6 4.1 2.4 4.2 2.4 0.2 0 0.7-0.5 1.5-1.6 0.8-1 1.4-1.8 1.7-2.3 0.4 0 0.8 0.1 1 0.1 0.2 0 0.6 0 1-0.1 0.3 0.5 0.9 1.2 1.7 2.3 0.8 1 1.4 1.6 1.5 1.6 0 0 1.4-0.8 4.2-2.4 0.1-0.1 0.1-0.1 0.1-0.2 0-0.6-0.6-2.1-1.7-4.6 0.4-0.6 0.7-1.1 1-1.7 3.3-0.3 5-0.7 5-1v-4.7C93 41.3 91.4 40.9 88 40.6zM88 74.9c-0.3-0.6-0.6-1.2-1-1.7 1.1-2.5 1.7-4.1 1.7-4.6 0-0.1 0-0.2-0.1-0.2 -2.7-1.6-4.1-2.3-4.2-2.3L84.2 66c-0.9 0.9-1.9 2.2-3.1 3.8 -0.4 0-0.8-0.1-1-0.1 -0.2 0-0.6 0-1 0.1 -0.3-0.5-0.9-1.2-1.7-2.3 -0.8-1-1.4-1.6-1.5-1.6 0 0-0.4 0.2-1 0.5 -0.6 0.4-1.3 0.7-2 1.1 -0.7 0.4-1.1 0.6-1.2 0.7 -0.1 0.1-0.1 0.1-0.1 0.2 0 0.6 0.6 2.1 1.7 4.6 -0.4 0.5-0.7 1.1-1 1.7 -3.3 0.3-5 0.7-5 1v4.7c0 0.4 1.7 0.7 5 1 0.3 0.6 0.6 1.2 1 1.7 -1.1 2.5-1.7 4.1-1.7 4.6 0 0.1 0 0.2 0.1 0.2 2.7 1.6 4.1 2.4 4.2 2.4 0.2 0 0.7-0.5 1.5-1.6 0.8-1 1.4-1.8 1.7-2.3 0.4 0 0.8 0.1 1 0.1 0.2 0 0.6 0 1-0.1 0.3 0.5 0.9 1.2 1.7 2.3 0.8 1 1.4 1.6 1.5 1.6 0 0 1.4-0.8 4.2-2.4 0.1-0.1 0.1-0.1 0.1-0.2 0-0.6-0.6-2.1-1.7-4.6 0.4-0.6 0.7-1.1 1-1.7 3.3-0.3 5-0.7 5-1v-4.7C93 75.6 91.4 75.2 88 74.9zM71.4 57.4c-0.2-0.2-0.3-0.3-0.6-0.4l-5.1-0.8c-0.2-0.8-0.6-1.7-1.1-2.7 0.3-0.5 0.8-1.2 1.5-2 0.7-0.8 1.1-1.5 1.4-1.8 0.2-0.2 0.2-0.4 0.2-0.6 0-0.6-1.6-2.4-4.8-5.4 -0.2-0.2-0.5-0.3-0.7-0.3 -0.3 0-0.5 0.1-0.7 0.2l-3.9 3c-0.9-0.5-1.8-0.8-2.5-1l-0.8-5.1c0-0.2-0.1-0.4-0.3-0.6 -0.2-0.2-0.4-0.3-0.7-0.3h-6.2c-0.5 0-0.8 0.3-1 0.8 -0.3 1-0.5 2.7-0.8 5.2 -1 0.3-1.8 0.7-2.6 1.1l-3.9-3c-0.2-0.2-0.5-0.2-0.7-0.2 -0.4 0-1.3 0.7-2.6 2 -1.3 1.3-2.3 2.3-2.7 3 -0.2 0.2-0.2 0.4-0.2 0.7 0 0.2 0.1 0.4 0.2 0.7 1.2 1.5 2.3 2.8 3 3.9 -0.5 0.9-0.8 1.8-1.1 2.5L29.5 57c-0.2 0-0.4 0.1-0.5 0.4 -0.2 0.2-0.2 0.4-0.2 0.7v6.2c0 0.2 0.1 0.5 0.2 0.7 0.2 0.2 0.3 0.3 0.6 0.3l5.1 0.8c0.3 0.8 0.7 1.8 1.2 2.7 -0.4 0.5-0.9 1.2-1.6 2 -0.7 0.9-1.1 1.5-1.4 1.8 -0.2 0.2-0.2 0.4-0.2 0.6 0 0.6 1.6 2.4 4.8 5.4 0.2 0.2 0.5 0.3 0.7 0.3 0.3 0 0.5-0.1 0.7-0.2l4-3c0.9 0.5 1.8 0.8 2.5 1l0.8 5.1c0 0.2 0.1 0.4 0.3 0.6 0.2 0.2 0.4 0.3 0.7 0.3h6.2c0.5 0 0.8-0.3 1-0.8 0.3-1 0.5-2.8 0.8-5.2 0.9-0.3 1.8-0.6 2.6-1l3.9 3c0.2 0.2 0.5 0.2 0.7 0.2 0.4 0 1.3-0.7 2.6-2 1.3-1.3 2.2-2.3 2.8-3 0.2-0.2 0.2-0.4 0.2-0.6 0-0.2-0.1-0.4-0.2-0.7 -1.2-1.5-2.3-2.8-3-3.9 0.5-0.9 0.8-1.8 1.1-2.5l5.2-0.8c0.2 0 0.4-0.1 0.5-0.4 0.2-0.2 0.2-0.4 0.2-0.7v-6.2C71.6 57.8 71.5 57.6 71.4 57.4zM83.2 47c-0.8 0.8-1.8 1.3-3 1.3 -1.2 0-2.2-0.4-3-1.3 -0.8-0.8-1.3-1.8-1.3-3 0-1.2 0.4-2.2 1.3-3 0.8-0.8 1.9-1.3 3-1.3 1.2 0 2.2 0.4 3 1.3 0.8 0.8 1.3 1.9 1.3 3C84.4 45.2 84 46.2 83.2 47zM83.2 81.3c-0.8 0.8-1.8 1.3-3 1.3 -1.2 0-2.2-0.4-3-1.3 -0.8-0.8-1.3-1.8-1.3-3 0-1.2 0.4-2.2 1.3-3 0.8-0.8 1.9-1.3 3-1.3 1.2 0 2.2 0.4 3 1.3 0.8 0.8 1.3 1.9 1.3 3C84.4 79.5 84 80.5 83.2 81.3zM50.2 69.7c-2.4 0-4.4-0.8-6.1-2.5 -1.7-1.7-2.5-3.7-2.5-6.1 0-2.4 0.8-4.4 2.5-6.1 1.7-1.7 3.7-2.5 6.1-2.5 2.4 0 4.4 0.8 6.1 2.5 1.7 1.7 2.5 3.7 2.5 6.1 0 2.4-0.8 4.4-2.5 6.1C54.5 68.9 52.5 69.7 50.2 69.7z"/>
</svg>