<?xml version="1.0" encoding="utf-8"?>
<?xml-stylesheet href="../css/svg-style.css" type="text/css"?>
<svg xmlns="http://www.w3.org/2000/svg" viewBox="0 0 122 122">
	<circle class="overview-transport-circle overview-circle" cx="61" cy="61" r="61"/>
	<path class="overview-circle-icon" d="M85.8 54.9l-3.5-15.2C82.1 38 81 36.4 79 35.1c-2-1.3-4.5-2.3-7.7-3 -3.2-0.7-6.6-1-10.5-1 -3.8 0-7.3 0.3-10.5 1 -3.2 0.7-5.7 1.7-7.7 3 -2 1.3-3.1 2.8-3.3 4.6L36 54.9c-0.6 2.5-0.8 5-0.8 7.5v20.2h4.3v4.3c0 1.2 0.4 2.2 1.3 3 0.8 0.8 1.8 1.3 3 1.3 1.2 0 2.2-0.4 3-1.3 0.8-0.8 1.3-1.8 1.3-3v-4.3h25.7v4.3c0 1.2 0.4 2.2 1.3 3 0.8 0.8 1.8 1.3 3 1.3 1.2 0 2.2-0.4 3-1.3 0.8-0.8 1.3-1.8 1.3-3v-4.3h4.3V62.4C86.6 59.7 86.3 57.2 85.8 54.9zM71.6 39.7H50.2c-0.4 0-0.8-0.2-1.1-0.5 -0.3-0.3-0.5-0.7-0.5-1.1 0-0.4 0.2-0.8 0.5-1.1 0.3-0.3 0.7-0.5 1.1-0.5h21.4c0.4 0 0.8 0.2 1.1 0.5 0.3 0.3 0.5 0.7 0.5 1.1 0 0.4-0.2 0.8-0.5 1.1C72.4 39.5 72 39.7 71.6 39.7zM80.3 60.4c-0.4 0.5-1 0.8-1.6 0.8H43.1c-0.7 0-1.2-0.3-1.6-0.8 -0.4-0.5-0.6-1.1-0.5-1.8l2.4-12.9c0.1-0.5 0.4-0.9 0.8-1.3 0.4-0.3 0.8-0.5 1.4-0.5h30.7c0.5 0 1 0.2 1.4 0.5 0.4 0.3 0.6 0.7 0.8 1.3l2.4 12.9C80.9 59.3 80.7 59.8 80.3 60.4zM78 76.1c-1.2 0-2.2-0.4-3-1.3 -0.8-0.8-1.3-1.8-1.3-3 0-1.2 0.4-2.2 1.3-3 0.8-0.8 1.8-1.3 3-1.3 1.2 0 2.2 0.4 3 1.3 0.8 0.8 1.3 1.8 1.3 3 0 1.2-0.4 2.2-1.3 3C80.2 75.7 79.2 76.1 78 76.1zM43.7 76.1c-1.2 0-2.2-0.4-3-1.3 -0.8-0.8-1.3-1.8-1.3-3 0-1.2 0.4-2.2 1.3-3 0.8-0.8 1.8-1.3 3-1.3 1.2 0 2.2 0.4 3 1.3 0.8 0.8 1.3 1.8 1.3 3 0 1.2-0.4 2.2-1.3 3C45.9 75.7 44.9 76.1 43.7 76.1z"/>
</svg>