<?xml version="1.0" encoding="utf-8"?>
<?xml-stylesheet href="../css/svg-style.css" type="text/css"?>
<svg xmlns="http://www.w3.org/2000/svg" viewBox="0 0 340 340">
<path class="map-circle" d="M170.3 336.5c-92 0-166.8-74.8-166.8-166.8 0-92 74.8-166.8 166.8-166.8 92 0 166.8 74.8 166.8 166.8C337.1 261.7 262.2 336.5 170.3 336.5z"/>
<path class="map-circle-border" d="M170.2 3.9c91.6 0 165.8 74.2 165.8 165.8s-74.2 165.8-165.8 165.8S4.4 261.3 4.4 169.7 78.7 3.9 170.2 3.9M170.2 1.9c-44.8 0-87 17.5-118.7 49.2C19.9 82.7 2.4 124.9 2.4 169.7s17.5 87 49.2 118.7c31.7 31.7 73.8 49.2 118.7 49.2s87-17.5 118.7-49.2c31.7-31.7 49.2-73.8 49.2-118.7s-17.5-87-49.2-118.7C257.2 19.3 215.1 1.9 170.2 1.9L170.2 1.9z"/>
<path class="map-om" d="M276.6 138.6l-0.4-1 -0.6-0.8 -0.7-0.2 -0.5 0.1 -0.3 0 -0.1 0.4 0.4 0.4 0.2 0.3 -0.1 0.1 -0.2 0 -0.2 0 -0.2-0.1 -0.1-0.1 -0.2-0.2 0-0.2 0-0.1v-0.1l-0.1-0.1 0-0.3 -0.1-0.1 -0.2 0 -0.4 0.1 -0.2 0 -1.1-0.8 -0.7-0.3 -2.1 0.7 -0.4 0 -0.3 0 -0.2-0.2v-0.4l0.2 0.1 0.2 0.1 0.2-0.1 0-0.3 -0.2-0.1 -0.6-0.3 -0.6-0.5 -0.8-0.4 -1.1-1.1 -0.4-0.4 -0.2-0.5 -1.1-1.7 -1-0.5 -0.5-0.4 -0.2-0.6 -0.1-0.4 -1-2.5 -0.5-0.9 -0.7-0.8 -0.9-0.7 -1.4-0.8 -0.8-0.6 -0.1-0.1 -0.1-0.2 -0.2-0.9 -0.1-0.2 -1.7-1.8 -0.2-1.7 -0.4-0.6 -0.8-0.8 -0.3-0.5L252 114l-0.4-0.5 -1-0.4 -1.6-1.5 -0.3-0.6 -0.3-1.3 -0.2-0.4 0.1-0.4 -0.2-0.5 -0.6-0.9 -0.3 0.2 -0.1 0 -0.1-0.1 -0.1 0.3 0 0.1h-0.2l0-0.2 0-0.1 -0.1-0.1 -0.1-0.2 -0.2 0.4H246l-0.1-0.2 -0.2-0.2 -0.4-0.3 -0.2 0 -0.2 0 -0.2 0 -0.1 0 -0.1-0.1 -0.1-0.1 -0.1-0.1 -0.1-0.1 -0.2-0.2 -0.5-1.2 -0.2-0.4 -0.5-0.3 -0.6-0.1 -1.2 0 -0.5-0.1 -0.2 0 -0.2 0.5 -0.2 0.2 -0.6 0.2 -1.1 0.2 -1.3 0 -1.3-0.2 -0.9-0.3 -0.5-0.4 -1-1 -0.5-0.2 -0.5-0.1 -1.7-0.7 -1.2-0.3 -1.2-0.1 -3.5 0.2 -0.7-0.1 -0.8-0.4 -0.7-0.2 -0.3-0.2 -0.8-1 -0.5-0.1 -1.8 0.1 -0.6 0 -1.1-0.2 -1.6-0.5 -2.1-0.9 -5-1.3 -3.9-1.5 -0.9-0.6 -2.5-2 -3.2-2.7 -2.7-3.2 -0.2-0.8 -0.2-0.5 -0.6-0.9 -3-3.6 -1.5-1.4 -0.7-0.7 -3.2-6 -0.2-1.2 -0.2-0.7 -0.3-0.3 -1.7-3.6L183 65l-1.5 0.2 -0.3 0.3 -0.1 1.7 -0.2 0.3 -0.8 0.5 -1 1 -0.5 0.2 -1 0.1 -0.4 0.2 -0.4 1.1 -0.6 0.7 -0.2 0.5 -0.2 0.3 -0.5 0.1 -0.6 0 -0.4-0.1 -0.8-0.7 -0.8-2 -1-0.9 -0.2-0.4 0.1-0.4 0.5-0.1 0.4 0.1 0.3 0.2 0.7 0.5 -0.3-1.9 -0.3-0.9 -0.7-0.5 -1.2-0.2 -1 0.3 -0.9 0.6 -0.9 0.8 -0.8 1 -0.3 0.9 0.2 2.3v0.6l-0.1 1.1 0.1 0.5 0.5 1.2 0.1 0.6 -0.8 0.7 -0.2 1 -0.4 0.4 -0.3 0.4 0 0.6 0.3 1.2 -0.1 1.6 0.1 0.5 0.2 0.2 0.5 0.4 0.2 0.3 0.1 0.2 -0.1 1.4 -0.2 0.4 -1.1 1.9 -0.2 0.5 0 0.5 0.3 0.2 1.7 0.4 0.4 0 1.5-0.6 0.8 0.3 0.4 1.1 0.3 1.3 1 1.8 -0.3 0.5 -1.7 0.4 -3.2 1.3 -0.5-0.1 -0.7-0.5 -0.5 0.1 -0.4 0.2 -0.4 0 -0.9-0.1 -0.9 0 -0.8 0.1 -0.7 0.3 -0.8 0.4 -0.5 0.3 -1.2 0.4 -1.2 0.2 -0.1 0.4 0.2 0.5 0.5 0.4 1 0.6 0.4 0.6 0.1 0.8 0.1 2.2 -0.1 0.4 -1.3 1.9 -0.2 0.5 -0.9 3.6 -0.4 0.6 -1 1.1 0 0 -0.5 0.8 -0.3 1 -0.6 2.9 -0.6 1.8 -2.6 4.5 -0.8 2.8 -0.1 0.9v0l0.2 4.3 -0.3 4.3 1.7 2.9 2.2 3.6 2.2 3.6 2.2 3.6 2.2 3.6 1.4 2.4 0.3 0.6 0 0.7 -1.1 3.7 -0.2 0.6 -0.5 1.6 -0.8 2.5 -1 3.3 -1.2 3.8 -1.3 4.3 -1.4 4.6 -1.5 4.7 -1.5 4.7 -1.4 4.6 -1.3 4.3 -1.2 3.8 -1 3.2 -0.8 2.5 -0.5 1.6 -0.2 0.6 -0.9 2.8 -4.1 1.4 -4.6 1.6 -4.6 1.6 -4.6 1.6 -4.6 1.6 -4.6 1.6 -4.6 1.6 -4.6 1.6 -4.6 1.6 -4.6 1.6 -4.6 1.6 -4.6 1.6 -4.6 1.6 -4.6 1.6 -4.6 1.6 -4.6 1.6 -7.6 2.7 1 2.3 1.2 2.8 1.2 2.7 1.2 2.7 1.2 2.7 1.2 2.7 1.2 2.7 2.3 5.5 1.2 2.7 1.2 2.7 1.2 2.7 1.2 2.7 1.2 2.7 1.2 2.7 1.2 2.7 1.2 2.7 0.9 2 -0.1 0 -0.1 0 0 0 0.4 0.2 1 0.1 0.5 0.2 0.3 0.4 1 2.4 1.7 3.8 1.7 3.8 1.7 3.8 1.7 3.8 2.3-1.2 4.4-1.4 2.3-0.3 4.3-0.1 0.9-0.2 0.9-0.4 0.5-0.3 0.2-0.3 0.3-0.5 0.6-0.6 0.7-0.6 0.5-0.3 0.5 0.1 0.6-0.2 0.6-0.3 0.5-0.2 0.5 0 1.6-0.3 1.2-0.1 0.7-0.1 0.3-0.3 0.1-0.2 0.4-0.3 0.1-0.2 0-0.2 -0.1-0.2 0-0.2 0.1-0.2 0.3-0.2 1.2-0.6 0.5-0.1h2.1l5-0.6 0.3 0.1 0.2 0.1 0.6-0.4 0.7 0 1.3 0.4 0.2-0.1 0.6-0.2 0.3-0.1h0.4l1 0.2 0.3 0 0.6-0.1 0.3 0 0.3 0.1 0.8 0.3 1.1 0.2 0.3 0.4 0.1 0.5 0.2 0.5 0.2-0.2 0.9 0.6 0.3-0.1 0.5 0.1 0.3-0.2 0.3 0.4 0.4 0 0.9-0.3 1.1-0.1 0.5-0.2 0.4-0.4 0.4 0.1 0.4-0.1 0.4-0.1 0.4-0.1 0.3-0.2 0.3-0.4 0.3-0.2 0.3 0.4h0.2l1.2-0.9 1.1-1.3 0.3-0.2 0.2-0.4 0.2-0.4 0.1-0.2 0.4-0.2 0.8-0.2 0.3-0.3 -0.1-0.1 0.3-0.4 0.1-0.5 0.1-0.2 0.2-0.2 0.2-0.2 0.7-0.4 0.1-0.2 0.1-0.4 0-0.2 -0.2-0.1 -0.2-0.2 0-0.3 0-0.4 0.1-0.3 1.1-1.5 0.2-0.5 0-1.3 -0.2-0.6 -0.5-0.6 -0.9-0.5 -0.3-0.4 -0.1-0.8 0.1-0.7 0.2-0.6 0.8-1.4 2.5-2.1 0.4-0.4 0.1-0.2 0.4-1.2 0.1-0.2 0.4-0.5 0.2-0.5 0.4-1.1 0.4-0.5 0.2-0.1 0.9-0.2 0 0 0.5 0 0.2-0.1 0.1-0.1 0.1-0.1 0.2 0 0.6-0.1 2.7-0.7 6.9-0.3 1-0.3 1.8-0.7 0.5-0.1 2.3 0.2 0.6-0.1 0.8-0.4 0.5-0.1 4.2 0.5 0.3-0.1 0-0.6 0.1-0.2 1.3-1.4 0.2-0.1 0.4-0.1 0.2-0.1 0.8-1.5 0.6-0.3 1.2-0.5 0.5-0.4 0.4-0.6 0.1-0.6 -0.4-0.6 1.4-3.3 0.2-1.2V256l0.1-0.3 0.2-0.6 0.1-0.5 0.4-0.5 0.1-0.4 0-0.3 -0.2-0.9 0.1-1.3 0.5-1 2.9-2.9 0.2-0.3 0.3-0.6 0.6-0.5 1.2-0.6 1.8-1.3 4.6-1.9 3.4-1 8-1.2 5.7 0.3 0.3-0.1 0.3-0.2 0.3-0.2 0.1-0.2 0.1-0.2 1.2-0.2 0.1 0 0.4-0.3 0.7-0.7 0-0.4 -1-1.8 0-0.6 0.2-1.2 -0.2-0.5 -0.7-0.8 -0.3-0.4 -0.5-1.5 -0.1-0.6 0.1-0.6 0.5-1.3 0.1-0.7V227l-0.2-0.8 -0.2-0.5 -1.3-2.1 -0.2-0.6 0.1-0.6 0.2-0.7 0.1-0.4 0-0.4 0-0.9 -0.1-0.4 -0.2-0.3 -0.2-0.3 -0.2-0.3 -0.1-0.9 0.3-0.7 1.7-2.5 0.3-0.7 0.5-1.6 0.6-1.5 0.1-0.8 0-0.4 0.4-1.6 0.5-1 -0.2-0.7L222 205l0-0.7 0.3-0.5 0.3-0.4 0.2-0.3 0.2-0.5 0.4-0.5 0.5-0.4 0.5-0.3 1.2-0.5 0.5-0.4 0.2-0.6 -0.1-0.3 -0.4-0.4 -0.1-0.3 0.1-0.4 0.2-0.3 0.2-0.3 0.6-0.6 0.5-0.3 0.5-0.2 0.7-0.1 0.3-0.2 0.2-0.2 -0.1-0.3 -0.2-0.3 0-0.3 0.5-1.4 0.2-0.3 0.3-0.2 1.1-0.3 0.9-0.6 0.8-0.2 0.8-0.1 0.5 0.2 0.2 0.6 -0.1 0.8 -0.3 0.8 -0.4 0.6 -0.3 0.6 0.3 1.3 -0.1 0.6 -0.3-0.2 -0.2-0.3 -0.1-0.3 0-0.4 -0.3 1.2 0.1 0.6 0.6 0.2 0.5 0.1 1 0.3 0.1 0.1 -0.2 0.1 -0.1 0.3 0.4-0.1 0.6-0.3 0.3-0.1 0.9 0 0.4 0.1 0.5 0.3 0.7 0.3 0.8 0 0.6-0.3 0.2-0.8 0.3-0.2 0.4-0.2 0.4-0.1 0.2 0 0.1-0.2 0.1-1 0.2-0.2 0-0.5 0.4-1 0.7-1.4 0.1-0.8 0.2-0.8 0.3-0.7 0.3-0.6 0.3-0.3 0.6-0.3 0.2-0.2 0.2-0.4 0.2-0.8 0.2-0.4h0.2l0.2 0.3 0.5-0.1 0.5-0.4 0.3-0.4 0-0.6 -0.3 0.2 -0.4 0.4 -0.4 0.2 -0.3-0.1 -0.2-0.2 -0.2-0.3 -0.1-0.3 0.1-0.2 0.1-0.1 0.2-0.2 0 0 0.2-0.5 0-0.1 1.1-0.6 0.5-0.4 -0.1-0.6 1.6-1.3 0.2-0.2 0.1-0.3 0.1-1 0.1-0.3 0.8-1.5 0.4-0.6 0.4-0.3 0.3-0.3 1.1-1.7 3.7-3.9 3-2.5 0.8-0.5 3.8-1.7 0.2-0.2 0.1-0.3 0.2-0.9 2.5-4 0.5-1.2 0.8-2.6 2.1-2.9 0.4-1.1 0.3-0.5 1.1-0.4 0.3-0.6 0.1-1.4 0.5-1.4 0.1-0.7 0.2-0.5 0.5-0.5 0.8-0.7 1.5-2.2 0.5-1.1 0.3-1.3 0.5-4.8L276.6 138.6zM176.7 32.3l0.3 0 0.4 1.2 0.1 0.6 -0.1 0.6 -0.2 0.9 -0.1 2.7 -0.2 0.4 -0.5 0.7 -0.1 0.4 0.1 0.5 0.6 0.8 0.1 0.4 -0.2 0.4 -0.3 0.3 -0.3 0.3 0 0.5 0.1 1.3 0.2 0.4 0.1 0.1 0.6 0.1 0.2 0.2 0.3 0.6 0.2 0.2 0.4 0.1 0.4-0.1 1.1-0.3 -0.1-0.4 -0.2-1 0.2-1.1 0.4-1 0.4-0.6v0.6l0.4-0.2 0.3-0.4 0.4-0.8 0.5-0.5 0-0.7 0-0.2 0.3-0.6 0.4-0.6 0.2-0.7 -0.4-0.7 0.3-0.3 0.4 0 0.4 0.1 0.4 0.2 0.1-0.4 0.1-0.1 0.2-0.1 -0.6-0.2 -0.2-0.1 -0.1-0.2 -0.4-0.5 -0.1-0.3 0.6-0.4 0-0.6 -0.4-0.3 -0.7 0.4 -0.1-0.5 0.2-0.3 0.8-0.3 0.8-0.5 0.4-0.3 0.2-0.4 -2.4 0 -0.5-0.2 0.1-0.3 0.1-0.4 0-0.3 -0.2-0.2 -0.3 0.1 -0.2 0.3 -0.2 0.6 -0.1-0.4 -0.1-0.4 0-0.4 0.1-0.3 -0.2-0.4 0.4-0.6 0.7-0.4 0.6 0.1 -0.2 0.1 -0.1 0.2 -0.1 0.2 0 0.3 0.2-0.1 0.4-0.2 0.2-0.1 0 0.5 0.2 0.4 0.3 0.1 0.4-0.2 0.2 0.2 0.3 0.1 0.3 0.1 0.3 0 -0.2-0.5 -0.3-0.3 -0.4-0.2 -0.3-0.4 0.1-0.2 0-0.2 0-0.2 -0.1-0.3 0.3 0 0.3 0 0.2 0.6 0.2-0.1 0.5-0.9 -0.3-0.4 -0.3 0.1 -0.3 0.2 -0.2 0.1 -0.4-0.1 -0.3-0.2 -0.6-0.6 0.2-0.3 0-0.2h0l0.5-0.3 0.8-0.7 0.5-0.2 0.7 0 0.4 0 0.1-0.3 -0.3-0.8 -0.6 0.2 0.1 0.1 0.1 0.3 0.1 0.1 -0.3 0 -0.3 0 -0.6-0.2 -0.2-0.2 -0.1-0.2L184 24l-0.3 0.2 -0.1-0.2 -0.1-0.1 0-0.1 0.1-0.2 -0.2-0.2 -0.1 0.1 -0.4 0.3 -0.4-0.8h-0.2l-0.1 0.4 0 0.7 -0.1 0.4 -0.3 0.4 -0.2 0.1h-0.2l-0.2 0.1 -0.1 0.3 0.3 0.1 0.4 0.3 0.3 0.3 0.1 0.2 -0.1 0.4 -0.4-0.1 -0.8-0.6v0.5l-0.2 1.3 0 0.3 0.3 0.1 0.3-0.2 0.3-0.3 0.1-0.2 0.2-0.1 0.3 0 0.5 0.1 0.2 0.1 0.2 0.2 0.1 0.3 -0.1 0.3 -0.2 0 -0.8-0.2 -0.3 0.1 -0.7 0.5 -0.3 0 -0.2-0.1 -0.2 0 -0.2 0.3 -0.1-0.5 -0.3-0.3 -0.3-0.1 -0.2 0.1 -0.1 0.2 -0.7 0 -0.3 0.3h-0.2l0.1-0.4 0.1-0.2 -0.3-0.5 0-0.4 0-0.2 -0.4 0.2 -0.3 0.3 -0.7 1.4 -1.8 2.8 -0.3 1.1 -0.1 0.3 0.6 0L176.7 32.3zM251.4 192.7l-0.1-0.6 0.1-0.6 0.2-0.5 0-0.5 -0.3-0.5 -0.4 0.1 -0.2 0.3 -0.3 0.9 -0.5 1 -1.3 1.7 -0.3 0.4 -0.2 0.5 -0.1 1.1 -0.1 0.4 -0.3 0.4 -0.5 0.3 -0.5 0.1 -0.4 0 -0.5 0.2 -0.1 0.2 -0.1 0.5 -0.1 0.1 -0.2 0.1 -0.5 0.4 -0.1 0.1 -0.3 0.4 -0.1 0.4 -0.2 2.3 0.1 0.3 -0.1 0.5 0 0.9 0.1 0.9 0.3 0.5 0.3 0 0.3-0.2 0.2-0.3 0.1-0.3 0.1-0.2 0.3-0.1 0.3-0.1 0.2-0.1 0.2-0.3 0.5-0.7 0.9-0.9 0.1-0.2 0-0.2 0-0.3v-0.3l0.2-0.5 0.3-1.4 0.3-0.7 0.6-1 0.5-0.4 1.1-0.6 1-0.8 0.2-0.2 0.1-0.3 -1.1-2L251.4 192.7zM168.9 280.6l-0.4 0.1 -0.3 0.1 -0.1 0.2 0.1 0.3 0.3-0.1 0.8 0 0.4-0.2 -0.2-0.1L168.9 280.6zM174.5 280.2l-0.2-0.3 -0.1-0.4 -0.7 0.3 -1 0.3 -0.7 0.4 0.2 0.6 0.4 0.2 1.2 0.1 0.4-0.1 0.5-0.2 0.9-0.5 -0.4-0.1L174.5 280.2zM178.4 57.6l0.2 0.4 0.4 0.1 0.4-0.2 0.8-0.6 0-0.4 0-0.6 -0.1-0.6 -0.1-0.3 -0.2 0 -0.3 0 -0.5 0.2 -0.3 0.2 0.1 0.2 0.2 0.1 0.1 0.2 -0.6 0.8L178.4 57.6z"/>
</svg>