<?xml version="1.0" encoding="utf-8"?>
<!-- Generator: Adobe Illustrator 19.0.0, SVG Export Plug-In . SVG Version: 6.00 Build 0)  -->
<?xml-stylesheet href="../css/svg-style.css" type="text/css"?>
<svg version="1.1" id="Layer_1" xmlns="http://www.w3.org/2000/svg" xmlns:xlink="http://www.w3.org/1999/xlink" x="0px" y="0px"
	 viewBox="-52 178.1 490.6 485.8" style="enable-background:new -52 178.1 490.6 485.8;" xml:space="preserve">
<circle id="Circle_Dashed" class="dashed-cricle rotate-clockwise" cx="193.3" cy="421" r="205.1"/>
<g id="school_left">
	<rect x="-14.4" y="369.8" class="public-color figure-stroke" width="207.7" height="128.4"/>
	<path class="public-color figure-stroke" d="M-11.6,362.3h204.9v-13.9c-3.1,0.1-168.3,4.8-179.4,5.7C-3.8,355.5-6.9,356.9-11.6,362.3z"/>
	<polygon class="public-color figure-stroke" points="-11.6,362.3 -22.6,362.3 -22.6,369.8 -14.4,369.8 193.3,369.8 193.3,367 193.3,364.1 193.3,362.3 	"/>
	<rect x="-26.8" y="498.2" class="public-color figure-stroke" width="220.1" height="22.5"/>
	<g id="XMLID_3185_">
		<g id="XMLID_3271_">
			<g id="XMLID_3323_">
				<g id="XMLID_3336_">
					<rect id="XMLID_3350_" x="7.4" y="383.4" class="public-color figure-stroke" width="23.6" height="43.1"/>
					<g id="XMLID_3337_">
						<path class="public-color" d="M20.3,424.7v-6.8h9.1v6.8H20.3z M9.1,424.7v-6.8h9.1v6.8H9.1z M20.3,416.3v-10.2h9.1v10.2H20.3z
							 M9.1,416.3v-10.2h9.1v10.2H9.1z M20.3,404.6v-10.2h9.1v10.2H20.3z M9.1,404.6v-10.2h9.1v10.2H9.1z M20.3,392.9v-7.5h9.1v7.5
							H20.3z M9.1,392.9v-7.5h9.1v7.5H9.1z"/>
						<path class="figure-icon-circle" d="M28.8,385.8v6.5h-8.1v-6.5H28.8 M17.7,385.8v6.5H9.6v-6.5H17.7 M28.8,394.9v9.2h-8.1v-9.2H28.8
							 M17.7,394.9v9.2H9.6v-9.2H17.7 M28.8,406.6v9.2h-8.1v-9.2H28.8 M17.7,406.6v9.2H9.6v-9.2H17.7 M28.8,418.4v5.8h-8.1v-5.8
							H28.8 M17.7,418.4v5.8H9.6v-5.8H17.7 M29.8,384.8h-10v8.5h10.1L29.8,384.8L29.8,384.8z M18.7,384.8H8.6v8.5h10.1L18.7,384.8
							L18.7,384.8z M29.8,393.9h-10v11.2h10.1L29.8,393.9L29.8,393.9z M18.7,393.9H8.6v11.2h10.1L18.7,393.9L18.7,393.9z
							 M29.8,405.6h-10v11.2h10.1L29.8,405.6L29.8,405.6z M18.7,405.6H8.6v11.2h10.1L18.7,405.6L18.7,405.6z M29.8,417.4h-10v7.8
							h10.1L29.8,417.4L29.8,417.4z M18.7,417.4H8.6v7.8h10.1L18.7,417.4L18.7,417.4z"/>
					</g>
				</g>
			</g>
			<g id="XMLID_3300_">
				<g id="XMLID_3309_">
					<rect id="XMLID_3322_" x="40.2" y="383.4" class="public-color figure-stroke" width="23.6" height="43.1"/>
					<g id="XMLID_3310_">
						<path class="public-color" d="M53.1,424.7v-6.8h9.1v6.8H53.1z M41.9,424.7v-6.8H51v6.8H41.9z M53.1,416.3v-10.2h9.1v10.2H53.1z
							 M41.9,416.3v-10.2H51v10.2H41.9z M53.1,404.6v-10.2h9.1v10.2H53.1z M41.9,404.6v-10.2H51v10.2H41.9z M53.1,392.9v-7.5h9.1
							v7.5H53.1z M41.9,392.9v-7.5H51v7.5H41.9z"/>
						<path class="figure-icon-circle" d="M61.7,385.8v6.5h-8.1v-6.5H61.7 M50.5,385.8v6.5h-8.1v-6.5H50.5 M61.7,394.9v9.2h-8.1v-9.2H61.7
							 M50.5,394.9v9.2h-8.1v-9.2H50.5 M61.7,406.6v9.2h-8.1v-9.2H61.7 M50.5,406.6v9.2h-8.1v-9.2H50.5 M61.7,418.4v5.8h-8.1v-5.8
							H61.7 M50.5,418.4v5.8h-8.1v-5.8H50.5 M62.7,384.8H52.6v8.5h10.1V384.8L62.7,384.8z M51.5,384.8H41.4v8.5h10.1V384.8
							L51.5,384.8z M62.7,393.9H52.6v11.2h10.1V393.9L62.7,393.9z M51.5,393.9H41.4v11.2h10.1V393.9L51.5,393.9z M62.7,405.6H52.6
							v11.2h10.1V405.6L62.7,405.6z M51.5,405.6H41.4v11.2h10.1V405.6L51.5,405.6z M62.7,417.4H52.6v7.8h10.1V417.4L62.7,417.4z
							 M51.5,417.4H41.4v7.8h10.1V417.4L51.5,417.4z"/>
					</g>
				</g>
			</g>
			<g id="XMLID_3273_">
				<g id="XMLID_3285_">
					<rect id="XMLID_3299_" x="73.1" y="383.4" class="public-color figure-stroke" width="23.6" height="43.1"/>
					<g id="XMLID_3287_" class="window-open anim-delay2s">
						<path class="public-color" d="M85.9,424.7v-6.8H95v6.8H85.9z M74.7,424.7v-6.8h9.1v6.8H74.7z M85.9,416.3v-10.2H95v10.2H85.9z
							 M74.7,416.3v-10.2h9.1v10.2H74.7z M85.9,404.6v-10.2H95v10.2H85.9z M74.7,404.6v-10.2h9.1v10.2H74.7z M85.9,392.9v-7.5H95
							v7.5H85.9z M74.7,392.9v-7.5h9.1v7.5H74.7z"/>
						<path class="figure-icon-circle" d="M94.5,385.8v6.5h-8.1v-6.5H94.5 M83.3,385.8v6.5h-8.1v-6.5H83.3 M94.5,394.9v9.2h-8.1v-9.2H94.5
							 M83.3,394.9v9.2h-8.1v-9.2H83.3 M94.5,406.6v9.2h-8.1v-9.2H94.5 M83.3,406.6v9.2h-8.1v-9.2H83.3 M94.5,418.4v5.8h-8.1v-5.8
							H94.5 M83.3,418.4v5.8h-8.1v-5.8H83.3 M95.5,384.8H85.4v8.5h10.1V384.8L95.5,384.8z M84.3,384.8H74.2v8.5h10.1V384.8
							L84.3,384.8z M95.5,393.9H85.4v11.2h10.1V393.9L95.5,393.9z M84.3,393.9H74.2v11.2h10.1V393.9L84.3,393.9z M95.5,405.6H85.4
							v11.2h10.1V405.6L95.5,405.6z M84.3,405.6H74.2v11.2h10.1V405.6L84.3,405.6z M95.5,417.4H85.4v7.8h10.1V417.4L95.5,417.4z
							 M84.3,417.4H74.2v7.8h10.1V417.4L84.3,417.4z"/>
					</g>
				</g>
			</g>
		</g>
		<g id="XMLID_3186_">
			<g id="XMLID_3244_">
				<g id="XMLID_3256_">
					<rect id="XMLID_3270_" x="7.4" y="438.9" class="public-color figure-stroke" width="23.6" height="43.1"/>
					<g id="XMLID_3258_" class="window-open">
						<path class="public-color" d="M20.3,480.2v-6.8h9.1v6.8H20.3z M9.1,480.2v-6.8h9.1v6.8H9.1z M20.3,471.8v-10.2h9.1v10.2H20.3z
							 M9.1,471.8v-10.2h9.1v10.2H9.1z M20.3,460.1v-10.2h9.1v10.2H20.3z M9.1,460.1v-10.2h9.1v10.2H9.1z M20.3,448.3v-7.5h9.1v7.5
							H20.3z M9.1,448.3v-7.5h9.1v7.5H9.1z"/>
						<path class="figure-icon-circle" d="M28.8,441.3v6.5h-8.1v-6.5H28.8 M17.7,441.3v6.5H9.6v-6.5H17.7 M28.8,450.4v9.2h-8.1v-9.2H28.8
							 M17.7,450.4v9.2H9.6v-9.2H17.7 M28.8,462.1v9.2h-8.1v-9.2H28.8 M17.7,462.1v9.2H9.6v-9.2H17.7 M28.8,473.8v5.8h-8.1v-5.8
							H28.8 M17.7,473.8v5.8H9.6v-5.8H17.7 M29.8,440.3h-10v8.5h10.1L29.8,440.3L29.8,440.3z M18.7,440.3H8.6v8.5h10.1L18.7,440.3
							L18.7,440.3z M29.8,449.4h-10v11.2h10.1L29.8,449.4L29.8,449.4z M18.7,449.4H8.6v11.2h10.1L18.7,449.4L18.7,449.4z
							 M29.8,461.1h-10v11.2h10.1L29.8,461.1L29.8,461.1z M18.7,461.1H8.6v11.2h10.1L18.7,461.1L18.7,461.1z M29.8,472.8h-10v7.8
							h10.1L29.8,472.8L29.8,472.8z M18.7,472.8H8.6v7.8h10.1L18.7,472.8L18.7,472.8z"/>
					</g>
				</g>
			</g>
			<g id="XMLID_3216_">
				<g id="XMLID_3228_">
					<rect id="XMLID_3242_" x="40.2" y="438.9" class="public-color figure-stroke" width="23.6" height="43.1"/>
					<g id="XMLID_3230_">
						<path class="public-color" d="M53.1,480.2v-6.8h9.1v6.8H53.1z M41.9,480.2v-6.8H51v6.8H41.9z M53.1,471.8v-10.2h9.1v10.2H53.1z
							 M41.9,471.8v-10.2H51v10.2H41.9z M53.1,460.1v-10.2h9.1v10.2H53.1z M41.9,460.1v-10.2H51v10.2H41.9z M53.1,448.3v-7.5h9.1
							v7.5H53.1z M41.9,448.3v-7.5H51v7.5H41.9z"/>
						<path class="figure-icon-circle" d="M61.7,441.3v6.5h-8.1v-6.5H61.7 M50.5,441.3v6.5h-8.1v-6.5H50.5 M61.7,450.4v9.2h-8.1v-9.2H61.7
							 M50.5,450.4v9.2h-8.1v-9.2H50.5 M61.7,462.1v9.2h-8.1v-9.2H61.7 M50.5,462.1v9.2h-8.1v-9.2H50.5 M61.7,473.8v5.8h-8.1v-5.8
							H61.7 M50.5,473.8v5.8h-8.1v-5.8H50.5 M62.7,440.3H52.6v8.5h10.1V440.3L62.7,440.3z M51.5,440.3H41.4v8.5h10.1V440.3
							L51.5,440.3z M62.7,449.4H52.6v11.2h10.1V449.4L62.7,449.4z M51.5,449.4H41.4v11.2h10.1V449.4L51.5,449.4z M62.7,461.1H52.6
							v11.2h10.1V461.1L62.7,461.1z M51.5,461.1H41.4v11.2h10.1V461.1L51.5,461.1z M62.7,472.8H52.6v7.8h10.1V472.8L62.7,472.8z
							 M51.5,472.8H41.4v7.8h10.1V472.8L51.5,472.8z"/>
					</g>
				</g>
			</g>
			<g id="XMLID_3188_">
				<g id="XMLID_3200_">
					<rect id="XMLID_3214_" x="73.1" y="438.9" class="public-color figure-stroke" width="23.6" height="43.1"/>
					<g id="XMLID_3202_">
						<path class="public-color" d="M85.9,480.2v-6.8H95v6.8H85.9z M74.7,480.2v-6.8h9.1v6.8H74.7z M85.9,471.8v-10.2H95v10.2H85.9z
							 M74.7,471.8v-10.2h9.1v10.2H74.7z M85.9,460.1v-10.2H95v10.2H85.9z M74.7,460.1v-10.2h9.1v10.2H74.7z M85.9,448.3v-7.5H95
							v7.5H85.9z M74.7,448.3v-7.5h9.1v7.5H74.7z"/>
						<path class="figure-icon-circle" d="M94.5,441.3v6.5h-8.1v-6.5H94.5 M83.3,441.3v6.5h-8.1v-6.5H83.3 M94.5,450.4v9.2h-8.1v-9.2H94.5
							 M83.3,450.4v9.2h-8.1v-9.2H83.3 M94.5,462.1v9.2h-8.1v-9.2H94.5 M83.3,462.1v9.2h-8.1v-9.2H83.3 M94.5,473.8v5.8h-8.1v-5.8
							H94.5 M83.3,473.8v5.8h-8.1v-5.8H83.3 M95.5,440.3H85.4v8.5h10.1V440.3L95.5,440.3z M84.3,440.3H74.2v8.5h10.1V440.3
							L84.3,440.3z M95.5,449.4H85.4v11.2h10.1V449.4L95.5,449.4z M84.3,449.4H74.2v11.2h10.1V449.4L84.3,449.4z M95.5,461.1H85.4
							v11.2h10.1V461.1L95.5,461.1z M84.3,461.1H74.2v11.2h10.1V461.1L84.3,461.1z M95.5,472.8H85.4v7.8h10.1V472.8L95.5,472.8z
							 M84.3,472.8H74.2v7.8h10.1V472.8L84.3,472.8z"/>
					</g>
				</g>
			</g>
		</g>
	</g>
</g>
<g id="Icons" class="rotate-clockwise">
	<circle id="XMLID_523_" class="st2" cx="193.3" cy="215.9" r="33.5" fill="none"/>
	<g class="rotate-counter-clockwise">
		<circle id="XMLID_30_" class="figure-icon-circle" cx="398.4" cy="421" r="33.5"/>
		<g id="XMLID_1483_">
			<path id="XMLID_1484_" class="public-color" d="M385.2,437h-0.7c-2.5,0-4.6-2.1-4.6-4.6v-17.2c0-2.5,2.1-4.6,4.6-4.6h0.7V437z M409.6,437
				h-22.5v-26.4h3.3v-3.3c0-1.1,0.9-2,2-2h11.9c1.1,0,2,0.9,2,2v3.3h3.3L409.6,437L409.6,437z M406.3,421.8c0-0.4-0.3-0.7-0.7-0.7
				H401v-4.6c0-0.4-0.3-0.7-0.7-0.7h-4c-0.4,0-0.7,0.3-0.7,0.7v4.6H391c-0.4,0-0.7,0.3-0.7,0.7v4c0,0.4,0.3,0.7,0.7,0.7h4.6v4.6
				c0,0.4,0.3,0.7,0.7,0.7h4c0.4,0,0.7-0.3,0.7-0.7v-4.6h4.6c0.4,0,0.7-0.3,0.7-0.7V421.8z M403.7,410.6V408h-10.6v2.6H403.7z
				 M416.9,432.4c0,2.5-2.1,4.6-4.6,4.6h-0.7v-26.4h0.7c2.5,0,4.6,2.1,4.6,4.6V432.4z"/>
		</g>
	</g>
	<g class="rotate-counter-clockwise">
		<circle id="XMLID_411_" class="figure-icon-circle" cx="193.3" cy="626.6" r="33.5"/>
		<g id="XMLID_1472_">
			<path id="XMLID_1473_" class="public-color" d="M199.4,637c-1.6,4.9-6.2,8.3-11.3,8.3c-6.5,0-11.9-5.3-11.9-11.9c0-5,3.1-9.5,7.8-11.2
				l0.4,2.7c-3.4,1.5-5.5,4.8-5.5,8.5c0,5.1,4.1,9.2,9.2,9.2c5.3,0,9.6-4.5,9.2-9.8L199.4,637z M209.8,637.2l-5.3,2.6
				c-0.2,0.1-0.4,0.1-0.6,0.1c-0.5,0-1-0.3-1.2-0.7l-4.9-9.8h-9.7c-0.7,0-1.2-0.5-1.3-1.2l-2-16.1c0-0.2,0.1-0.7,0.1-0.9
				c0.4-1.4,1.7-2.4,3.2-2.4c1.8,0,3.3,1.5,3.3,3.3c0,1.9-1.7,3.5-3.6,3.3l0.8,6h8.7v2.6h-8.4l0.3,2.6h9.4c0.5,0,1,0.3,1.2,0.7
				l4.7,9.4l4.1-2L209.8,637.2z"/>
		</g>
	</g>
	<g class="rotate-counter-clockwise">
		<circle id="XMLID_85_" class="figure-icon-circle" cx="-11.7" cy="421" r="33.5"/>
		<g id="XMLID_1468_">
			<path id="XMLID_1469_" class="public-color" d="M11.6,413.9l-23.1,7.3c-0.1,0-0.1,0-0.2,0s-0.1,0-0.2,0l-13.5-4.3c-1.2,0.9-2,3.2-2.2,6
				c0.8,0.5,1.3,1.3,1.3,2.3c0,0.9-0.5,1.7-1.2,2.2l1.2,8.9c0,0.2,0,0.4-0.2,0.5s-0.3,0.2-0.5,0.2h-4c-0.2,0-0.4-0.1-0.5-0.2
				s-0.2-0.3-0.2-0.5l1.2-8.9c-0.7-0.5-1.2-1.3-1.2-2.2c0-1,0.6-1.8,1.3-2.3c0.1-2.4,0.7-5,2-6.8l-6.9-2.1c-0.3-0.1-0.5-0.4-0.5-0.6
				s0.2-0.5,0.5-0.6l23.1-7.3c0.1,0,0.1,0,0.2,0s0.1,0,0.2,0l23.1,7.3c0.3,0.1,0.5,0.4,0.5,0.6S11.9,413.8,11.6,413.9z M1.5,426.5
				c0.2,2.9-5.9,5.3-13.2,5.3s-13.4-2.4-13.2-5.3l0.4-6.5l11.8,3.7c0.3,0.1,0.7,0.1,1,0.1s0.7,0,1-0.1L1.1,420L1.5,426.5z"/>
		</g>
	</g>
</g>
<g id="school_right">
	<rect x="193.3" y="369.8" class="public-color figure-stroke" width="207.8" height="128.4"/>
	<path class="public-color figure-stroke" d="M399.4,362.3c-4.7-5.4-7.8-6.7-25.5-8.2c-11.3-0.9-179.5-5.7-179.5-5.7h-0.5h-0.5c0,0,0,0-0.1,0v13.9H399.4z"
		/>
	<polygon class="public-color figure-stroke" points="399.4,362.3 193.3,362.3 193.3,364.1 193.3,367 193.3,369.8 401.1,369.8 409.3,369.8 409.3,362.3 	"/>
	<rect x="193.3" y="498.2" class="public-color figure-stroke" width="220.2" height="22.5"/>
	<g id="XMLID_7_">
		<g id="XMLID_22_">
			<g id="XMLID_32_">
				<g id="XMLID_33_">
					<rect id="XMLID_35_" x="287.6" y="383.4" class="public-color figure-stroke" width="23.6" height="43.1"/>
					<g id="XMLID_34_">
						<path class="public-color" d="M300.4,424.7v-6.8h9.1v6.8H300.4z M289.3,424.7v-6.8h9.1v6.8H289.3z M300.4,416.3v-10.2h9.1v10.2H300.4z
							 M289.3,416.3v-10.2h9.1v10.2H289.3z M300.4,404.6v-10.2h9.1v10.2H300.4z M289.3,404.6v-10.2h9.1v10.2H289.3z M300.4,392.9
							v-7.5h9.1v7.5H300.4z M289.3,392.9v-7.5h9.1v7.5H289.3z"/>
						<path class="figure-icon-circle" d="M309,385.8v6.5h-8.1v-6.5H309 M297.8,385.8v6.5h-8.1v-6.5H297.8 M309,394.9v9.2h-8.1v-9.2H309
							 M297.8,394.9v9.2h-8.1v-9.2H297.8 M309,406.6v9.2h-8.1v-9.2H309 M297.8,406.6v9.2h-8.1v-9.2H297.8 M309,418.4v5.8h-8.1v-5.8
							H309 M297.8,418.4v5.8h-8.1v-5.8H297.8 M310,384.8h-10.1v8.5H310V384.8L310,384.8z M298.8,384.8h-10.1v8.5h10.1V384.8
							L298.8,384.8z M310,393.9h-10.1v11.2H310V393.9L310,393.9z M298.8,393.9h-10.1v11.2h10.1V393.9L298.8,393.9z M310,405.6h-10.1
							v11.2H310V405.6L310,405.6z M298.8,405.6h-10.1v11.2h10.1V405.6L298.8,405.6z M310,417.4h-10.1v7.8H310V417.4L310,417.4z
							 M298.8,417.4h-10.1v7.8h10.1V417.4L298.8,417.4z"/>
					</g>
				</g>
			</g>
			<g id="XMLID_27_">
				<g id="XMLID_28_">
					<rect id="XMLID_31_" x="320.4" y="383.4" class="public-color figure-stroke" width="23.6" height="43.1"/>
					<g id="XMLID_29_" class="window-open anim-delay5s">
						<path class="public-color" d="M333.3,424.7v-6.8h9.1v6.8H333.3z M322.1,424.7v-6.8h9.1v6.8H322.1z M333.3,416.3v-10.2h9.1v10.2H333.3z
							 M322.1,416.3v-10.2h9.1v10.2H322.1z M333.3,404.6v-10.2h9.1v10.2H333.3z M322.1,404.6v-10.2h9.1v10.2H322.1z M333.3,392.9
							v-7.5h9.1v7.5H333.3z M322.1,392.9v-7.5h9.1v7.5H322.1z"/>
						<path class="figure-icon-circle" d="M341.9,385.8v6.5h-8.1v-6.5H341.9 M330.7,385.8v6.5h-8.1v-6.5H330.7 M341.9,394.9v9.2h-8.1v-9.2H341.9
							 M330.7,394.9v9.2h-8.1v-9.2H330.7 M341.9,406.6v9.2h-8.1v-9.2H341.9 M330.7,406.6v9.2h-8.1v-9.2H330.7 M341.9,418.4v5.8h-8.1
							v-5.8H341.9 M330.7,418.4v5.8h-8.1v-5.8H330.7 M342.9,384.8h-10.1v8.5h10.1V384.8L342.9,384.8z M331.7,384.8h-10.1v8.5h10.1
							V384.8L331.7,384.8z M342.9,393.9h-10.1v11.2h10.1V393.9L342.9,393.9z M331.7,393.9h-10.1v11.2h10.1V393.9L331.7,393.9z
							 M342.9,405.6h-10.1v11.2h10.1V405.6L342.9,405.6z M331.7,405.6h-10.1v11.2h10.1V405.6L331.7,405.6z M342.9,417.4h-10.1v7.8
							h10.1V417.4L342.9,417.4z M331.7,417.4h-10.1v7.8h10.1V417.4L331.7,417.4z"/>
					</g>
				</g>
			</g>
			<g id="XMLID_23_">
				<g id="XMLID_24_">
					<rect id="XMLID_26_" x="353.3" y="383.4" class="public-color figure-stroke" width="23.6" height="43.1"/>
					<g id="XMLID_25_">
						<path class="public-color" d="M366.1,424.7v-6.8h9.1v6.8H366.1z M354.9,424.7v-6.8h9.1v6.8H354.9z M366.1,416.3v-10.2h9.1v10.2H366.1z
							 M354.9,416.3v-10.2h9.1v10.2H354.9z M366.1,404.6v-10.2h9.1v10.2H366.1z M354.9,404.6v-10.2h9.1v10.2H354.9z M366.1,392.9
							v-7.5h9.1v7.5H366.1z M354.9,392.9v-7.5h9.1v7.5H354.9z"/>
						<path class="figure-icon-circle" d="M374.7,385.8v6.5h-8.1v-6.5H374.7 M363.5,385.8v6.5h-8.1v-6.5H363.5 M374.7,394.9v9.2h-8.1v-9.2H374.7
							 M363.5,394.9v9.2h-8.1v-9.2H363.5 M374.7,406.6v9.2h-8.1v-9.2H374.7 M363.5,406.6v9.2h-8.1v-9.2H363.5 M374.7,418.4v5.8h-8.1
							v-5.8H374.7 M363.5,418.4v5.8h-8.1v-5.8H363.5 M375.7,384.8h-10.1v8.5h10.1V384.8L375.7,384.8z M364.5,384.8h-10.1v8.5h10.1
							V384.8L364.5,384.8z M375.7,393.9h-10.1v11.2h10.1V393.9L375.7,393.9z M364.5,393.9h-10.1v11.2h10.1V393.9L364.5,393.9z
							 M375.7,405.6h-10.1v11.2h10.1V405.6L375.7,405.6z M364.5,405.6h-10.1v11.2h10.1V405.6L364.5,405.6z M375.7,417.4h-10.1v7.8
							h10.1V417.4L375.7,417.4z M364.5,417.4h-10.1v7.8h10.1V417.4L364.5,417.4z"/>
					</g>
				</g>
			</g>
		</g>
		<g id="XMLID_8_">
			<g id="XMLID_18_">
				<g id="XMLID_19_">
					<rect id="XMLID_21_" x="287.6" y="438.9" class="public-color figure-stroke" width="23.6" height="43.1"/>
					<g id="XMLID_20_">
						<path class="public-color" d="M300.4,480.2v-6.8h9.1v6.8H300.4z M289.3,480.2v-6.8h9.1v6.8H289.3z M300.4,471.8v-10.2h9.1v10.2H300.4z
							 M289.3,471.8v-10.2h9.1v10.2H289.3z M300.4,460.1v-10.2h9.1v10.2H300.4z M289.3,460.1v-10.2h9.1v10.2H289.3z M300.4,448.3
							v-7.5h9.1v7.5H300.4z M289.3,448.3v-7.5h9.1v7.5H289.3z"/>
						<path class="figure-icon-circle" d="M309,441.3v6.5h-8.1v-6.5H309 M297.8,441.3v6.5h-8.1v-6.5H297.8 M309,450.4v9.2h-8.1v-9.2H309
							 M297.8,450.4v9.2h-8.1v-9.2H297.8 M309,462.1v9.2h-8.1v-9.2H309 M297.8,462.1v9.2h-8.1v-9.2H297.8 M309,473.8v5.8h-8.1v-5.8
							H309 M297.8,473.8v5.8h-8.1v-5.8H297.8 M310,440.3h-10.1v8.5H310V440.3L310,440.3z M298.8,440.3h-10.1v8.5h10.1V440.3
							L298.8,440.3z M310,449.4h-10.1v11.2H310V449.4L310,449.4z M298.8,449.4h-10.1v11.2h10.1V449.4L298.8,449.4z M310,461.1h-10.1
							v11.2H310V461.1L310,461.1z M298.8,461.1h-10.1v11.2h10.1V461.1L298.8,461.1z M310,472.8h-10.1v7.8H310V472.8L310,472.8z
							 M298.8,472.8h-10.1v7.8h10.1V472.8L298.8,472.8z"/>
					</g>
				</g>
			</g>
			<g id="XMLID_13_">
				<g id="XMLID_14_">
					<rect id="XMLID_17_" x="320.4" y="438.9" class="public-color figure-stroke" width="23.6" height="43.1"/>
					<g id="XMLID_16_">
						<path class="public-color" d="M333.3,480.2v-6.8h9.1v6.8H333.3z M322.1,480.2v-6.8h9.1v6.8H322.1z M333.3,471.8v-10.2h9.1v10.2H333.3z
							 M322.1,471.8v-10.2h9.1v10.2H322.1z M333.3,460.1v-10.2h9.1v10.2H333.3z M322.1,460.1v-10.2h9.1v10.2H322.1z M333.3,448.3
							v-7.5h9.1v7.5H333.3z M322.1,448.3v-7.5h9.1v7.5H322.1z"/>
						<path class="figure-icon-circle" d="M341.9,441.3v6.5h-8.1v-6.5H341.9 M330.7,441.3v6.5h-8.1v-6.5H330.7 M341.9,450.4v9.2h-8.1v-9.2H341.9
							 M330.7,450.4v9.2h-8.1v-9.2H330.7 M341.9,462.1v9.2h-8.1v-9.2H341.9 M330.7,462.1v9.2h-8.1v-9.2H330.7 M341.9,473.8v5.8h-8.1
							v-5.8H341.9 M330.7,473.8v5.8h-8.1v-5.8H330.7 M342.9,440.3h-10.1v8.5h10.1V440.3L342.9,440.3z M331.7,440.3h-10.1v8.5h10.1
							V440.3L331.7,440.3z M342.9,449.4h-10.1v11.2h10.1V449.4L342.9,449.4z M331.7,449.4h-10.1v11.2h10.1V449.4L331.7,449.4z
							 M342.9,461.1h-10.1v11.2h10.1V461.1L342.9,461.1z M331.7,461.1h-10.1v11.2h10.1V461.1L331.7,461.1z M342.9,472.8h-10.1v7.8
							h10.1V472.8L342.9,472.8z M331.7,472.8h-10.1v7.8h10.1V472.8L331.7,472.8z"/>
					</g>
				</g>
			</g>
			<g id="XMLID_9_">
				<g id="XMLID_10_">
					<rect id="XMLID_12_" x="353.3" y="438.9" class="public-color figure-stroke" width="23.6" height="43.1"/>
					<g id="XMLID_11_" class="window-open anim-delay4s">
						<path class="public-color" d="M366.1,480.2v-6.8h9.1v6.8H366.1z M354.9,480.2v-6.8h9.1v6.8H354.9z M366.1,471.8v-10.2h9.1v10.2H366.1z
							 M354.9,471.8v-10.2h9.1v10.2H354.9z M366.1,460.1v-10.2h9.1v10.2H366.1z M354.9,460.1v-10.2h9.1v10.2H354.9z M366.1,448.3
							v-7.5h9.1v7.5H366.1z M354.9,448.3v-7.5h9.1v7.5H354.9z"/>
						<path class="figure-icon-circle" d="M374.7,441.3v6.5h-8.1v-6.5H374.7 M363.5,441.3v6.5h-8.1v-6.5H363.5 M374.7,450.4v9.2h-8.1v-9.2H374.7
							 M363.5,450.4v9.2h-8.1v-9.2H363.5 M374.7,462.1v9.2h-8.1v-9.2H374.7 M363.5,462.1v9.2h-8.1v-9.2H363.5 M374.7,473.8v5.8h-8.1
							v-5.8H374.7 M363.5,473.8v5.8h-8.1v-5.8H363.5 M375.7,440.3h-10.1v8.5h10.1V440.3L375.7,440.3z M364.5,440.3h-10.1v8.5h10.1
							V440.3L364.5,440.3z M375.7,449.4h-10.1v11.2h10.1V449.4L375.7,449.4z M364.5,449.4h-10.1v11.2h10.1V449.4L364.5,449.4z
							 M375.7,461.1h-10.1v11.2h10.1V461.1L375.7,461.1z M364.5,461.1h-10.1v11.2h10.1V461.1L364.5,461.1z M375.7,472.8h-10.1v7.8
							h10.1V472.8L375.7,472.8z M364.5,472.8h-10.1v7.8h10.1V472.8L364.5,472.8z"/>
					</g>
				</g>
			</g>
		</g>
	</g>
</g>
<g id="school_entrance">
	<rect id="XMLID_3376_" x="122.3" y="332.7" class="public-color figure-stroke" width="142.1" height="165.5"/>
	<path id="XMLID_3375_" class="public-color figure-stroke" d="M125.7,317.2h9.4c12.9-7.7,34.1-12.8,58.2-12.8s45.4,5,58.2,12.8h9.4v19H125.7V317.2z"/>
	<g id="XMLID_3368_">
		<g id="XMLID_3372_">
			<rect id="XMLID_3373_" x="119.3" y="332.6" class="public-color figure-stroke" width="148.2" height="2.9"/>
		</g>
		<g id="XMLID_3369_">
			<path id="XMLID_3371_" class="public-color figure-stroke" d="M128,319.5v14.4h130.8v-14.4H251l-0.5-0.3c-7.2-4.3-16-7.2-24.2-9
				c-10.7-2.4-21.9-3.4-32.8-3.4c-11,0-22.1,1-32.8,3.4c-8.2,1.8-17,4.7-24.2,9l-0.5,0.3H128z"/>
		</g>
	</g>
	<g id="XMLID_3359_">
		<rect id="XMLID_3366_" x="143" y="454.8" class="public-color figure-stroke" width="100.8" height="43.4"/>
		<g id="XMLID_3361_">
			<rect id="XMLID_3365_" x="146.6" y="457.9" class="public-color figure-stroke" width="27.7" height="40.3"/>
			<rect id="XMLID_3364_" x="180" y="457.9" class="public-color figure-stroke" width="27.7" height="40.3"/>
			<rect id="XMLID_3362_" x="212.4" y="457.9" class="public-color figure-stroke" width="27.7" height="40.3"/>
		</g>
	</g>
	<rect id="XMLID_3358_" x="143" y="355.5" class="public-color figure-stroke" width="31.3" height="85.4"/>
	<rect id="XMLID_3357_" x="144.5" y="357.1" class="public-color figure-stroke" width="28.2" height="82.1"/>
	<rect id="XMLID_3355_" x="177.7" y="355.5" class="public-color figure-stroke" width="31.3" height="85.4"/>
	<rect id="XMLID_3354_" x="179.3" y="357.1" class="public-color figure-stroke" width="28.2" height="82.1"/>
	<rect id="XMLID_3352_" x="212.5" y="355.5" class="public-color figure-stroke" width="31.3" height="85.4"/>
	<rect id="XMLID_3351_" x="214" y="357.1" class="public-color figure-stroke" width="28.2" height="82.1"/>
	<rect id="XMLID_2994_" x="122.3" y="498.2" class="public-color figure-stroke" width="142.1" height="5.6"/>
	<rect id="XMLID_2993_" x="122.3" y="503.8" class="public-color figure-stroke" width="142.1" height="5.6"/>
	<rect id="XMLID_2992_" x="122.3" y="509.4" class="public-color figure-stroke" width="142.1" height="5.6"/>
	<rect id="XMLID_2991_" x="122.3" y="515.1" class="public-color figure-stroke" width="142.1" height="5.6"/>
	<rect id="XMLID_1884_" x="117" y="330.4" class="public-color figure-stroke" width="152.7" height="7.5"/>
</g>
</svg>
