<?xml version="1.0" encoding="utf-8"?>
<!-- Generator: Adobe Illustrator 19.0.0, SVG Export Plug-In . SVG Version: 6.00 Build 0)  -->
<?xml-stylesheet href="../css/svg-style.css" type="text/css"?>
<svg version="1.1" id="Layer_1" xmlns="http://www.w3.org/2000/svg" xmlns:xlink="http://www.w3.org/1999/xlink" x="0px" y="0px"
	 viewBox="-50.8 663.6 490.6 484.5" style="enable-background:new -50.8 663.6 490.6 484.5;" xml:space="preserve">
<circle id="Circle_Dahsed" class="dashed-cricle rotate-clockwise" cx="195" cy="905.8" r="205.1"/>
<g id="Car">
	<polygon id="XMLID_1077_" class="transport-color figure-stroke" points="1.8,948.9 88.6,954.5 243.4,958.7 276.2,960.4 324.1,962.9 372.5,958 344.1,904.8
		272.6,912.2 248.3,948.7 111.8,935.9 43.9,893.5 -2.6,918.8 	"/>
	<path id="XMLID_1076_" class="transport-color figure-stroke" d="M-43.7,875.9l0.8,7.6c0,0,4.9-2.5,9.1-2.7C-29.5,880.6-41.5,875.3-43.7,875.9z"/>
	<g id="XMLID_1156_">
		<path id="XMLID_1075_" class="transport-color figure-stroke" d="M121.4,882.4h-0.2c-5.1-2.4-11.1-4.2-17.6-5.5C110.1,878.2,116.2,880,121.4,882.4z"/>
		<path id="XMLID_1074_" class="transport-color figure-stroke" d="M86.8,849.2c13.7-4.8,104.2-4.4,119.2,1c13.5,9.6,18.4,16.7,38.4,33.2l-99.5-0.9l92.9,0.5
			c0,0-30.5-29.5-36-31.1c-2.2-0.1-56.5-2.5-71.4-1.1c-15,1.4-40.1,23.8-40.1,23.8l0.4,0.1c-21.3-2.5-45-1.6-60.2-1.1
			C42,868.5,75.5,853.2,86.8,849.2z"/>
	</g>
	<path id="XMLID_1073_" class="transport-color figure-stroke" d="M123.3,882.5l116.3,0.6c0,0-30.5-29.5-36-31.1c-2.2-0.1-56.5-2.5-71.4-1.1
		c-15,1.4-40.1,23.8-40.1,23.8l0.6,0.2C104.1,876.3,114.9,878.6,123.3,882.5z"/>
	<path id="XMLID_1072_" class="transport-color figure-stroke" d="M126.7,943l116.3,0.6c0,0-30.5-29.5-36-31.1c-2.2-0.1-56.5-2.5-71.4-1.1
		c-15,1.4-40.1,23.8-40.1,23.8l0.6,0.2C107.5,936.8,118.3,939.2,126.7,943z"/>
	<path id="XMLID_1070_" class="transport-color figure-stroke" d="M401.5,906c-7.6-7.9-30.1-10.5-51.7-13.3s-86.5-4.6-94.3-4.4c-7.8,0.1-11.1-5.1-11.1-5.1
		l-124-1.1c-25.8-12-75.3-9.1-96.4-8.4c-2,0.1-2.1,2.7-2.1,2.7c-55.6,1.9-64.3,7.9-64.3,7.9l-4.4,17.1c0,0,1.6,9,2.8,13.3
		c1.4,5,10.5,11.9,10.5,11.9l-7.2,0.3l3.9,8.3l38.7,13.6c-0.1-1.3-0.2-2.7-0.2-4c0-22.8,19.7-41.3,44.1-41.3
		c24.3,0,44.1,18.5,44.1,41.3c0,3.3-0.4,6.6-1.2,9.7l197.3,3.1c-0.6-4.8,0-10.4,0-16.3c0-18.5,16.4-33.5,36.5-33.5
		c20.2,0,36.5,15,36.5,33.5c0,6.4,0.4,12.4-0.7,17.4c2.1,0,25.1-0.1,26.1-2.5c1.1-2.5,5.3-8,5.3-8l1.7-1.9c3-6.1-1.4-0.3-1.1-6.4
		c0.3-6.1,8.3-6.9,8.3-6.9s0.3-1.1,0.3-5.3s2.6-4.1,2.6-4.1S402,915.3,401.5,906z"/>
	<path id="XMLID_1069_" class="transport-color figure-stroke" d="M401.5,923.2c-12.4-5.9-36.3-14.8-63.2-15.2c-88.8-1.4-230.4-3.9-230.4-3.9
		c-21.8-0.8-40.4-2.6-40.4-2.6c-11.1-1.9-86.7-0.7-114.2-0.2l4.2-16.8c0,0,8.7-6,64.3-7.9c0,0,0.2-2.7,2.1-2.7
		c21.1-0.7,70.6-3.6,96.4,8.4l124,1.1c0,0,3.3,5.3,11.1,5.1c7.7-0.1,72.7,1.7,94.3,4.4c21.6,2.8,44.1,5.4,51.7,13.3
		C401.8,914,401.6,921.1,401.5,923.2z"/>
	<path id="XMLID_1062_" class="transport-color figure-stroke" d="M397.1,933.3c0,0,0.8-7.9,2.1-9.1c1.3-1.2,2.8-1.4,3.3,0.5s-1.3,7.8-1.3,7.8L397.1,933.3z"/>
	<path id="XMLID_1061_" class="transport-color figure-stroke" d="M146.6,882.1h10.2l-3.1-10.1c-0.6-2-3.2-2.9-5.7-2.1c-2.6,0.8-4.2,3-3.6,5L146.6,882.1z"/>
	<path id="XMLID_1060_" class="transport-color figure-stroke" d="M-29.3,884.3c0,0,39.9-8.2,44.4-3.1C-2.3,882.5-29.3,884.3-29.3,884.3z"/>
	<g>
		<path id="XMLID_1057_" class="transport-color figure-stroke" d="M84.3,906.7c0,0,2.7-0.2,4.5,0c3.4,1.8,8.6,15.1,8,24.3c-0.9,0-1.4,0.1-3.5,0
			C93.4,923,88.7,908.8,84.3,906.7z"/>
		<path id="XMLID_1056_" class="transport-color figure-stroke" d="M89.8,906.7c0,0,2.7-0.2,4.5,0c3.4,1.8,8.6,15.1,8,24.3c-0.9,0-1.4,0.1-3.5,0
			C98.9,923,94.1,908.8,89.8,906.7z"/>
		<path id="XMLID_1055_" class="transport-color figure-stroke" d="M95.3,906.7c0,0,2.7-0.2,4.5,0c3.4,1.8,8.6,15.1,8,24.3c-0.9,0-1.4,0.1-3.5,0
			C104.4,923,99.6,908.8,95.3,906.7z"/>
	</g>
	<circle id="XMLID_1054_" class="transport-color figure-stroke" cx="133.5" cy="896.6" r="1.6"/>
	<path id="XMLID_1053_" class="transport-color figure-stroke" d="M145.6,889.4c-0.9-0.3-9.3-0.3-12.6-0.3c-0.5-0.7-1.3-1.1-2.2-1.1c-1.5,0-2.7,1.2-2.7,2.7
		s1.2,2.7,2.7,2.7s2.7-1.2,2.7-2.7c0-0.1,0-0.2,0-0.3c2.9,0.1,8.8,0.4,10.1,0.6c1.7,0.2,1.4,1.1,2.4,1.4c1.4,0.5,1.7,0.1,2.1-0.5
		C148.6,891.3,147.7,890,145.6,889.4z"/>
	<path id="XMLID_1052_" class="transport-color figure-stroke" d="M280,949.9L280,949.9l-187.8-7.1c-0.7,0-1.2-0.6-1.2-1.3s0.6-1.2,1.3-1.2l187.7,7.1
		c0.7,0,1.2,0.6,1.2,1.3S280.7,949.9,280,949.9z"/>
	<path id="XMLID_1050_" class="transport-color figure-stroke" d="M84.8,873.5l-14-0.7c0.2-0.2,12,0.3,14-1.2c7.9-5.7,28.2-20.2,38.5-22
		c12.8-2.2,75.1,0.2,77.8,0.2l0,0c-0.6,0-64.7-1.6-77.3,0.6C111.3,852.7,85.1,873.3,84.8,873.5z"/>
	<path id="XMLID_1049_" class="transport-color figure-stroke" d="M241.5,883.1h1.8c-18.2-15.1-23.5-22.2-35.6-31.1c-0.8,0.1-1.3,0.3-1.3,0.3
		s28.7,25.9,31.9,28.9C239.2,882,240.3,882.6,241.5,883.1z"/>
	<path id="XMLID_1023_" class="transport-color figure-stroke" d="M390.7,942.8h-10.4c0.3,0.9,0.5,1.8,0.5,2.8v10.5c0,0.2,0,0.3,0,0.5h9.9c2.4,0,4.4-2,4.4-4.4
		v-5.1C395,944.8,393.1,942.8,390.7,942.8z"/>
	<path id="XMLID_1019_" class="transport-color figure-stroke" d="M229.8,883c-0.1-0.6-0.3-1.1-0.6-1.5c0.9-0.9,1.1-2.1,0.3-3.8c-3.5-6.8-12.4-4.6-13-4.3
		s-1.8,1.9-0.2,4c0,0,4.7,5.5,8.6,5.4c0.3,0,0.6,0,0.9-0.1c0,0.4,0.1,0.8,0.2,1.2c0.6,2.1,1.9,3.6,2.9,3.3
		C230,887,230.4,885.1,229.8,883z"/>
	<path id="XMLID_1018_" class="transport-color figure-stroke" d="M229.2,881.5c0.7-0.6,0.9-1.4,0.8-2.4c-1.5,0.5-3.1,0.8-4.7,0.8c-3.6,0-6.9-1.3-9.5-3.4
		c0.1,0.3,0.3,0.7,0.5,1c0,0,4.7,5.5,8.6,5.4c0.3,0,0.6,0,0.9-0.1c0,0.4,0.1,0.8,0.2,1.2c0.6,2.1,1.9,3.6,2.9,3.3
		c1.1-0.3,1.5-2.2,0.9-4.3C229.7,882.4,229.5,881.9,229.2,881.5z"/>
	<g id="wheel-rear" class="wheel-rotation">
		<circle id="XMLID_1065_" class="transport-color figure-stroke" cx="47.9" cy="942.9" r="31.8"/>
		<circle id="XMLID_1064_" class="transport-color figure-stroke" cx="47.9" cy="943" r="28.5"/>
		<circle id="XMLID_1063_" class="transport-color figure-stroke" cx="47.9" cy="942.9" r="20"/>
		<g id="XMLID_1111_">
			<g id="XMLID_1127_">
				<path id="XMLID_1047_" class="transport-color figure-stroke" d="M43.9,963.9c0-0.8,0.7-1.5,1.5-1.5h4.8c0.8,0,1.5,0.7,1.5,1.5l0,0c0,0.8-0.7,1.5-1.5,1.5
					h-4.8C44.6,965.4,43.9,964.7,43.9,963.9L43.9,963.9z"/>
				<path id="XMLID_1046_" class="transport-color figure-stroke" d="M43.9,921.8c0-0.8,0.7-1.5,1.5-1.5h4.8c0.8,0,1.5,0.7,1.5,1.5l0,0c0,0.8-0.7,1.5-1.5,1.5
					h-4.8C44.6,923.3,43.9,922.7,43.9,921.8L43.9,921.8z"/>
			</g>
			<g id="XMLID_1124_">
				<path id="XMLID_1045_" class="transport-color figure-stroke" d="M55,963c-0.4-0.7-0.2-1.6,0.6-2.1l4.2-2.4c0.7-0.4,1.6-0.2,2.1,0.5l0,0
					c0.4,0.7,0.2,1.6-0.5,2.1l-4.2,2.4C56.3,964,55.4,963.7,55,963L55,963z"/>
				<path id="XMLID_1044_" class="transport-color figure-stroke" d="M34,926.6c-0.4-0.7-0.2-1.6,0.6-2.1l4.2-2.4c0.7-0.4,1.6-0.2,2.1,0.5l0,0
					c0.4,0.7,0.2,1.6-0.5,2.1l-4.2,2.4C35.3,927.6,34.4,927.3,34,926.6L34,926.6z"/>
			</g>
			<g id="XMLID_1121_">
				<path id="XMLID_1043_" class="transport-color figure-stroke" d="M64.1,956.8c-0.7-0.4-1-1.3-0.6-2.1l2.4-4.2c0.4-0.7,1.3-1,2.1-0.5l0,0
					c0.7,0.4,1,1.3,0.6,2.1l-2.4,4.2C65.7,956.9,64.8,957.2,64.1,956.8L64.1,956.8z"/>
				<path id="XMLID_1042_" class="transport-color figure-stroke" d="M27.7,935.7c-0.7-0.4-1-1.3-0.6-2l2.4-4.2c0.4-0.7,1.3-1,2.1-0.6l0,0
					c0.7,0.4,1,1.3,0.5,2.1l-2.4,4.2C29.3,935.9,28.4,936.2,27.7,935.7L27.7,935.7z"/>
			</g>
			<g id="XMLID_1118_">
				<path id="XMLID_1041_" class="transport-color figure-stroke" d="M68.9,946.8c-0.8,0-1.5-0.7-1.5-1.5v-4.8c0-0.8,0.7-1.5,1.5-1.5l0,0
					c0.8,0,1.5,0.7,1.5,1.5v4.8C70.4,946.1,69.7,946.8,68.9,946.8L68.9,946.8z"/>
				<path id="XMLID_1040_" class="transport-color figure-stroke" d="M26.8,946.8c-0.8,0-1.5-0.7-1.5-1.5v-4.8c0-0.8,0.7-1.5,1.5-1.5l0,0
					c0.8,0,1.5,0.7,1.5,1.5v4.8C28.3,946.1,27.7,946.8,26.8,946.8L26.8,946.8z"/>
			</g>
			<g id="XMLID_1115_">
				<path id="XMLID_1039_" class="transport-color figure-stroke" d="M68,935.7c-0.7,0.4-1.6,0.2-2.1-0.5l-2.4-4.2c-0.4-0.7-0.2-1.6,0.5-2.1l0,0
					c0.7-0.4,1.6-0.2,2.1,0.5l2.4,4.2C69,934.4,68.7,935.3,68,935.7L68,935.7z"/>
				<path id="XMLID_1038_" class="transport-color figure-stroke" d="M31.6,956.8c-0.7,0.4-1.6,0.2-2.1-0.5l-2.4-4.2c-0.4-0.7-0.2-1.6,0.5-2.1l0,0
					c0.7-0.4,1.6-0.2,2.1,0.5l2.4,4.2C32.6,955.4,32.3,956.3,31.6,956.8L31.6,956.8z"/>
			</g>
			<g id="XMLID_1112_">
				<path id="XMLID_1037_" class="transport-color figure-stroke" d="M61.7,926.6c-0.4,0.7-1.3,1-2.1,0.6l-4.2-2.4c-0.7-0.4-1-1.3-0.5-2.1l0,0
					c0.4-0.7,1.3-1,2.1-0.5l4.2,2.4C61.9,925,62.2,925.9,61.7,926.6L61.7,926.6z"/>
				<path id="XMLID_1036_" class="transport-color figure-stroke" d="M40.7,963c-0.4,0.7-1.3,1-2.1,0.6l-4.2-2.4c-0.7-0.4-1-1.3-0.6-2l0,0
					c0.4-0.7,1.3-1,2.1-0.6l4.2,2.4C40.9,961.4,41.1,962.3,40.7,963L40.7,963z"/>
			</g>
		</g>
		<circle id="XMLID_1014_" class="transport-color figure-stroke" cx="47.9" cy="943" r="15.1"/>
		<path id="XMLID_1013_" class="transport-color figure-stroke" d="M54.3,942.9c0,3.8-3.1,6.9-6.9,6.9c-3.8,0-6.9-3.1-6.9-6.9c0-3.8,3.1-6.9,6.9-6.9
			C51.2,935.9,54.3,939,54.3,942.9z"/>
	</g>
	<g id="wheel-front" class="wheel-rotation">
		<circle id="XMLID_1068_" class="transport-color figure-stroke" cx="324.1" cy="942.9" r="31.8"/>
		<circle id="XMLID_1067_" class="transport-color figure-stroke" cx="324.1" cy="943" r="28.5"/>
		<circle id="XMLID_1066_" class="transport-color figure-stroke" cx="324.1" cy="942.9" r="20"/>
		<g id="XMLID_1092_">
			<g id="XMLID_1108_">
				<path id="XMLID_1035_" class="transport-color figure-stroke" d="M320.2,963.9c0-0.8,0.7-1.5,1.5-1.5h4.8c0.8,0,1.5,0.7,1.5,1.5l0,0c0,0.8-0.7,1.5-1.5,1.5
					h-4.8C320.9,965.4,320.2,964.7,320.2,963.9L320.2,963.9z"/>
				<path id="XMLID_1034_" class="transport-color figure-stroke" d="M320.2,921.8c0-0.8,0.7-1.5,1.5-1.5h4.8c0.8,0,1.5,0.7,1.5,1.5l0,0c0,0.8-0.7,1.5-1.5,1.5
					h-4.8C320.9,923.3,320.2,922.7,320.2,921.8L320.2,921.8z"/>
			</g>
			<g id="XMLID_1105_">
				<path id="XMLID_1033_" class="transport-color figure-stroke" d="M331.2,963c-0.4-0.7-0.2-1.6,0.6-2.1l4.2-2.4c0.7-0.4,1.6-0.2,2.1,0.6l0,0
					c0.4,0.7,0.2,1.6-0.5,2.1l-4.2,2.4C332.6,964,331.7,963.7,331.2,963L331.2,963z"/>
				<path id="XMLID_1032_" class="transport-color figure-stroke" d="M310.2,926.6c-0.4-0.7-0.2-1.6,0.6-2.1l4.2-2.4c0.7-0.4,1.6-0.2,2,0.5l0,0
					c0.4,0.7,0.2,1.6-0.5,2.1l-4.2,2.4C311.6,927.6,310.6,927.3,310.2,926.6L310.2,926.6z"/>
			</g>
			<g id="XMLID_1102_">
				<path id="XMLID_1031_" class="transport-color figure-stroke" d="M340.4,956.8c-0.7-0.4-1-1.3-0.6-2.1l2.4-4.2c0.4-0.7,1.3-1,2.1-0.6l0,0
					c0.7,0.4,1,1.3,0.6,2.1l-2.4,4.2C342,956.9,341.1,957.2,340.4,956.8L340.4,956.8z"/>
				<path id="XMLID_1030_" class="transport-color figure-stroke" d="M304,935.7c-0.7-0.4-1-1.3-0.5-2.1l2.4-4.2c0.4-0.7,1.3-1,2.1-0.6l0,0
					c0.7,0.4,1,1.3,0.5,2.1l-2.4,4.2C305.6,935.9,304.7,936.2,304,935.7L304,935.7z"/>
			</g>
			<g id="XMLID_1099_">
				<path id="XMLID_1029_" class="transport-color figure-stroke" d="M345.1,946.8c-0.8,0-1.5-0.7-1.5-1.5v-4.8c0-0.8,0.7-1.5,1.5-1.5l0,0
					c0.8,0,1.5,0.7,1.5,1.5v4.8C346.6,946.1,346,946.8,345.1,946.8L345.1,946.8z"/>
				<path id="XMLID_1028_" class="transport-color figure-stroke" d="M303.1,946.8c-0.8,0-1.5-0.7-1.5-1.5v-4.8c0-0.8,0.7-1.5,1.5-1.5l0,0
					c0.8,0,1.5,0.7,1.5,1.5v4.8C304.6,946.1,303.9,946.8,303.1,946.8L303.1,946.8z"/>
			</g>
			<g id="XMLID_1096_">
				<path id="XMLID_1027_" class="transport-color figure-stroke" d="M344.3,935.7c-0.7,0.4-1.6,0.2-2.1-0.5l-2.4-4.2c-0.4-0.7-0.2-1.6,0.5-2.1l0,0
					c0.7-0.4,1.6-0.2,2.1,0.5l2.4,4.2C345.2,934.4,345,935.3,344.3,935.7L344.3,935.7z"/>
				<path id="XMLID_1026_" class="transport-color figure-stroke" d="M307.9,956.8c-0.7,0.4-1.6,0.2-2.1-0.5l-2.4-4.2c-0.4-0.7-0.2-1.6,0.5-2.1l0,0
					c0.7-0.4,1.6-0.2,2.1,0.5l2.4,4.2C308.8,955.4,308.6,956.3,307.9,956.8L307.9,956.8z"/>
			</g>
			<g id="XMLID_1093_">
				<path id="XMLID_1025_" class="transport-color figure-stroke" d="M338,926.6c-0.4,0.7-1.3,1-2.1,0.5l-4.2-2.4c-0.7-0.4-1-1.3-0.5-2.1l0,0
					c0.4-0.7,1.3-1,2.1-0.6l4.2,2.4C338.2,925,338.4,925.9,338,926.6L338,926.6z"/>
				<path id="XMLID_1024_" class="transport-color figure-stroke" d="M317,963c-0.4,0.7-1.3,1-2,0.6l-4.2-2.4c-0.7-0.4-1-1.3-0.5-2l0,0c0.4-0.7,1.3-1,2.1-0.6
					l4.2,2.4C317.2,961.4,317.4,962.3,317,963L317,963z"/>
			</g>
		</g>
		<circle id="XMLID_986_" class="transport-color figure-stroke" cx="324.1" cy="943" r="15.1"/>
		<path id="XMLID_985_" class="transport-color figure-stroke" d="M330.6,942.9c0,3.8-3.1,6.9-6.9,6.9s-6.9-3.1-6.9-6.9c0-3.8,3.1-6.9,6.9-6.9
			C327.5,935.9,330.6,939,330.6,942.9z"/>
	</g>
</g>
<g id="Icons" class="rotate-clockwise">
	<g class="rotate-counter-clockwise">
		<circle id="XMLID_530_" class="figure-icon-circle" cx="195" cy="700.7" r="33.5"/>
		<g id="XMLID_1464_">
			<path id="XMLID_1465_" class="transport-color" d="M207.4,698.9l-9.5,20.1c-0.5,1.1-1.7,1.8-3,1.8s-2.4-0.7-3-1.8l-9.5-20.1
				c-0.7-1.4-0.9-3.1-0.9-4.7c0-7.4,6-13.3,13.3-13.3s13.3,6,13.3,13.3C208.3,695.8,208.1,697.5,207.4,698.9z M195,687.6
				c-3.7,0-6.7,3-6.7,6.7s3,6.7,6.7,6.7s6.7-3,6.7-6.7C201.6,690.6,198.6,687.6,195,687.6z"/>
		</g>
	</g>
	<g class="rotate-counter-clockwise">
		<circle id="XMLID_1868_" class="figure-icon-circle" cx="-10.1" cy="906.5" r="33.5"/>
		<g id="XMLID_1446_">
			<path id="XMLID_1447_" class="transport-color" d="M-23.6,922.3c0,0.4-0.3,0.7-0.7,0.7h-4.1c-0.4,0-0.7-0.3-0.7-0.7v-4.1
				c0-0.4,0.3-0.7,0.7-0.7h4.1c0.4,0,0.7,0.3,0.7,0.7V922.3z M-15.5,922.3c0,0.4-0.3,0.7-0.7,0.7h-4.1c-0.4,0-0.7-0.3-0.7-0.7v-6.8
				c0-0.4,0.3-0.7,0.7-0.7h4.1c0.4,0,0.7,0.3,0.7,0.7V922.3z M-7.3,922.3c0,0.4-0.3,0.7-0.7,0.7h-4.1c-0.4,0-0.7-0.3-0.7-0.7v-12.2
				c0-0.4,0.3-0.7,0.7-0.7H-8c0.4,0,0.7,0.3,0.7,0.7V922.3z M0.8,922.3c0,0.4-0.3,0.7-0.7,0.7H-4c-0.4,0-0.7-0.3-0.7-0.7v-20.4
				c0-0.4,0.3-0.7,0.7-0.7h4.1c0.4,0,0.7,0.3,0.7,0.7V922.3z M9,922.3c0,0.4-0.3,0.7-0.7,0.7H4.2c-0.4,0-0.7-0.3-0.7-0.7v-31.2
				c0-0.4,0.3-0.7,0.7-0.7h4.1c0.4,0,0.7,0.3,0.7,0.7V922.3z"/>
		</g>
	</g>
	<g class="rotate-counter-clockwise">
		<circle id="XMLID_1861_" class="figure-icon-circle" cx="194.9" cy="1110.8" r="33.5"/>
		<g id="XMLID_1432_">
			<path id="XMLID_1436_" class="transport-color" d="M205,1118.8l-11.4,11.5v-15.1l-6.3,6.3l-2.3-2.3l7.9-7.9l-7.9-7.9l2.3-2.3l6.3,6.3v-15.1
				l11.4,11.5l-7.6,7.6L205,1118.8z M200.4,1103.7l-3.7-3.6v7.3L200.4,1103.7z M200.4,1118.8l-3.7-3.6v7.3L200.4,1118.8z"/>
		</g>
	</g>
	<g class="rotate-counter-clockwise">
		<circle id="XMLID_1856_" class="figure-icon-circle" cx="400.1" cy="905.8" r="33.5"/>
		<g id="XMLID_1367_">
			<path id="XMLID_1372_" class="transport-color" d="M415.2,901c-0.7-0.9-1.3-1.8-1.6-3l0.6-7.2c0-0.1,0-0.2-0.1-0.3l-1-1.4
				c-0.1-0.2-0.4-0.2-0.6-0.1c-0.2,0.1-0.3,0.3-0.2,0.5l0.8,1.8l-0.3,1.7h-2c-0.1,0-0.2,0.1-0.3,0.1c-0.1,0.1-0.1,0.2-0.1,0.3l0.1,2
				c0,0.2,0.1,0.3,0.3,0.4l1.7,0.5c0.1,2.5,1,3.8,1.9,5.1c1.2,1.7,2.6,3.6,2.6,8.9c0,2.4-0.5,4.4-1.3,5.8c-0.7,1-1.6,1.6-2.5,1.6
				c-1.1,0-2.3-0.9-2.3-2.7c0-3.6-2.6-4.7-4-5v-17.1c0-2.4-2-4.4-4.4-4.4h-13.6c-2.4,0-4.4,2-4.4,4.4v21.7c0,0.4,0.1,0.8,0.2,1.2
				h-1.1v3.7h24.1v-3.7h-1.1c0.1-0.4,0.2-0.8,0.2-1.2v-3.7c1.2,0.3,3.2,1.2,3.2,4.1c0,2,1.3,3.5,3.1,3.5c1.2,0,2.4-0.7,3.2-2
				c1-1.5,1.5-3.6,1.5-6.2C418,904.8,416.5,902.7,415.2,901z M413,895.5l-1.5-0.5l-0.1-1.3h1.8L413,895.5z M404.2,901.3
				c0,2.4-2,4.4-4.4,4.4h-7c0.1-0.9,0.3-2,0.8-3c0.2-0.1,0.4-0.1,0.6-0.2c0.3-0.1,0.6-0.3,0.9-0.4c0.3-0.2,0.7-0.3,1-0.5
				s0.6-0.4,1-0.6c0.3-0.2,0.6-0.5,0.9-0.7c0.3-0.3,0.5-0.5,0.8-0.8c0.5-0.5,0.9-1.1,1.2-1.8c0.2-0.3,0.3-0.6,0.5-0.9
				c0.1-0.3,0.3-0.6,0.4-1c0.1-0.3,0.2-0.6,0.3-0.9c0.1-0.3,0.2-0.6,0.3-0.8c0.1-0.2,0.2-0.5,0.2-0.6c0-0.2,0.1-0.2,0.1-0.2
				s-0.1,0-0.2-0.1s-0.3-0.2-0.6-0.2c-0.3-0.1-0.6-0.2-0.9-0.2c-0.4,0-0.7,0-1.2,0c-0.4,0-0.8,0.1-1.3,0.2c-0.5,0.1-0.9,0.3-1.3,0.5
				s-0.8,0.5-1.2,0.8c-0.4,0.3-0.7,0.7-1.1,1c-0.3,0.4-0.6,0.8-0.8,1.2c-0.2,0.4-0.4,0.8-0.6,1.3c-0.3,0.9-0.4,1.7-0.5,2.5
				c0,0.4,0,0.8,0.1,1.1c0,0.3,0.1,0.6,0.2,0.9c0,0.1,0.1,0.2,0.1,0.3c0.1-0.1,0.1-0.3,0.2-0.4c0.4-0.8,1-1.8,1.6-2.7
				c0.3-0.5,0.7-0.9,1-1.3c0.2-0.2,0.4-0.4,0.5-0.6c0.2-0.2,0.4-0.3,0.5-0.5c0.2-0.1,0.3-0.2,0.5-0.4c0.1-0.1,0.3-0.2,0.4-0.2
				c0.2-0.1,0.3-0.2,0.3-0.2s-0.1,0.1-0.3,0.2c-0.1,0.1-0.2,0.1-0.4,0.3c-0.1,0.1-0.3,0.2-0.4,0.4s-0.3,0.3-0.5,0.5
				s-0.3,0.4-0.5,0.6c-0.3,0.4-0.6,0.9-0.9,1.4c-0.6,1-1,2-1.4,2.8c0,0.1-0.1,0.2-0.1,0.3c-0.4,1-0.6,2-0.7,3h-0.7
				c-2.4,0-4.4-2-4.4-4.4v-6.3c0-2.4,2-4.4,4.4-4.4h8.3c2.4,0,4.4,2,4.4,4.4L404.2,901.3L404.2,901.3z"/>
			<path id="XMLID_1368_" class="transport-color" d="M409,920h-26.4c-0.2,0-0.4,0.2-0.4,0.4v2c0,0.2,0.2,0.4,0.4,0.4H409c0.2,0,0.4-0.2,0.4-0.4
				v-2C409.4,920.2,409.2,920,409,920z M408.5,922.1H383v-1.2h25.5V922.1z"/>
		</g>
	</g>
</g>
<g id="Car_Front">
	<path class="transport-color figure-stroke" d="M401.5,923.2c-12.4-5.9-36.3-14.8-63.2-15.2c-4.5-0.1-9.2-0.1-13.9-0.2v0.1c19.3,0.9,34.6,15.5,34.6,33.5
		c0,6.4,0.4,12.4-0.7,17.4c2,0,22.5-0.1,25.7-2.1h-3.2c0-0.2,0-0.3,0-0.5v-10.5c0-1-0.2-1.9-0.5-2.8h10.4c0.1,0,0.2,0,0.3,0
		c-0.4-0.3-0.8-1.1-0.7-2.9c0.2-4.4,4.5-6.1,6.8-6.6c0-0.2,0.8-7.9,2.1-9.1c0.8-0.7,1.6-1.1,2.3-0.8c0.1-1.3,0.4-8.9,0-17.4
		c-7.6-7.9-30.1-10.5-51.7-13.3c-5.9-0.8-15.1-1.5-25.4-2.1v17.1"/>
	<path id="XMLID_1_" class="transport-color figure-stroke" d="M390.7,942.8h-10.4c0.3,0.9,0.5,1.8,0.5,2.8v10.5c0,0.2,0,0.3,0,0.5h9.9c2.4,0,4.4-2,4.4-4.4
		v-5.1C395,944.8,393.1,942.8,390.7,942.8z"/>
	<polygon class="transport-color" points="313.2,890.8 330.3,891.5 332.1,907.3 321.1,907.1 	"/>
	<path id="XMLID_2_" class="transport-color figure-stroke" d="M397.1,933.3c0,0,0.8-7.9,2.1-9.1c1.3-1.2,2.8-1.4,3.3,0.5s-1.3,7.8-1.3,7.8L397.1,933.3z"/>
</g>
</svg>
