<?xml version="1.0" encoding="utf-8"?>
<!-- Generator: Adobe Illustrator 19.0.0, SVG Export Plug-In . SVG Version: 6.00 Build 0)  -->
<?xml-stylesheet href="../css/svg-style.css" type="text/css"?>
<svg xmlns="http://www.w3.org/2000/svg" xmlns:xlink="http://www.w3.org/1999/xlink" version="1.1" id="Layer_1" x="0px" y="0px" viewBox="-52 662.9 490.6 484.5" style="enable-background:new -52 662.9 490.6 484.5;" xml:space="preserve">
<circle id="Circle_Dashed" class="dashed-cricle rotate-clockwise" cx="194.3" cy="905.8" r="205.1"/>
<g>
	<polygon id="XMLID_1442_" class="building-color figure-stroke" points="31.7,841.3 119.6,841.3 119.6,1045 31.7,1045  "/>
	<polygon id="XMLID_1441_" class="building-color figure-stroke" points="41.8,914.4 119.6,914.4 119.6,956.5 41.8,956.5  "/>
	<polygon id="XMLID_1438_" class="building-color figure-stroke" points="44.5,917 119.6,917 119.6,954 44.5,954  "/>
</g>

<g id="Icons" class="rotate-clockwise">
	<g id="building-icon-lock" class="rotate-counter-clockwise">
		<circle id="XMLID_514_" class="figure-icon-circle" cx="-10.8" cy="905.8" r="33.5"/>
		<path id="XMLID_1573_" class="building-color" d="M2.1,905.3v12.9c0,1.2-1,2.1-2.1,2.1h-21.5c-1.2,0-2.1-1-2.1-2.1v-12.9c0-1.2,1-2.1,2.1-2.1    h0.7v-7.1c0-5.5,4.5-10,10-10s10,4.5,10,10c0,0.8-0.6,1.4-1.4,1.4h-1.4c-0.8,0-1.4-0.6-1.4-1.4c0-3.1-2.6-5.7-5.7-5.7    s-5.7,2.6-5.7,5.7v7.1H0C1.1,903.1,2.1,904.1,2.1,905.3z"/>
	</g>
	<g id="building-icon-mobile" class="rotate-counter-clockwise">
		<circle id="XMLID_1392_" class="figure-icon-circle" cx="399.4" cy="905.8" r="33.5"/>
		<path id="XMLID_1567_" class="building-color" d="M412.3,889.3v34.3c0,1.2-0.4,2.2-1.3,3c-0.8,0.8-1.9,1.3-3,1.3h-17.1c-1.2,0-2.2-0.4-3-1.3    c-0.8-0.8-1.3-1.9-1.3-3v-34.3c0-1.2,0.4-2.2,1.3-3c0.8-0.8,1.9-1.3,3-1.3H408c1.2,0,2.2,0.4,3,1.3    C411.8,887.2,412.3,888.2,412.3,889.3z M409,918.3v-23.6c0-0.3-0.1-0.5-0.3-0.8c-0.2-0.2-0.5-0.3-0.8-0.3h-17.1    c-0.3,0-0.5,0.1-0.8,0.3c-0.2,0.2-0.3,0.5-0.3,0.8v23.6c0,0.3,0.1,0.5,0.3,0.8c0.2,0.2,0.5,0.3,0.8,0.3h17.1    c0.3,0,0.5-0.1,0.8-0.3C408.9,918.8,409,918.6,409,918.3z M402.6,889.9c0-0.4-0.2-0.5-0.5-0.5h-5.4c-0.4,0-0.5,0.2-0.5,0.5    c0,0.4,0.2,0.5,0.5,0.5h5.4C402.4,890.4,402.6,890.2,402.6,889.9z M401.3,925.5c0.5-0.5,0.8-1.2,0.8-1.9s-0.3-1.4-0.8-1.9    s-1.2-0.8-1.9-0.8c-0.7,0-1.4,0.3-1.9,0.8s-0.8,1.2-0.8,1.9s0.3,1.4,0.8,1.9s1.2,0.8,1.9,0.8C400.1,926.3,400.8,926,401.3,925.5z"/>
	</g>
	<g id="building-icon-network" class="rotate-counter-clockwise">
		<circle id="XMLID_523_" class="figure-icon-circle" cx="194.3" cy="700.7" r="33.5"/>
		<path id="XMLID_1561_" class="building-color" d="M212,696.5c-5.2-4.5-10.7-7.1-17.7-7.1s-12.5,2.5-17.7,7.1c-0.1,0.1-0.3,0.2-0.5,0.2    c-0.5,0-3.8-3.2-3.8-3.8c0-0.2,0.1-0.4,0.2-0.5c5.6-5.6,13.8-8.7,21.7-8.7s16.1,3.1,21.7,8.7c0.1,0.1,0.2,0.3,0.2,0.5    c0,0.5-3.2,3.8-3.8,3.8C212.3,696.7,212.2,696.6,212,696.5z M205.9,702.6c-3.7-2.9-6.8-4.6-11.6-4.6c-6.7,0-11.9,4.7-12.1,4.7    c-0.5,0-3.7-3.2-3.7-3.8c0-0.2,0.1-0.4,0.2-0.5c4-4,10-6.2,15.6-6.2s11.6,2.2,15.6,6.2c0.1,0.1,0.2,0.3,0.2,0.5    c0,0.5-3.2,3.8-3.7,3.8C206.3,702.8,206.1,702.7,205.9,702.6z M194.3,706.6c-3.3,0-5.7,2.2-6,2.2c-0.5,0-3.8-3.2-3.8-3.8    c0-0.2,0.1-0.4,0.2-0.5c2.4-2.4,6.3-3.7,9.6-3.7s7.2,1.3,9.6,3.7c0.1,0.1,0.2,0.3,0.2,0.5c0,0.5-3.2,3.8-3.8,3.8    C200.1,708.8,197.6,706.6,194.3,706.6z M190.6,711.2c0-1.1,2.9-1.7,3.7-1.7s3.7,0.6,3.7,1.7c0,0.6-3.1,3.7-3.7,3.7    S190.6,711.8,190.6,711.2z"/>
	</g>
	<g id="building-icon-eco" class="rotate-counter-clockwise">
		<circle id="XMLID_524_" class="figure-icon-circle" cx="194.3" cy="1110.9" r="33.5"/>
		<path id="XMLID_1363_" class="building-color" d="M202,1099.4c0.4-0.3,0.8-0.5,1.1-0.7s0.6-0.4,0.8-0.5s0.3-0.2,0.3-0.2s0-0.1-0.1-0.3    c-0.1-0.2-0.2-0.5-0.5-0.9c-0.2-0.3-0.5-0.8-0.9-1.2s-0.8-0.8-1.4-1.2c-0.5-0.4-1.1-0.7-1.8-1s-1.3-0.5-2.1-0.7    c-0.7-0.2-1.5-0.2-2.2-0.3c-0.8,0-1.5,0-2.3,0.2c-0.7,0.1-1.5,0.3-2.2,0.6c-0.7,0.2-1.4,0.5-2,0.9c-1.2,0.7-2.2,1.6-3,2.5    c-0.4,0.5-0.7,0.9-1,1.4c-0.3,0.4-0.5,0.9-0.7,1.3c-0.1,0.2-0.2,0.3-0.2,0.5c0.2-0.1,0.4-0.2,0.7-0.3c1.2-0.5,2.9-1.1,4.6-1.6    c0.8-0.2,1.7-0.4,2.5-0.5c0.4,0,0.8-0.1,1.2-0.1s0.7,0,1.1,0c0.3,0,0.6,0,0.9,0s0.5,0.1,0.7,0.1c0.4,0.1,0.6,0.1,0.6,0.1    s-0.2,0-0.6-0.1c-0.2,0-0.4-0.1-0.7,0c-0.3,0-0.6,0-0.9,0s-0.7,0.1-1,0.1c-0.4,0.1-0.8,0.1-1.1,0.2c-0.8,0.2-1.6,0.4-2.4,0.7    c-1.6,0.6-3.2,1.3-4.3,1.9c-0.2,0.1-0.3,0.2-0.5,0.3c-4.3,2.1-6.7,6.5-6.9,6.7l0.8,0.4c0-0.1,2.6-4.5,6.8-6.5    c0.3,0.1,0.6,0.2,0.9,0.3c0.5,0.2,1,0.3,1.5,0.5c0.5,0.1,1.1,0.3,1.7,0.4s1.2,0.2,1.7,0.2c0.6,0,1.2,0,1.7,0    c0.6,0,1.1-0.1,1.7-0.2c1.1-0.2,2.2-0.5,3.2-0.9c0.5-0.2,1-0.4,1.5-0.7c0.5-0.2,1-0.5,1.4-0.7    C201.1,1099.9,201.5,1099.6,202,1099.4z"/>
		<path id="XMLID_1362_" class="building-color" d="M205.6,1103.1h0.1c0.2-0.1,0.3-0.2,0.3-0.4c0-1.7-1-3.4-1.1-3.5c-0.1-0.2-0.4-0.3-0.6-0.2    s-0.3,0.4-0.2,0.6c0,0,0.5,0.8,0.8,1.8c-0.8-0.7-2-1.4-3-1.1c-0.2,0.1-0.4,0.3-0.3,0.6c0.1,0.2,0.3,0.4,0.6,0.3    c0.8-0.3,2.3,0.9,3,1.7C205.3,1103,205.4,1103.1,205.6,1103.1z"/>
		<path id="XMLID_1361_" class="building-color" d="M188.7,1126.8c-0.1-0.3-0.2-0.6-0.3-0.9c-0.2-0.5-0.4-1-0.6-1.5s-0.5-1-0.8-1.5    s-0.6-1-1-1.5s-0.7-0.9-1.1-1.3s-0.8-0.8-1.2-1.2c-0.8-0.7-1.8-1.4-2.7-1.9c-0.5-0.3-1-0.5-1.5-0.7s-1-0.4-1.5-0.6    s-0.9-0.4-1.4-0.5c-0.5-0.2-0.9-0.3-1.2-0.4s-0.7-0.2-0.9-0.3c-0.2-0.1-0.4-0.1-0.4-0.1s-0.1,0.1-0.2,0.3    c-0.1,0.2-0.3,0.5-0.4,0.9s-0.3,0.9-0.3,1.4c-0.1,0.5-0.1,1.1,0,1.8c0,0.6,0.2,1.3,0.4,2s0.5,1.3,0.8,2s0.8,1.3,1.2,1.9    c0.5,0.6,1,1.1,1.6,1.6s1.2,0.9,1.8,1.3s1.3,0.7,2,0.9c1.3,0.5,2.7,0.7,3.9,0.7c0.6,0,1.2,0,1.7-0.1s1-0.2,1.4-0.3    c0.2,0,0.4-0.1,0.5-0.2c-0.2-0.1-0.4-0.2-0.7-0.3c-1.2-0.6-2.7-1.5-4.2-2.5c-0.7-0.5-1.4-1.1-2-1.6c-0.3-0.3-0.6-0.6-0.9-0.8    c-0.3-0.3-0.5-0.5-0.7-0.8s-0.4-0.5-0.5-0.7c-0.2-0.2-0.3-0.4-0.4-0.6c-0.2-0.3-0.3-0.5-0.3-0.5s0.1,0.2,0.3,0.5    c0.1,0.2,0.2,0.4,0.4,0.5c0.2,0.2,0.4,0.4,0.6,0.7c0.2,0.2,0.5,0.5,0.8,0.7s0.6,0.5,0.9,0.7c0.6,0.5,1.4,1,2.1,1.4    c1.5,0.9,3,1.6,4.2,2.1c0.2,0.1,0.4,0.1,0.5,0.2c4.4,1.9,9.3,1,9.5,0.9l-0.2-0.9C198,1127.9,193,1128.8,188.7,1126.8z"/>
		<path id="XMLID_1360_" class="building-color" d="M174.8,1113.7c0.2,0.1,0.5,0,0.6-0.3c0,0,0.3-0.9,0.9-1.7c0,1.1,0.2,2.4,1.1,3    c0.2,0.1,0.5,0.1,0.6-0.1s0.1-0.5-0.2-0.6c-0.7-0.4-0.8-2.3-0.6-3.4c0-0.1,0-0.3-0.1-0.4l-0.1-0.1c-0.2-0.1-0.4-0.1-0.5,0    c-1.3,1.1-2,3-2,3.1C174.4,1113.4,174.6,1113.6,174.8,1113.7z"/>
		<path id="XMLID_1359_" class="building-color" d="M215.4,1116.5c-0.1-1.4-0.6-2.7-1.1-3.8c-0.3-0.5-0.6-1-0.9-1.5c-0.3-0.4-0.6-0.8-0.9-1.1    c-0.1-0.1-0.2-0.3-0.4-0.4c0,0.2,0,0.5,0,0.7c0,1.3-0.1,3.1-0.4,4.8c-0.1,0.9-0.3,1.7-0.5,2.5c-0.1,0.4-0.2,0.8-0.4,1.1    c-0.1,0.4-0.3,0.7-0.4,1c-0.1,0.3-0.3,0.6-0.4,0.8c-0.1,0.2-0.3,0.4-0.4,0.6c-0.2,0.3-0.3,0.5-0.3,0.5s0.1-0.2,0.3-0.5    c0.1-0.2,0.2-0.4,0.3-0.6s0.2-0.5,0.3-0.8s0.2-0.6,0.3-1s0.2-0.7,0.3-1.1c0.1-0.8,0.3-1.7,0.3-2.5c0.1-1.7,0.1-3.4,0-4.7    c0-0.2,0-0.4,0-0.6c-0.3-4.8-3.3-8.8-3.4-9l-0.7,0.5c0,0.1,3.1,4.1,3.2,8.8c-0.2,0.2-0.5,0.4-0.7,0.7c-0.3,0.4-0.7,0.8-1,1.2    s-0.7,0.9-1,1.4s-0.6,1-0.9,1.5s-0.5,1.1-0.7,1.6s-0.4,1.1-0.5,1.6c-0.3,1.1-0.4,2.2-0.5,3.3c0,0.5,0,1.1,0,1.6s0.1,1.1,0.1,1.6    s0.1,1,0.2,1.5s0.1,0.9,0.2,1.3c0,0.4,0.1,0.7,0.1,0.9c0,0.2,0.1,0.4,0.1,0.4s0.1,0,0.4,0c0.2,0,0.6,0,1-0.1s0.9-0.1,1.4-0.3    c0.5-0.2,1.1-0.4,1.6-0.8c0.6-0.3,1.1-0.8,1.6-1.2c0.5-0.5,1-1,1.5-1.6c0.4-0.6,0.8-1.3,1.1-1.9c0.3-0.7,0.6-1.4,0.8-2.1    s0.3-1.5,0.3-2.2C215.5,1117.9,215.5,1117.2,215.4,1116.5z"/>
		<path id="XMLID_1358_" class="building-color" d="M204.2,1128.3c0,0-0.9,0.1-2,0c0.9-0.5,2.1-1.3,2.2-2.3c0-0.2-0.2-0.5-0.4-0.5    s-0.5,0.2-0.5,0.4c-0.1,0.8-1.7,1.7-2.8,2.1c-0.1,0-0.2,0.2-0.3,0.3v0.1c0,0.2,0.1,0.4,0.3,0.4c1.6,0.7,3.5,0.4,3.6,0.4    c0.2,0,0.4-0.3,0.4-0.5C204.7,1128.5,204.5,1128.3,204.2,1128.3z"/>
	</g>
</g>
<g id="building-house">
	<polygon id="XMLID_1440_" class="building-color figure-stroke" points="327,1002.1 132.8,1002.1 132.8,894.5 327,894.5  "/>
	<polygon id="XMLID_1439_" class="building-color figure-stroke" points="295.4,1002.1 164.4,1002.1 164.4,914.4 295.4,914.4  "/>
	<polygon id="XMLID_1437_" class="building-color figure-stroke" points="327,775.9 253.9,775.9 253.9,867.9 327,867.9  "/>
	<polygon id="XMLID_1435_" class="building-color figure-stroke" points="320.3,855.9 260.5,855.9 260.5,813.7 320.3,813.7  "/>
	<polygon id="XMLID_1434_" class="building-color figure-stroke" points="292.4,1002.1 167.4,1002.1 167.4,917 292.4,917  "/>
	<polygon id="XMLID_1433_" class="building-color figure-stroke" points="263,816.3 317.8,816.3 317.8,853.4 263,853.4  "/>
	<polygon id="XMLID_1428_" class="building-color figure-stroke" points="133.4,825 119.6,825 119.6,1045 133.4,1045  "/>
	<polygon id="XMLID_1417_" class="building-color figure-stroke" points="126.4,873.5 133.4,873.5 133.4,878.6 126.4,878.6  "/>
	<polygon id="XMLID_1414_" class="building-color figure-stroke" points="126.4,889.2 133.4,889.2 133.4,894.3 126.4,894.3  "/>
	<polygon id="XMLID_1387_" class="building-color figure-stroke" points="126.4,1030.8 133.4,1030.8 133.4,1035.9 126.4,1035.9  "/>
	<polygon id="door-left" class="building-color figure-stroke door-left-open" points="210.3,1002.1 207.3,1002.1 207.3,917 210.3,917  "/>
	<polygon id="door-right" class="building-color figure-stroke door-right-open" points="252.4,1002.1 249.4,1002.1 249.4,917 252.4,917  "/>
	<path id="XMLID_1350_" class="building-color figure-stroke" d="M329,868.9c1.2-9.8,1.3-15.1,6.7-23.2c-7.3,5-8.3,14.4-9.9,22.7c-0.1,0.8,0.4,1.7,1.4,1.8   C328,870.4,328.9,869.9,329,868.9L329,868.9z"/>
	<polygon id="XMLID_1349_" class="building-color figure-stroke" points="327,749.7 432.9,749.7 432.9,1045 327,1045  "/>
	<polygon id="XMLID_1344_" class="building-color figure-stroke" points="336.2,866.3 133.4,866.3 133.4,896.8 336.2,896.8  "/>
	<polygon id="XMLID_1343_" class="building-color figure-stroke" points="420.4,842.7 327,842.7 327,800.1 420.4,800.1  "/>
	<polygon id="XMLID_1342_" class="building-color figure-stroke" points="420.4,997.1 339.3,997.1 339.3,914.4 420.4,914.4  "/>
	<polygon id="XMLID_1341_" class="building-color figure-stroke" points="327,803 417.6,803 417.6,839.9 327,839.9  "/>
	<polygon id="XMLID_1340_" class="building-color figure-stroke" points="342.1,917 417.6,917 417.6,994.1 342.1,994.1  "/>
	<polygon id="XMLID_1326_" class="building-color figure-stroke" points="333.6,869.6 126.1,869.6 126.1,894.5 333.6,894.5  "/>
	<polygon id="XMLID_1324_" class="building-color figure-stroke" points="327,1002.1 132.8,1002.1 132.8,1012.9 327,1012.9  "/>
	<polygon id="XMLID_1323_" class="building-color figure-stroke" points="330.6,1023.6 129.2,1023.6 129.2,1012.9 330.6,1012.9  "/>
	<polygon id="XMLID_1322_" class="building-color figure-stroke" points="334.9,1023.6 124.8,1023.6 124.8,1034.3 334.9,1034.3  "/>
	<polygon id="XMLID_1321_" class="building-color figure-stroke" points="338,1045 121.7,1045 121.7,1034.3 338,1034.3  "/>
</g>
</svg>