<?xml version="1.0" encoding="utf-8"?>
<!-- Generator: Adobe Illustrator 19.0.0, SVG Export Plug-In . SVG Version: 6.00 Build 0)  -->
<?xml-stylesheet href="../css/svg-style.css" type="text/css"?>
<svg version="1.1" id="Layer_1" xmlns="http://www.w3.org/2000/svg" xmlns:xlink="http://www.w3.org/1999/xlink" x="0px" y="0px"
	 viewBox="-67 178.9 490.6 485.9" style="enable-background:new -67 178.9 490.6 485.9;" xml:space="preserve">
<circle id="Circle_Dashed" class="dashed-cricle rotate-clockwise" cx="178.3" cy="421.8" r="205.1"/>
<g id="Building">
	<g id="XMLID_856_">
		<g id="XMLID_894_">
			<polygon id="XMLID_928_" class="energy-color figure-stroke" points="152,576.9 248,576.9 248,365.9 152,322.4 			"/>
			<polygon id="XMLID_927_" class="energy-color figure-stroke" points="163.1,555 236.8,555 236.8,372.8 163.1,341.3 			"/>
		</g>
		<g id="XMLID_857_">
			<polygon id="XMLID_893_" class="energy-color figure-stroke" points="111,576.9 206.9,576.9 206.9,323.9 111,280.4 			"/>
			<polygon id="XMLID_892_" class="energy-color figure-stroke" points="122.1,529.1 195.8,529.1 195.8,333.3 122.1,299.3 			"/>
			<g id="XMLID_858_">
				<rect id="XMLID_884_" x="114.4" y="305.3" class="energy-color figure-stroke" width="43.4" height="2.1"/>
				<rect id="XMLID_883_" x="114.4" y="313.9" class="energy-color figure-stroke" width="66.9" height="2.1"/>
				<rect id="XMLID_882_" x="114.4" y="322.5" class="energy-color figure-stroke" width="89.1" height="2.1"/>
				<rect id="XMLID_881_" x="114.4" y="331.1" class="energy-color figure-stroke" width="89.1" height="2.1"/>
				<rect id="XMLID_880_" x="114.4" y="339.7" class="energy-color figure-stroke" width="89.1" height="2.1"/>
				<rect id="XMLID_879_" x="114.4" y="348.4" class="energy-color figure-stroke" width="89.1" height="2.1"/>
				<rect id="XMLID_878_" x="114.4" y="357" class="energy-color figure-stroke" width="89.1" height="2.1"/>
				<rect id="XMLID_877_" x="114.4" y="365.6" class="energy-color figure-stroke" width="89.1" height="2.1"/>
				<rect id="XMLID_876_" x="114.4" y="374.3" class="energy-color figure-stroke" width="89.1" height="2.1"/>
				<rect id="XMLID_875_" x="114.4" y="382.9" class="energy-color figure-stroke" width="89.1" height="2.1"/>
				<rect id="XMLID_874_" x="114.4" y="391.5" class="energy-color figure-stroke" width="89.1" height="2.1"/>
				<rect id="XMLID_873_" x="114.4" y="400.2" class="energy-color figure-stroke" width="89.1" height="2.1"/>
				<rect id="XMLID_872_" x="114.4" y="408.8" class="energy-color figure-stroke" width="89.1" height="2.1"/>
				<rect id="XMLID_871_" x="114.4" y="417.4" class="energy-color figure-stroke" width="89.1" height="2.1"/>
				<rect id="XMLID_870_" x="114.4" y="426" class="energy-color figure-stroke" width="89.1" height="2.1"/>
				<rect id="XMLID_869_" x="114.4" y="434.6" class="energy-color figure-stroke" width="89.1" height="2.1"/>
				<rect id="XMLID_868_" x="114.4" y="443.3" class="energy-color figure-stroke" width="89.1" height="2.1"/>
				<rect id="XMLID_867_" x="114.4" y="451.9" class="energy-color figure-stroke" width="89.1" height="2.1"/>
				<rect id="XMLID_866_" x="114.4" y="460.5" class="energy-color figure-stroke" width="89.1" height="2.1"/>
				<rect id="XMLID_865_" x="114.4" y="469.1" class="energy-color figure-stroke" width="89.1" height="2.1"/>
				<rect id="XMLID_864_" x="114.4" y="477.7" class="energy-color figure-stroke" width="89.1" height="2.1"/>
				<rect id="XMLID_863_" x="114.4" y="486.4" class="energy-color figure-stroke" width="89.1" height="2.1"/>
				<rect id="XMLID_862_" x="114.4" y="495.1" class="energy-color figure-stroke" width="89.1" height="2.1"/>
				<rect id="XMLID_861_" x="114.4" y="503.7" class="energy-color figure-stroke" width="89.1" height="2.1"/>
				<rect id="XMLID_860_" x="114.4" y="512.1" class="energy-color figure-stroke" width="89.1" height="2.1"/>
				<rect id="XMLID_859_" x="114.4" y="520.6" class="energy-color figure-stroke" width="89.1" height="2.1"/>
			</g>
		</g>
	</g>
	<g id="XMLID_49_">
		<g id="XMLID_793_">
			<g id="XMLID_805_">
				<rect id="XMLID_808_" x="248.7" y="337.4" class="energy-color figure-stroke" width="47.3" height="41.1"/>
				<rect id="XMLID_807_" x="243.4" y="337.4" class="energy-color figure-stroke" width="58" height="9.6"/>
				<rect id="XMLID_806_" x="246.6" y="347" class="energy-color figure-stroke" width="51.3" height="5.3"/>
			</g>
			<g id="XMLID_794_">
				<g id="XMLID_800_">
					<rect id="XMLID_804_" x="262.7" y="357.3" class="energy-color figure-stroke" width="15" height="25.4"/>
					<g id="XMLID_801_">
						<g id="XMLID_803_">
							<rect x="264.6" y="359.2" class="energy-color" width="11.2" height="21.4"/>
							<path class="figure-icon-circle" d="M275.3,359.7v20.5h-10.2v-20.5H275.3 M276.3,358.7h-12.1v22.4h12.1V358.7L276.3,358.7z"/>
						</g>
					</g>
				</g>
				<g id="XMLID_795_">
					<rect id="XMLID_799_" x="277.7" y="357.3" class="energy-color figure-stroke" width="15" height="25.4"/>
					<g id="XMLID_796_">
						<g id="XMLID_798_">
							<rect x="279.7" y="359.2" class="energy-color" width="11.2" height="21.4"/>
							<path class="figure-icon-circle" d="M290.4,359.7v20.5h-10.2v-20.5H290.4 M291.4,358.7h-12.1v22.4h12.1V358.7L291.4,358.7z"/>
						</g>
					</g>
				</g>
			</g>
		</g>
		<g id="XMLID_50_">
			<g id="XMLID_53_">
				<g id="XMLID_789_">
					<rect id="XMLID_792_" x="248.6" y="376.4" class="energy-color figure-stroke" width="100" height="200.5"/>
					<rect id="XMLID_791_" x="243.3" y="376.4" class="energy-color figure-stroke" width="110.7" height="9.6"/>
					<rect id="XMLID_790_" x="246.6" y="386.1" class="energy-color figure-stroke" width="104" height="5.3"/>
				</g>
				<g id="XMLID_763_">
					<g id="XMLID_784_">
						<g id="XMLID_788_">
							<rect x="258.3" y="397.2" class="energy-color" width="10.8" height="16.7"/>
							<path class="figure-icon-circle" d="M268.5,397.7v15.8h-9.8v-15.8H268.5 M269.5,396.7h-11.8v17.7h11.8V396.7L269.5,396.7z"/>
						</g>
						<g id="XMLID_785_">
							<g id="XMLID_786_">
								<polygon class="energy-color" points="258.9,405.1 268.3,405.1 268.3,405.1 								"/>
								<polygon class="figure-icon-circle" points="268.9,404.6 258.5,404.6 258.5,405.6 268.9,405.6 								"/>
							</g>
						</g>
					</g>
					<g id="XMLID_779_">
						<g id="XMLID_783_">
							<rect x="275.8" y="397.2" class="energy-color" width="10.8" height="16.7"/>
							<path class="figure-icon-circle" d="M286,397.7v15.8h-9.8v-15.8H286 M287,396.7h-11.8v17.7H287V396.7L287,396.7z"/>
						</g>
						<g id="XMLID_780_">
							<g id="XMLID_781_">
								<polygon class="energy-color" points="276.5,405.1 285.9,405.1 285.9,405.1 								"/>
								<polygon class="figure-icon-circle" points="286.4,404.6 276,404.6 276,405.6 286.4,405.6 								"/>
							</g>
						</g>
					</g>
					<g id="XMLID_774_">
						<g id="XMLID_778_">
							<rect x="293.2" y="397.2" class="energy-color" width="10.8" height="16.7"/>
							<path class="figure-icon-circle" d="M303.5,397.7v15.8h-9.8v-15.8H303.5 M304.5,396.7h-11.8v17.7h11.8V396.7L304.5,396.7z"/>
						</g>
						<g id="XMLID_775_">
							<g id="XMLID_776_">
								<polygon class="energy-color" points="293.9,405.1 303.3,405.1 303.3,405.1 								"/>
								<polygon class="figure-icon-circle" points="303.8,404.6 293.4,404.6 293.4,405.6 303.8,405.6 								"/>
							</g>
						</g>
					</g>
					<g id="XMLID_769_">
						<g id="XMLID_773_">
							<rect x="310.8" y="397.2" class="energy-color" width="10.8" height="16.7"/>
							<path class="figure-icon-circle" d="M320.9,397.7v15.8h-9.8v-15.8H320.9 M321.9,396.7h-11.8v17.7h11.8V396.7L321.9,396.7z"/>
						</g>
						<g id="XMLID_770_">
							<g id="XMLID_771_">
								<polygon class="energy-color" points="311.3,405.1 320.7,405.1 320.7,405.1 								"/>
								<polygon class="figure-icon-circle" points="321.3,404.6 310.9,404.6 310.9,405.6 321.3,405.6 								"/>
							</g>
						</g>
					</g>
					<g id="XMLID_764_">
						<g id="XMLID_768_">
							<rect x="328.2" y="397.2" class="energy-color" width="10.8" height="16.7"/>
							<path class="figure-icon-circle" d="M338.5,397.7v15.8h-9.8v-15.8H338.5 M339.5,396.7h-11.8v17.7h11.8V396.7L339.5,396.7z"/>
						</g>
						<g id="XMLID_765_">
							<g id="XMLID_766_">
								<polygon class="energy-color" points="328.9,405.1 338.3,405.1 338.3,405.1 								"/>
								<polygon class="figure-icon-circle" points="338.8,404.6 328.4,404.6 328.4,405.6 338.8,405.6 								"/>
							</g>
						</g>
					</g>
				</g>
				<g id="XMLID_737_">
					<g id="XMLID_758_">
						<g id="XMLID_762_">
							<rect x="258.3" y="422.1" class="energy-color" width="10.8" height="16.7"/>
							<path class="figure-icon-circle" d="M268.5,422.6v15.8h-9.8v-15.8H268.5 M269.5,421.6h-11.8v17.7h11.8V421.6L269.5,421.6z"/>
						</g>
						<g id="XMLID_759_">
							<g id="XMLID_760_">
								<polygon class="energy-color" points="258.9,430 268.3,430 268.3,430 								"/>
								<polygon class="figure-icon-circle" points="268.9,429.6 258.5,429.6 258.5,430.5 268.9,430.5 								"/>
							</g>
						</g>
					</g>
					<g id="XMLID_753_">
						<g id="XMLID_757_">
							<rect x="275.8" y="422.1" class="energy-color" width="10.8" height="16.7"/>
							<path class="figure-icon-circle" d="M286,422.6v15.8h-9.8v-15.8H286 M287,421.6h-11.8v17.7H287V421.6L287,421.6z"/>
						</g>
						<g id="XMLID_754_">
							<g id="XMLID_755_">
								<polygon class="energy-color" points="276.5,430 285.9,430 285.9,430 								"/>
								<polygon class="figure-icon-circle" points="286.4,429.6 276,429.6 276,430.5 286.4,430.5 								"/>
							</g>
						</g>
					</g>
					<g id="XMLID_748_">
						<g id="XMLID_752_">
							<rect x="293.2" y="422.1" class="energy-color" width="10.8" height="16.7"/>
							<path class="figure-icon-circle" d="M303.5,422.6v15.8h-9.8v-15.8H303.5 M304.5,421.6h-11.8v17.7h11.8V421.6L304.5,421.6z"/>
						</g>
						<g id="XMLID_749_">
							<g id="XMLID_750_">
								<polygon class="energy-color" points="293.9,430 303.3,430 303.3,430 								"/>
								<polygon class="figure-icon-circle" points="303.8,429.6 293.4,429.6 293.4,430.5 303.8,430.5 								"/>
							</g>
						</g>
					</g>
					<g id="XMLID_743_">
						<g id="XMLID_747_">
							<rect x="310.8" y="422.1" class="energy-color" width="10.8" height="16.7"/>
							<path class="figure-icon-circle" d="M320.9,422.6v15.8h-9.8v-15.8H320.9 M321.9,421.6h-11.8v17.7h11.8V421.6L321.9,421.6z"/>
						</g>
						<g id="XMLID_744_">
							<g id="XMLID_745_">
								<polygon class="energy-color" points="311.3,430 320.7,430 320.7,430 								"/>
								<polygon class="figure-icon-circle" points="321.3,429.6 310.9,429.6 310.9,430.5 321.3,430.5 								"/>
							</g>
						</g>
					</g>
					<g id="XMLID_738_">
						<g id="XMLID_742_">
							<rect x="328.2" y="422.1" class="energy-color" width="10.8" height="16.7"/>
							<path class="figure-icon-circle" d="M338.5,422.6v15.8h-9.8v-15.8H338.5 M339.5,421.6h-11.8v17.7h11.8V421.6L339.5,421.6z"/>
						</g>
						<g id="XMLID_739_">
							<g id="XMLID_740_">
								<polygon class="energy-color" points="328.9,430 338.3,430 338.3,430 								"/>
								<polygon class="figure-icon-circle" points="338.8,429.6 328.4,429.6 328.4,430.5 338.8,430.5 								"/>
							</g>
						</g>
					</g>
				</g>
				<g id="XMLID_711_">
					<g id="XMLID_732_">
						<g id="XMLID_736_">
							<rect x="258.3" y="447.1" class="energy-color" width="10.8" height="16.7"/>
							<path class="figure-icon-circle" d="M268.5,447.6v15.8h-9.8v-15.8H268.5 M269.5,446.6h-11.8v17.7h11.8V446.6L269.5,446.6z"/>
						</g>
						<g id="XMLID_733_">
							<g id="XMLID_734_">
								<polygon class="energy-color" points="258.9,455 268.3,455 268.3,455 								"/>
								<polygon class="figure-icon-circle" points="268.9,454.5 258.5,454.5 258.5,455.5 268.9,455.5 								"/>
							</g>
						</g>
					</g>
					<g id="XMLID_727_">
						<g id="XMLID_731_">
							<rect x="275.8" y="447.1" class="energy-color" width="10.8" height="16.7"/>
							<path class="figure-icon-circle" d="M286,447.6v15.8h-9.8v-15.8H286 M287,446.6h-11.8v17.7H287V446.6L287,446.6z"/>
						</g>
						<g id="XMLID_728_">
							<g id="XMLID_729_">
								<polygon class="energy-color" points="276.5,455 285.9,455 285.9,455 								"/>
								<polygon class="figure-icon-circle" points="286.4,454.5 276,454.5 276,455.5 286.4,455.5 								"/>
							</g>
						</g>
					</g>
					<g id="XMLID_722_">
						<g id="XMLID_726_">
							<rect x="293.2" y="447.1" class="energy-color" width="10.8" height="16.7"/>
							<path class="figure-icon-circle" d="M303.5,447.6v15.8h-9.8v-15.8H303.5 M304.5,446.6h-11.8v17.7h11.8V446.6L304.5,446.6z"/>
						</g>
						<g id="XMLID_723_">
							<g id="XMLID_724_">
								<polygon class="energy-color" points="293.9,455 303.3,455 303.3,455 								"/>
								<polygon class="figure-icon-circle" points="303.8,454.5 293.4,454.5 293.4,455.5 303.8,455.5 								"/>
							</g>
						</g>
					</g>
					<g id="XMLID_717_">
						<g id="XMLID_721_">
							<rect x="310.8" y="447.1" class="energy-color" width="10.8" height="16.7"/>
							<path class="figure-icon-circle" d="M320.9,447.6v15.8h-9.8v-15.8H320.9 M321.9,446.6h-11.8v17.7h11.8V446.6L321.9,446.6z"/>
						</g>
						<g id="XMLID_718_">
							<g id="XMLID_719_">
								<polygon class="energy-color" points="311.3,455 320.7,455 320.7,455 								"/>
								<polygon class="figure-icon-circle" points="321.3,454.5 310.9,454.5 310.9,455.5 321.3,455.5 								"/>
							</g>
						</g>
					</g>
					<g id="XMLID_712_">
						<g id="XMLID_716_">
							<rect x="328.2" y="447.1" class="energy-color" width="10.8" height="16.7"/>
							<path class="figure-icon-circle" d="M338.5,447.6v15.8h-9.8v-15.8H338.5 M339.5,446.6h-11.8v17.7h11.8V446.6L339.5,446.6z"/>
						</g>
						<g id="XMLID_713_">
							<g id="XMLID_714_">
								<polygon class="energy-color" points="328.9,455 338.3,455 338.3,455 								"/>
								<polygon class="figure-icon-circle" points="338.8,454.5 328.4,454.5 328.4,455.5 338.8,455.5 								"/>
							</g>
						</g>
					</g>
				</g>
				<g id="XMLID_685_">
					<g id="XMLID_706_">
						<g id="XMLID_710_">
							<rect x="258.3" y="472.1" class="energy-color" width="10.8" height="16.7"/>
							<path class="figure-icon-circle" d="M268.5,472.6v15.8h-9.8v-15.8H268.5 M269.5,471.6h-11.8v17.7h11.8V471.6L269.5,471.6z"/>
						</g>
						<g id="XMLID_707_">
							<g id="XMLID_708_">
								<polygon class="energy-color" points="258.9,479.9 268.3,479.9 268.3,479.9 								"/>
								<polygon class="figure-icon-circle" points="268.9,479.4 258.5,479.4 258.5,480.4 268.9,480.4 								"/>
							</g>
						</g>
					</g>
					<g id="XMLID_701_">
						<g id="XMLID_705_">
							<rect x="275.8" y="472.1" class="energy-color" width="10.8" height="16.7"/>
							<path class="figure-icon-circle" d="M286,472.6v15.8h-9.8v-15.8H286 M287,471.6h-11.8v17.7H287V471.6L287,471.6z"/>
						</g>
						<g id="XMLID_702_">
							<g id="XMLID_703_">
								<polygon class="energy-color" points="276.5,479.9 285.9,479.9 285.9,479.9 								"/>
								<polygon class="figure-icon-circle" points="286.4,479.4 276,479.4 276,480.4 286.4,480.4 								"/>
							</g>
						</g>
					</g>
					<g id="XMLID_696_">
						<g id="XMLID_700_">
							<rect x="293.2" y="472.1" class="energy-color" width="10.8" height="16.7"/>
							<path class="figure-icon-circle" d="M303.5,472.6v15.8h-9.8v-15.8H303.5 M304.5,471.6h-11.8v17.7h11.8V471.6L304.5,471.6z"/>
						</g>
						<g id="XMLID_697_">
							<g id="XMLID_698_">
								<polygon class="energy-color" points="293.9,479.9 303.3,479.9 303.3,479.9 								"/>
								<polygon class="figure-icon-circle" points="303.8,479.4 293.4,479.4 293.4,480.4 303.8,480.4 								"/>
							</g>
						</g>
					</g>
					<g id="XMLID_691_">
						<g id="XMLID_695_">
							<rect x="310.8" y="472.1" class="energy-color" width="10.8" height="16.7"/>
							<path class="figure-icon-circle" d="M320.9,472.6v15.8h-9.8v-15.8H320.9 M321.9,471.6h-11.8v17.7h11.8V471.6L321.9,471.6z"/>
						</g>
						<g id="XMLID_692_">
							<g id="XMLID_693_">
								<polygon class="energy-color" points="311.3,479.9 320.7,479.9 320.7,479.9 								"/>
								<polygon class="figure-icon-circle" points="321.3,479.4 310.9,479.4 310.9,480.4 321.3,480.4 								"/>
							</g>
						</g>
					</g>
					<g id="XMLID_686_">
						<g id="XMLID_690_">
							<rect x="328.2" y="472.1" class="energy-color" width="10.8" height="16.7"/>
							<path class="figure-icon-circle" d="M338.5,472.6v15.8h-9.8v-15.8H338.5 M339.5,471.6h-11.8v17.7h11.8V471.6L339.5,471.6z"/>
						</g>
						<g id="XMLID_687_">
							<g id="XMLID_688_">
								<polygon class="energy-color" points="328.9,479.9 338.3,479.9 338.3,479.9 								"/>
								<polygon class="figure-icon-circle" points="338.8,479.4 328.4,479.4 328.4,480.4 338.8,480.4 								"/>
							</g>
						</g>
					</g>
				</g>
				<g id="XMLID_630_">
					<g id="XMLID_680_">
						<g id="XMLID_684_">
							<rect x="258.3" y="497" class="energy-color" width="10.8" height="16.7"/>
							<path class="figure-icon-circle" d="M268.5,497.5v15.8h-9.8v-15.8H268.5 M269.5,496.5h-11.8v17.7h11.8V496.5L269.5,496.5z"/>
						</g>
						<g id="XMLID_681_">
							<g id="XMLID_682_">
								<polygon class="energy-color" points="258.9,504.9 268.3,504.9 268.3,504.9 								"/>
								<polygon class="figure-icon-circle" points="268.9,504.4 258.5,504.4 258.5,505.4 268.9,505.4 								"/>
							</g>
						</g>
					</g>
					<g id="XMLID_675_">
						<g id="XMLID_679_">
							<rect x="275.8" y="497" class="energy-color" width="10.8" height="16.7"/>
							<path class="figure-icon-circle" d="M286,497.5v15.8h-9.8v-15.8H286 M287,496.5h-11.8v17.7H287V496.5L287,496.5z"/>
						</g>
						<g id="XMLID_676_">
							<g id="XMLID_677_">
								<polygon class="energy-color" points="276.5,504.9 285.9,504.9 285.9,504.9 								"/>
								<polygon class="figure-icon-circle" points="286.4,504.4 276,504.4 276,505.4 286.4,505.4 								"/>
							</g>
						</g>
					</g>
					<g id="XMLID_670_">
						<g id="XMLID_674_">
							<rect x="293.2" y="497" class="energy-color" width="10.8" height="16.7"/>
							<path class="figure-icon-circle" d="M303.5,497.5v15.8h-9.8v-15.8H303.5 M304.5,496.5h-11.8v17.7h11.8V496.5L304.5,496.5z"/>
						</g>
						<g id="XMLID_671_">
							<g id="XMLID_672_">
								<polygon class="energy-color" points="293.9,504.9 303.3,504.9 303.3,504.9 								"/>
								<polygon class="figure-icon-circle" points="303.8,504.4 293.4,504.4 293.4,505.4 303.8,505.4 								"/>
							</g>
						</g>
					</g>
					<g id="XMLID_665_">
						<g id="XMLID_669_">
							<rect x="310.8" y="497" class="energy-color" width="10.8" height="16.7"/>
							<path class="figure-icon-circle" d="M320.9,497.5v15.8h-9.8v-15.8H320.9 M321.9,496.5h-11.8v17.7h11.8V496.5L321.9,496.5z"/>
						</g>
						<g id="XMLID_666_">
							<g id="XMLID_667_">
								<polygon class="energy-color" points="311.3,504.9 320.7,504.9 320.7,504.9 								"/>
								<polygon class="figure-icon-circle" points="321.3,504.4 310.9,504.4 310.9,505.4 321.3,505.4 								"/>
							</g>
						</g>
					</g>
					<g id="XMLID_660_">
						<g id="XMLID_664_">
							<rect x="328.2" y="497" class="energy-color" width="10.8" height="16.7"/>
							<path class="figure-icon-circle" d="M338.5,497.5v15.8h-9.8v-15.8H338.5 M339.5,496.5h-11.8v17.7h11.8V496.5L339.5,496.5z"/>
						</g>
						<g id="XMLID_661_">
							<g id="XMLID_662_">
								<polygon class="energy-color" points="328.9,504.9 338.3,504.9 338.3,504.9 								"/>
								<polygon class="figure-icon-circle" points="338.8,504.4 328.4,504.4 328.4,505.4 338.8,505.4 								"/>
							</g>
						</g>
					</g>
				</g>
				<g id="XMLID_97_">
					<g id="XMLID_436_">
						<g id="XMLID_596_">
							<rect x="258.3" y="521.9" class="energy-color" width="10.8" height="16.7"/>
							<path class="figure-icon-circle" d="M268.5,522.4v15.8h-9.8v-15.8H268.5 M269.5,521.4h-11.8v17.7h11.8V521.4L269.5,521.4z"/>
						</g>
						<g id="XMLID_467_">
							<g id="XMLID_506_">
								<polygon class="energy-color" points="258.9,529.8 268.3,529.8 268.3,529.8 								"/>
								<polygon class="figure-icon-circle" points="268.9,529.4 258.5,529.4 258.5,530.3 268.9,530.3 								"/>
							</g>
						</g>
					</g>
					<g id="XMLID_151_">
						<g id="XMLID_409_">
							<rect x="275.8" y="521.9" class="energy-color" width="10.8" height="16.7"/>
							<path class="figure-icon-circle" d="M286,522.4v15.8h-9.8v-15.8H286 M287,521.4h-11.8v17.7H287V521.4L287,521.4z"/>
						</g>
						<g id="XMLID_178_">
							<g id="XMLID_205_">
								<polygon class="energy-color" points="276.5,529.8 285.9,529.8 285.9,529.8 								"/>
								<polygon class="figure-icon-circle" points="286.4,529.4 276,529.4 276,530.3 286.4,530.3 								"/>
							</g>
						</g>
					</g>
					<g id="XMLID_120_">
						<g id="XMLID_124_">
							<rect x="293.2" y="521.9" class="energy-color" width="10.8" height="16.7"/>
							<path class="figure-icon-circle" d="M303.5,522.4v15.8h-9.8v-15.8H303.5 M304.5,521.4h-11.8v17.7h11.8V521.4L304.5,521.4z"/>
						</g>
						<g id="XMLID_121_">
							<g id="XMLID_122_">
								<polygon class="energy-color" points="293.9,529.8 303.3,529.8 303.3,529.8 								"/>
								<polygon class="figure-icon-circle" points="303.8,529.4 293.4,529.4 293.4,530.3 303.8,530.3 								"/>
							</g>
						</g>
					</g>
					<g id="XMLID_103_">
						<g id="XMLID_119_">
							<rect x="310.8" y="521.9" class="energy-color" width="10.8" height="16.7"/>
							<path class="figure-icon-circle" d="M320.9,522.4v15.8h-9.8v-15.8H320.9 M321.9,521.4h-11.8v17.7h11.8V521.4L321.9,521.4z"/>
						</g>
						<g id="XMLID_104_">
							<g id="XMLID_105_">
								<polygon class="energy-color" points="311.3,529.8 320.7,529.8 320.7,529.8 								"/>
								<polygon class="figure-icon-circle" points="321.3,529.4 310.9,529.4 310.9,530.3 321.3,530.3 								"/>
							</g>
						</g>
					</g>
					<g id="XMLID_98_">
						<g id="XMLID_102_">
							<rect x="328.2" y="521.9" class="energy-color" width="10.8" height="16.7"/>
							<path class="figure-icon-circle" d="M338.5,522.4v15.8h-9.8v-15.8H338.5 M339.5,521.4h-11.8v17.7h11.8V521.4L339.5,521.4z"/>
						</g>
						<g id="XMLID_99_">
							<g id="XMLID_100_">
								<polygon class="energy-color" points="328.9,529.8 338.3,529.8 338.3,529.8 								"/>
								<polygon class="figure-icon-circle" points="338.8,529.4 328.4,529.4 328.4,530.3 338.8,530.3 								"/>
							</g>
						</g>
					</g>
				</g>
				<g id="XMLID_54_">
					<g id="XMLID_91_">
						<rect id="XMLID_96_" x="257.9" y="551.5" class="energy-color figure-stroke" width="15" height="25.4"/>
						<g id="XMLID_93_">
							<g id="XMLID_95_">
								<rect x="259.7" y="553.5" class="energy-color" width="11.2" height="21.4"/>
								<path class="figure-icon-circle" d="M270.4,553.9v20.5h-10.2v-20.5H270.4 M271.4,553h-12.1v22.4h12.1V553L271.4,553z"/>
							</g>
						</g>
					</g>
					<g id="XMLID_83_">
						<rect id="XMLID_87_" x="272.8" y="551.5" class="energy-color figure-stroke" width="15" height="25.4"/>
						<g id="XMLID_84_">
							<g id="XMLID_86_">
								<rect x="274.8" y="553.5" class="energy-color" width="11.2" height="21.4"/>
								<path class="figure-icon-circle" d="M285.5,553.9v20.5h-10.2v-20.5H285.5 M286.5,553h-12.1v22.4h12.1V553L286.5,553z"/>
							</g>
						</g>
					</g>
					<g id="XMLID_78_">
						<g id="XMLID_82_">
							<rect x="310.8" y="546.9" class="energy-color" width="10.8" height="16.7"/>
							<path class="figure-icon-circle" d="M320.9,547.4v15.8h-9.8v-15.8H320.9 M321.9,546.4h-11.8v17.7h11.8V546.4L321.9,546.4z"/>
						</g>
						<g id="XMLID_79_">
							<g id="XMLID_80_">
								<polygon class="energy-color" points="311.3,554.8 320.7,554.8 320.7,554.8 								"/>
								<polygon class="figure-icon-circle" points="321.3,554.3 310.9,554.3 310.9,555.3 321.3,555.3 								"/>
							</g>
						</g>
					</g>
					<g id="XMLID_73_">
						<g id="XMLID_77_">
							<rect x="293.2" y="546.9" class="energy-color" width="10.8" height="16.7"/>
							<path class="figure-icon-circle" d="M303.5,547.4v15.8h-9.8v-15.8H303.5 M304.5,546.4h-11.8v17.7h11.8V546.4L304.5,546.4z"/>
						</g>
						<g id="XMLID_74_">
							<g id="XMLID_75_">
								<polygon class="energy-color" points="293.9,554.8 303.3,554.8 303.3,554.8 								"/>
								<polygon class="figure-icon-circle" points="303.8,554.3 293.4,554.3 293.4,555.3 303.8,555.3 								"/>
							</g>
						</g>
					</g>
					<g id="XMLID_55_">
						<g id="XMLID_59_">
							<rect x="328.2" y="546.9" class="energy-color" width="10.8" height="16.7"/>
							<path class="figure-icon-circle" d="M338.5,547.4v15.8h-9.8v-15.8H338.5 M339.5,546.4h-11.8v17.7h11.8V546.4L339.5,546.4z"/>
						</g>
						<g id="XMLID_56_">
							<g id="XMLID_57_">
								<polygon class="energy-color" points="328.9,554.8 338.3,554.8 338.3,554.8 								"/>
								<polygon class="figure-icon-circle" points="338.8,554.3 328.4,554.3 328.4,555.3 338.8,555.3 								"/>
							</g>
						</g>
					</g>
				</g>
			</g>
			<g id="XMLID_52_">
				<polygon class="energy-color" points="269.7,564.2 271.6,564.1 271.6,564.2 				"/>
				<path class="figure-icon-circle" d="M271.6,563.6h-1.9c-0.3,0-0.5,0.2-0.5,0.5s0.2,0.5,0.5,0.5h1.9c0.3,0,0.5-0.2,0.5-0.5
					S271.9,563.6,271.6,563.6L271.6,563.6z"/>
			</g>
			<g id="XMLID_51_">
				<polygon class="energy-color" points="274.2,564.2 276.1,564.1 276.1,564.2 				"/>
				<path class="figure-icon-circle" d="M276.1,563.6h-1.9c-0.3,0-0.5,0.2-0.5,0.5s0.2,0.5,0.5,0.5h1.9c0.3,0,0.5-0.2,0.5-0.5
					S276.4,563.6,276.1,563.6L276.1,563.6z"/>
			</g>
		</g>
	</g>
</g>
<g id="Icons" class="rotate-clockwise">
	<g class="rotate-counter-clockwise">
		<circle id="XMLID_475_" class="figure-icon-circle" cx="-26.8" cy="421.8" r="33.5"/>
		<g id="XMLID_1556_">
			<path id="XMLID_1557_" class="energy-color" d="M-15.2,414.5l-14.1,30.1c-0.2,0.4-0.6,0.7-1.1,0.7c-0.1,0-0.2,0-0.4-0.1
				c-0.6-0.2-0.9-0.7-0.8-1.3l5.1-21.1l-10.6,2.6c-0.1,0-0.2,0-0.3,0c-0.3,0-0.6-0.1-0.8-0.3c-0.3-0.3-0.4-0.7-0.3-1l5.2-21.5
				c0.1-0.5,0.6-0.8,1.1-0.8h8.5c0.7,0,1.2,0.5,1.2,1.1c0,0.2-0.1,0.3-0.1,0.5l-4.5,12.1l10.3-2.6c0.1,0,0.2-0.1,0.3-0.1
				c0.3,0,0.7,0.2,0.9,0.4C-15.1,413.7-15,414.2-15.2,414.5z"/>
		</g>
	</g>
	<g class="rotate-counter-clockwise">
		<circle id="XMLID_741_" class="figure-icon-circle" cx="383.4" cy="421.8" r="33.5"/>
		<g id="XMLID_1535_">
			<path id="XMLID_1553_" class="energy-color" d="M383.4,439c-7.4,0-13.3-6-13.3-13.3c0-2.6,0.8-5.1,2.1-7.2c1.2-2.1,6.9-9.1,9-16.2
				c0.3-1.1,1.5-1.7,2.2-1.7c0.7,0,1.9,0.5,2.2,1.7c2.1,7.1,7.7,14.1,9,16.2c1.3,2.1,2.1,4.5,2.1,7.2C396.7,433,390.7,439,383.4,439
				z M382.8,427.2c-0.3-0.5-1.7-2.3-2.3-4c-0.1-0.3-0.3-0.4-0.5-0.4c-0.2,0-0.5,0.1-0.5,0.4c-0.5,1.7-1.9,3.5-2.3,4
				c-0.3,0.5-0.5,1.1-0.5,1.8c0,1.8,1.5,3.3,3.3,3.3c1.8,0,3.3-1.5,3.3-3.3C383.4,428.4,383.1,427.7,382.8,427.2z"/>
		</g>
	</g>
	<g class="rotate-counter-clockwise">
		<circle id="XMLID_480_" class="figure-icon-circle" cx="178.2" cy="216.7" r="33.5"/>
		<g id="XMLID_510_">
			<polygon id="XMLID_503_" class="energy-color" points="180.8,210.4 180.8,213.9 186.7,213.9 185.7,210.4 			"/>
			<polygon id="XMLID_502_" class="energy-color" points="180.8,218.5 187.6,218.5 186.7,215 180.8,215 			"/>
			<path id="XMLID_531_" class="energy-color" d="M186.6,208.3h-21.5c-0.6,0-1.1,0.4-1.1,0.9l-3,15.3c0,0.5,0.5,0.9,1.1,0.9h1.7h1.5h21.2h1.5
				h2.5c0.6,0,1.1-0.4,1.1-0.9l-3.7-15.3C187.6,208.6,187.1,208.3,186.6,208.3z M162.3,224.3l3-14.9h21.1l3.7,14.9H162.3z"/>
			<polygon id="XMLID_499_" class="energy-color" points="171.7,210.4 166.4,210.4 165.3,213.9 171.7,213.9 			"/>
			<rect id="XMLID_486_" x="173" y="210.4" class="energy-color" width="6.3" height="3.5"/>
			<polygon id="XMLID_482_" class="energy-color" points="164.4,218.5 171.7,218.5 171.7,215 165.3,215 			"/>
			<rect id="XMLID_72_" x="173" y="215" class="energy-color" width="6.3" height="3.5"/>
			<polygon id="XMLID_70_" class="energy-color" points="163.6,223.1 171.7,223.1 171.7,219.7 164.5,219.7 			"/>
			<rect id="XMLID_12_" x="173" y="219.7" class="energy-color" width="6.3" height="3.5"/>
			<polygon id="XMLID_11_" class="energy-color" points="180.8,219.7 180.8,223.1 188.7,223.1 187.6,219.7 			"/>
			<polygon id="XMLID_10_" class="energy-color" points="177.4,226.1 174.9,226.1 174.9,231.1 172,231.1 172,232.8 180.4,232.8 180.4,231.1
				177.4,231.1 			"/>
			<path id="XMLID_9_" class="energy-color" d="M187.2,207.5c0.6,0,1.1,0.4,1.1,0.9l1.1,4.3c1-0.9,1.7-2.1,1.7-3.6c0-2.6-2.1-4.7-4.7-4.7
				c-2,0-3.7,1.3-4.4,3L187.2,207.5L187.2,207.5z"/>
			<path id="XMLID_8_" class="energy-color" d="M195.3,209l-2.6-0.7h-0.1v0.1v1.5v0.1h0.1l2.6-0.7C195.4,209.1,195.4,209,195.3,209z"/>
			<path id="XMLID_7_" class="energy-color" d="M185.8,203.2h1.5h0.1v-0.1l-0.7-2.6c0-0.1-0.2-0.1-0.2,0L185.8,203.2
				C185.7,203.1,185.7,203.1,185.8,203.2L185.8,203.2z"/>
			<path id="XMLID_6_" class="energy-color" d="M191.1,205.5C191.2,205.5,191.2,205.5,191.1,205.5c0.1,0,0.2,0,0.2,0l1.3-2.3
				c0-0.1-0.1-0.2-0.1-0.1l-2.3,1.3c0,0,0,0-0.1,0.1v0.1L191.1,205.5z"/>
			<path id="XMLID_5_" class="energy-color" d="M190.7,212.7C190.7,212.7,190.6,212.7,190.7,212.7c-0.1-0.1-0.1,0-0.2,0l-0.9,0.9l0.1,0.3
				l2.2,1.2c0.1,0,0.2-0.1,0.1-0.1L190.7,212.7z"/>
			<path id="XMLID_13_" class="energy-color" d="M181.3,205.5L181.3,205.5l1.1-1v-0.1v-0.1l-2.1-1.2c-0.1,0-0.2,0.1-0.1,0.1L181.3,205.5
				C181.2,205.5,181.2,205.5,181.3,205.5z"/>
		</g>
	</g>
	<g class="rotate-counter-clockwise">
		<circle id="XMLID_511_" class="figure-icon-circle" cx="178.3" cy="626.9" r="33.5"/>
		<g id="XMLID_515_">
			<path id="XMLID_517_" class="energy-color" d="M196,627c-0.3-0.3-0.6-0.5-0.9-0.8c-0.6-0.5-1.3-0.9-1.9-1.3c-1.3-0.8-2.7-1.5-4.1-1.9
				c-1.5-0.5-2.8-0.8-4.3-1.1c-0.7-0.1-1.5-0.2-2.3-0.2c-0.3,0-0.6,0-0.8,0c-0.1-1.5-1.1-2.7-2.5-3c0.1-0.3,0.2-0.5,0.3-0.8
				c0.2-0.7,0.4-1.5,0.6-2.2c0.3-1.5,0.4-3,0.4-4.5c0-1.5-0.1-3-0.4-4.4c-0.1-0.7-0.3-1.5-0.6-2.2c-0.1-0.4-0.3-0.7-0.4-1.1
				c-0.2-0.4-0.3-0.7-0.5-1.1c-0.2,0.4-0.4,0.7-0.5,1.1c-0.2,0.4-0.3,0.7-0.4,1.1c-0.2,0.7-0.4,1.5-0.6,2.2c-0.3,1.5-0.4,3-0.4,4.4
				c0,1.5,0.1,3,0.4,4.5c0.1,0.7,0.3,1.5,0.6,2.2c0.1,0.3,0.2,0.5,0.3,0.8c-1.5,0.3-2.4,1.5-2.5,3l0,0c-0.4,0-0.8,0-1.2,0
				c-0.8,0-1.5,0.1-2.3,0.2c-1.5,0.2-2.9,0.6-4.3,1.1c-1.5,0.5-2.8,1.1-4.1,1.9c-0.7,0.4-1.3,0.8-1.9,1.3c-0.3,0.2-0.6,0.5-0.9,0.8
				c-0.3,0.3-0.6,0.6-0.9,0.9c0.4,0.1,0.8,0.1,1.2,0.2c0.4,0,0.8,0,1.2,0c0.8,0,1.5-0.1,2.3-0.2c1.5-0.2,2.9-0.6,4.3-1.1
				c1.5-0.5,2.8-1.1,4.1-1.9c0.7-0.4,1.3-0.8,1.9-1.3c0.3-0.2,0.5-0.4,0.7-0.6c0.3,0.8,0.9,1.5,1.7,1.9l-2.4,26.2h7.5l-2.5-26.2
				c0.8-0.3,1.5-0.9,1.7-1.7c0.2,0.1,0.3,0.2,0.5,0.4c0.6,0.5,1.3,0.9,1.9,1.3c1.3,0.8,2.7,1.5,4.1,1.9c1.5,0.5,2.8,0.9,4.3,1.1
				c0.7,0.1,1.5,0.2,2.3,0.2c0.4,0,0.8,0,1.2,0s0.8-0.1,1.2-0.2C196.7,627.6,196.3,627.3,196,627z M178.5,623.3
				c-0.7,0-1.2-0.6-1.2-1.2c0-0.7,0.6-1.2,1.2-1.2c0.7,0,1.2,0.6,1.2,1.2S179.2,623.3,178.5,623.3z"/>
		</g>
	</g>
</g>
<g id="Building_Left">
	<polygon id="XMLID_855_" class="energy-color figure-stroke" points="70.2,218.8 67.9,218.8 67.9,204.4 70.2,204.5 	"/>
	<rect id="XMLID_854_" x="52.2" y="221.5" class="energy-color figure-stroke" width="33.8" height="24.4"/>
	<rect id="XMLID_853_" x="58.8" y="216.5" class="energy-color figure-stroke" width="20.5" height="6.7"/>
	<rect id="XMLID_852_" x="50.9" y="221.5" class="energy-color figure-stroke" width="36.2" height="4.8"/>
	<g id="XMLID_821_">
		<rect id="XMLID_851_" x="27.9" y="247.3" class="energy-color figure-stroke" width="82.3" height="330"/>
		<rect id="XMLID_850_" x="37.4" y="265.4" class="energy-color figure-stroke" width="63.3" height="259.1"/>
		<rect id="building-lighting" x="37.4" y="265.4" class="figure-stroke skyscraper-lighting" fill="none" width="63.3" height="259.1"/>
		<rect id="XMLID_841_" x="34.4" y="276.5" class="energy-color figure-stroke" width="72" height="2.6"/>
		<rect id="XMLID_840_" x="34.4" y="289.2" class="energy-color figure-stroke" width="72" height="2.6"/>
		<rect id="XMLID_839_" x="34.4" y="302" class="energy-color figure-stroke" width="72" height="2.6"/>
		<rect id="XMLID_838_" x="34.4" y="314.9" class="energy-color figure-stroke" width="72" height="2.6"/>
		<rect id="XMLID_837_" x="34.4" y="327.6" class="energy-color figure-stroke" width="72" height="2.6"/>
		<rect id="XMLID_836_" x="34.4" y="340.4" class="energy-color figure-stroke" width="72" height="2.6"/>
		<rect id="XMLID_835_" x="34.4" y="353.3" class="energy-color figure-stroke" width="72" height="2.6"/>
		<rect id="XMLID_834_" x="34.4" y="366.1" class="energy-color figure-stroke" width="72" height="2.6"/>
		<rect id="XMLID_833_" x="34.4" y="378.8" class="energy-color figure-stroke" width="72" height="2.6"/>
		<rect id="XMLID_832_" x="34.4" y="391.6" class="energy-color figure-stroke" width="72" height="2.6"/>
		<rect id="XMLID_831_" x="34.4" y="403.7" class="energy-color figure-stroke" width="72" height="2.6"/>
		<rect id="XMLID_830_" x="34.4" y="415.8" class="energy-color figure-stroke" width="72" height="2.6"/>
		<rect id="XMLID_829_" x="34.4" y="427.9" class="energy-color figure-stroke" width="72" height="2.6"/>
		<rect id="XMLID_828_" x="34.4" y="439.9" class="energy-color figure-stroke" width="72" height="2.6"/>
		<rect id="XMLID_827_" x="34.4" y="452.1" class="energy-color figure-stroke" width="72" height="2.6"/>
		<rect id="XMLID_826_" x="34.4" y="464.1" class="energy-color figure-stroke" width="72" height="2.6"/>
		<rect id="XMLID_825_" x="34.4" y="476.2" class="energy-color figure-stroke" width="72" height="2.6"/>
		<rect id="XMLID_824_" x="34.4" y="488.3" class="energy-color figure-stroke" width="72" height="2.6"/>
		<rect id="XMLID_823_" x="34.4" y="500.4" class="energy-color figure-stroke" width="72" height="2.6"/>
		<rect id="XMLID_822_" x="34.4" y="512.4" class="energy-color figure-stroke" width="72" height="2.6"/>
	</g>
	<rect id="XMLID_820_" x="25.6" y="245.1" class="energy-color figure-stroke" width="86.8" height="6.3"/>
	<g id="XMLID_819_">
		<rect x="50.5" y="546.2" class="energy-color" width="37.1" height="30.9"/>
		<path class="figure-icon-circle" d="M87.1,546.7v29.9H51v-29.9H87.1 M88.1,545.7h-1H51h-1v1v29.9v1h1h36.1h1v-1v-29.9V545.7L88.1,545.7z"/>
	</g>
	<g id="XMLID_818_">
		<rect x="68.3" y="547.2" class="energy-color" width="1.5" height="30.2"/>
		<path class="figure-icon-circle" d="M69.3,547.7v29.2h-0.5v-29.2H69.3 M70.3,546.7h-2.4v31.1h2.4V546.7L70.3,546.7z"/>
	</g>
	<circle id="XMLID_817_" class="energy-color figure-stroke" cx="69" cy="203.8" r="2.4"/>
	<rect id="XMLID_816_" x="55.6" y="227.2" class="energy-color figure-stroke" width="28" height="15"/>
	<g id="XMLID_810_">
		<rect id="XMLID_815_" x="55.4" y="227.2" class="energy-color figure-stroke" width="2.4" height="15.2"/>
		<rect id="XMLID_814_" x="61.9" y="227.2" class="energy-color figure-stroke" width="2.4" height="15.2"/>
		<rect id="XMLID_813_" x="68.4" y="227.2" class="energy-color figure-stroke" width="2.4" height="15.2"/>
		<rect id="XMLID_812_" x="74.9" y="227.2" class="energy-color figure-stroke" width="2.4" height="15.2"/>
		<rect id="XMLID_811_" x="81.4" y="227.2" class="energy-color figure-stroke" width="2.4" height="15.2"/>
	</g>
</g>
</svg>
