<?xml version="1.0" encoding="utf-8"?>
<!-- Generator: Adobe Illustrator 19.0.0, SVG Export Plug-In . SVG Version: 6.00 Build 0)  -->
<?xml-stylesheet href="../css/svg-style.css" type="text/css"?>
<svg version="1.1" id="Layer_1" xmlns="http://www.w3.org/2000/svg" xmlns:xlink="http://www.w3.org/1999/xlink" x="0px" y="0px"
	 viewBox="-52 178.1 490.6 485.8" style="enable-background:new -52 178.1 490.6 485.8;" xml:space="preserve">
<circle class="dashed-cricle rotate-clockwise" cx="194.3" cy="421" r="205.1"/>
<g id="Palace">
	<rect id="XMLID_984_" x="72.1" y="401.4" class="gov-color figure-stroke" width="241.2" height="122"/>
	<rect id="XMLID_982_" x="32.9" y="502.9" class="gov-color figure-stroke" width="320.5" height="20.5"/>
	<path id="XMLID_981_" class="gov-color figure-stroke" d="M194.5,506.5H194c0,0-32.9,0.5-38.3,2.8v14.1h73.9v-14.1C223.4,507,194.5,506.5,194.5,506.5z"
		/>
	<path id="XMLID_980_" class="gov-color figure-stroke" d="M191.7,513.6h0.4c0,0,25.9-1.1,28.6-3.3v-11.8h-59.6v11.8
		C164.6,512.5,191.7,513.6,191.7,513.6z"/>
	<g id="XMLID_1995_">
		<path id="XMLID_979_" class="gov-color figure-stroke" d="M360.5,412c0-3.4-8-4.3-8-4.3h-52.8c0,0-8,0.9-8,4.3c0,0-2.2,3.4,4.8,4.9
			c0,0,22.3,2.9,22.3,32.4s0,74.1,0,74.1h7.4h6c0,0,0-44.7,0-74.1c0-29.5,23-32.4,23-32.4C362,415.3,360.5,412,360.5,412z"/>
	</g>
	<g id="XMLID_1991_">
		<path id="XMLID_972_" class="gov-color figure-stroke" d="M276.4,412c0-3.4-8-4.3-8-4.3h-52.8c0,0-8,0.9-8,4.3c0,0-0.7,3.4,6.3,4.9
			c0,0,23.8,2.9,23.8,32.4s0,74.1,0,74.1h4.4h4.5c0,0,0-44.7,0-74.1c0-29.5,23.7-32.4,23.7-32.4C277.2,415.3,276.4,412,276.4,412z"
			/>
	</g>
	<g id="XMLID_1987_">
		<path id="XMLID_969_" class="gov-color figure-stroke" d="M26.6,412c0-3.4,8-4.3,8-4.3h52.8c0,0,8,0.9,8,4.3c0,0,0.5,3.4-6.5,4.9
			c0,0-23.9,2.9-23.9,32.4s0,74.1,0,74.1h-4h-8.5c0,0,0-44.7,0-74.1c0-29.5-21.7-32.4-21.7-32.4C23.7,415.3,26.6,412,26.6,412z"/>
	</g>
	<g id="XMLID_1983_">
		<path id="XMLID_966_" class="gov-color figure-stroke" d="M110.6,412c0-3.4,8-4.3,8-4.3h52.8c0,0,8,0.9,8,4.3c0,0,0.8,3.4-6.2,4.9
			c0,0-23.7,2.9-23.7,32.4s0,74.1,0,74.1H145h-4.4c0,0,0-44.7,0-74.1c0-29.5-23.8-32.4-23.8-32.4C109.8,415.3,110.6,412,110.6,412z"
			/>
	</g>
	<path id="XMLID_963_" class="gov-color figure-stroke" d="M282.8,413.9c0,0-19.9,2.8-21.2,28.3c-1.3,25.5-2.5,60.8-2.5,60.8h47.3c0,0-1.3-34.4-2.5-60.8
		C303,416.7,282.8,413.9,282.8,413.9z"/>
	<path id="XMLID_961_" class="gov-color figure-stroke" d="M102.8,413.9c0,0-19.9,2.8-21.2,28.3c-1.3,25.5-2.5,60.8-2.5,60.8h47.3c0,0-1.3-34.4-2.5-60.8
		C122.9,416.7,102.8,413.9,102.8,413.9z"/>
	<path id="XMLID_956_" class="gov-color figure-stroke" d="M214.5,454.5c0-10.9,0.6-28.9-9.6-35.5c-6.1-3.9-9.3-9-10.8-11.6l-0.4-0.6l-0.4,0.8
		c-1.3,2.6-4.6,8-10.8,11.8c-9.8,6.1-9.6,24-9.6,35.1c0,10.9-1.2,44-1.2,44h21.9h21.9C215.6,498.5,214.5,465.5,214.5,454.5z"/>
	<path id="XMLID_955_" class="gov-color figure-stroke" d="M208.1,449.3c0.2-17-14.3-21.6-14.3-21.6s-14.6,4.6-14.3,21.6c0.3,17-1.4,45.6-1.4,45.6h15.8
		h15.8C209.5,494.9,207.9,466.3,208.1,449.3z"/>
</g>
<g id="Icons" class="rotate-clockwise">
	<circle id="XMLID_523_" class="st2" cx="194.3" cy="215.9" r="33.5" fill="none"/>
	<g class="rotate-counter-clockwise">
		<circle id="XMLID_126_" class="figure-icon-circle" cx="399.5" cy="421" r="33.5"/>
		<g id="XMLID_1545_">
			<path id="XMLID_1546_" class="gov-color" d="M394.8,426.1c0,0.9-0.3,1.7-0.9,2.4c-0.6,0.7-1.3,1.3-2.2,1.7c-0.9,0.4-1.8,0.7-2.7,0.9
				s-1.8,0.3-2.6,0.3c-0.8,0-1.7-0.1-2.6-0.3c-0.9-0.2-1.8-0.5-2.7-0.9c-0.9-0.4-1.6-1-2.2-1.7c-0.6-0.7-0.9-1.5-0.9-2.4
				c0-0.1,0.2-0.6,0.6-1.5c0.4-0.9,1-1.9,1.7-3.2c0.7-1.3,1.4-2.5,2-3.6c0.6-1.1,1.2-2.2,1.9-3.4c0.7-1.2,1-1.8,1-1.8
				c0.2-0.4,0.6-0.6,1-0.6c0.4,0,0.8,0.2,1,0.6c0,0.1,0.4,0.7,1,1.8c0.6,1.1,1.3,2.3,1.9,3.4c0.6,1.1,1.3,2.3,2,3.6
				c0.7,1.3,1.3,2.4,1.7,3.2S394.8,425.9,394.8,426.1z M386.5,413.1l-7.1,13h14.1L386.5,413.1z M401.6,409.6
				c-0.2,0.5-0.5,0.9-0.8,1.3s-0.8,0.7-1.3,0.8v23.8h11.2c0.2,0,0.3,0.1,0.4,0.2c0.1,0.1,0.2,0.3,0.2,0.4v1.2c0,0.2-0.1,0.3-0.2,0.4
				c-0.1,0.1-0.3,0.2-0.4,0.2H386c-0.2,0-0.3-0.1-0.4-0.2c-0.1-0.1-0.2-0.3-0.2-0.4v-1.2c0-0.2,0.1-0.3,0.2-0.4
				c0.1-0.1,0.3-0.2,0.4-0.2h11.2v-23.8c-0.5-0.2-0.9-0.5-1.3-0.8c-0.4-0.3-0.7-0.8-0.8-1.3h-9c-0.2,0-0.3-0.1-0.4-0.2
				c-0.1-0.1-0.2-0.3-0.2-0.4v-1.2c0-0.2,0.1-0.3,0.2-0.4c0.1-0.1,0.3-0.2,0.4-0.2h9c0.3-0.7,0.7-1.3,1.3-1.7s1.3-0.7,2-0.7
				c0.8,0,1.4,0.2,2,0.7c0.6,0.5,1,1,1.3,1.7h9c0.2,0,0.3,0.1,0.4,0.2c0.1,0.1,0.2,0.3,0.2,0.4v1.2c0,0.2-0.1,0.3-0.2,0.4
				c-0.1,0.1-0.3,0.2-0.4,0.2H401.6L401.6,409.6z M397.3,409.4c0.3,0.3,0.6,0.4,1,0.4c0.4,0,0.8-0.1,1-0.4c0.3-0.3,0.4-0.6,0.4-1
				s-0.1-0.8-0.4-1c-0.3-0.3-0.6-0.4-1-0.4c-0.4,0-0.8,0.1-1,0.4c-0.3,0.3-0.4,0.6-0.4,1S397,409.1,397.3,409.4z M418.3,426.1
				c0,0.9-0.3,1.7-0.9,2.4c-0.6,0.7-1.3,1.3-2.2,1.7c-0.9,0.4-1.8,0.7-2.7,0.9s-1.8,0.3-2.6,0.3c-0.8,0-1.7-0.1-2.6-0.3
				c-0.9-0.2-1.8-0.5-2.7-0.9s-1.6-1-2.2-1.7c-0.6-0.7-0.9-1.5-0.9-2.4c0-0.1,0.2-0.6,0.6-1.5c0.4-0.9,1-1.9,1.7-3.2
				c0.7-1.3,1.4-2.5,2-3.6c0.6-1.1,1.2-2.2,1.9-3.4c0.7-1.2,1-1.8,1-1.8c0.2-0.4,0.6-0.6,1-0.6c0.4,0,0.8,0.2,1,0.6
				c0,0.1,0.4,0.7,1,1.8c0.6,1.1,1.3,2.3,1.9,3.4c0.6,1.1,1.3,2.3,2,3.6c0.7,1.3,1.3,2.4,1.7,3.2S418.3,425.9,418.3,426.1z
				 M410,413.1l-7.1,13H417L410,413.1z"/>
		</g>
	</g>
	<g class="rotate-counter-clockwise">
		<circle id="XMLID_408_" class="figure-icon-circle" cx="194.3" cy="626.6" r="33.5"/>
		<g id="XMLID_1541_">
			<path id="XMLID_1542_" class="gov-color" d="M206.1,614v14.1c0,1.1-0.2,2.1-0.6,3.1s-0.9,2-1.5,2.8s-1.3,1.6-2.2,2.3s-1.6,1.4-2.3,1.9
				s-1.5,1-2.2,1.4s-1.3,0.8-1.6,0.9c-0.3,0.2-0.6,0.3-0.8,0.4c-0.1,0.1-0.3,0.1-0.5,0.1s-0.3,0-0.5-0.1s-0.5-0.2-0.8-0.4
				s-0.9-0.5-1.6-0.9s-1.5-0.9-2.2-1.4s-1.5-1.1-2.3-1.9s-1.6-1.5-2.2-2.3s-1.1-1.7-1.5-2.8c-0.4-1-0.6-2.1-0.6-3.1V614
				c0-0.3,0.1-0.6,0.3-0.8s0.5-0.4,0.8-0.4H205c0.3,0,0.6,0.1,0.8,0.4C206,613.5,206.1,613.7,206.1,614z M202.6,628.2v-11.8h-8.3
				v20.9c1.5-0.8,2.8-1.6,3.9-2.5C201.2,632.6,202.6,630.4,202.6,628.2z"/>
		</g>
	</g>
	<g class="rotate-counter-clockwise">
		<circle id="XMLID_190_" class="figure-icon-circle" cx="-10.7" cy="421" r="33.5"/>
		<g id="XMLID_1536_">
			<path id="XMLID_1537_" class="gov-color" d="M-20.3,404.8c3-1.7,6.2-2.6,9.7-2.6s6.7,0.9,9.7,2.6s5.3,4.1,7,7c1.7,3,2.6,6.2,2.6,9.7
				s-0.9,6.7-2.6,9.7s-4.1,5.3-7,7c-3,1.7-6.2,2.6-9.7,2.6s-6.7-0.9-9.7-2.6s-5.3-4.1-7-7c-1.7-3-2.6-6.2-2.6-9.7s0.9-6.7,2.6-9.7
				C-25.6,408.9-23.3,406.6-20.3,404.8z M-3.8,415.3c0,0-0.1,0.1-0.2,0.2c-0.1,0.1-0.2,0.2-0.3,0.2c0,0,0.1,0,0.1-0.1
				s0.1-0.2,0.1-0.3s0.1-0.2,0.1-0.2c0.1-0.1,0.3-0.2,0.6-0.4c0.2-0.1,0.7-0.2,1.3-0.3c0.6-0.1,1,0,1.3,0.3c0,0,0-0.1,0.2-0.3
				c0.2-0.2,0.3-0.3,0.4-0.3c0,0,0.2-0.1,0.4-0.1c0.2,0,0.3-0.1,0.4-0.2v-0.6c-0.2,0-0.3,0-0.4-0.2c-0.1-0.1-0.1-0.3-0.2-0.5
				c0,0,0,0.1-0.2,0.2c0-0.1,0-0.2-0.1-0.2s-0.2,0-0.3,0s-0.2,0-0.2,0c-0.2-0.1-0.3-0.1-0.4-0.2s-0.2-0.2-0.2-0.4
				c-0.1-0.2-0.1-0.3-0.1-0.4s-0.1-0.2-0.2-0.3c-0.1-0.1-0.2-0.2-0.2-0.3c0,0,0-0.1-0.1-0.1c0-0.1,0-0.1-0.1-0.2s-0.1-0.1-0.1-0.1
				l-0.1-0.1c-0.1,0-0.1,0-0.2,0.1s-0.1,0.2-0.2,0.3c-0.1,0.1-0.1,0.1-0.1,0.1s-0.1,0-0.2,0s-0.1,0-0.1,0s-0.1,0-0.1,0.1l-0.1,0.1
				c-0.1,0-0.1,0.1-0.2,0.1s-0.2,0-0.2,0.1c0.3-0.1,0.2-0.2,0-0.3c-0.2-0.1-0.3-0.1-0.4-0.1c0.2-0.1,0.2-0.2,0.2-0.3
				c0-0.1-0.1-0.3-0.2-0.4H-4c0-0.1-0.1-0.1-0.2-0.2s-0.3-0.1-0.4-0.2c-0.2-0.1-0.3-0.1-0.3-0.2c-0.1-0.1-0.4-0.2-0.9-0.2
				c-0.4-0.1-0.7-0.1-0.8,0s-0.1,0.2-0.1,0.3c0,0.1,0,0.2,0.1,0.4c0.1,0.2,0.1,0.3,0.1,0.3c0,0.1,0,0.2-0.1,0.3
				c-0.1,0.1-0.2,0.2-0.2,0.3c0,0.1,0.1,0.2,0.4,0.4c0.2,0.1,0.3,0.3,0.3,0.5c0,0.1-0.2,0.3-0.4,0.4s-0.4,0.2-0.4,0.3
				c-0.1,0.1-0.1,0.3,0,0.5s0.1,0.3,0.3,0.4v0.1c0,0,0,0.1-0.1,0.1l-0.1,0.1c0,0-0.1,0.1-0.2,0.1l-0.1,0.1c-0.2,0.1-0.4,0-0.5-0.2
				c-0.2-0.2-0.3-0.4-0.3-0.7c-0.1-0.4-0.3-0.7-0.4-0.8c-0.4-0.1-0.6-0.1-0.7,0c-0.1-0.2-0.4-0.4-1-0.7c-0.4-0.2-0.9-0.2-1.5-0.1
				c0.1,0,0.1-0.1,0-0.4s-0.3-0.4-0.5-0.3c0-0.1,0.1-0.2,0.1-0.4c0-0.2,0-0.3,0-0.3c0-0.2,0.2-0.4,0.3-0.6c0,0,0.1-0.1,0.2-0.2
				c0.1-0.1,0.2-0.2,0.2-0.3c0.1-0.1,0.1-0.2,0-0.2c0.6,0.1,1,0,1.3-0.3c0.1-0.1,0.2-0.2,0.3-0.4c0.1-0.2,0.2-0.3,0.3-0.4
				c0.2-0.1,0.3-0.1,0.4-0.1s0.2,0.1,0.4,0.1c0.2,0.1,0.3,0.1,0.4,0.1c0.2,0,0.4-0.1,0.4-0.3c0-0.2,0-0.4-0.2-0.5
				c0.2,0,0.2-0.1,0.1-0.4c-0.1-0.1-0.2-0.2-0.2-0.2c-0.2-0.1-0.4,0-0.7,0.1c-0.1,0.1-0.1,0.1,0.1,0.2c0,0-0.1,0.1-0.2,0.3
				c-0.1,0.2-0.3,0.3-0.4,0.4s-0.3,0.1-0.4-0.1c0,0-0.1-0.1-0.1-0.3s-0.2-0.3-0.2-0.3c-0.1,0-0.3,0.1-0.4,0.4c0-0.1,0-0.3-0.3-0.4
				c-0.2-0.1-0.4-0.2-0.6-0.2c0.3-0.2,0.3-0.4-0.2-0.7c-0.1-0.1-0.3-0.1-0.5-0.1s-0.4,0-0.5,0.1s-0.1,0.2-0.1,0.3
				c0,0.1,0,0.1,0.1,0.2s0.2,0.1,0.3,0.1s0.2,0.1,0.3,0.1s0.2,0.1,0.2,0.1c0.2,0.2,0.3,0.3,0.2,0.4c0,0-0.1,0-0.2,0.1
				c-0.1,0-0.2,0.1-0.3,0.1s-0.1,0.1-0.2,0.1c-0.1,0.1-0.1,0.2,0,0.4c0,0.2,0,0.3-0.1,0.4c-0.1-0.1-0.2-0.2-0.2-0.4
				c-0.1-0.2-0.1-0.3-0.2-0.4c0.1,0.2-0.1,0.2-0.6,0.2h-0.3c-0.1,0-0.2,0-0.4,0.1c-0.2,0-0.4,0-0.5,0s-0.3-0.1-0.3-0.2
				c-0.1-0.1-0.1-0.3,0-0.5c0-0.1,0.1-0.1,0.1-0.1c-0.1-0.1-0.2-0.1-0.3-0.2s-0.2-0.2-0.3-0.2c-0.8,0.3-1.6,0.6-2.4,1
				c0.1,0,0.2,0,0.3,0s0.2-0.1,0.3-0.2s0.2-0.1,0.3-0.1c0.6-0.2,0.9-0.3,1.1-0.2l0.1-0.1c0.2,0.3,0.4,0.5,0.5,0.6
				c-0.1-0.1-0.4-0.1-0.8,0c-0.3,0.1-0.5,0.2-0.6,0.3c0.1,0.2,0.2,0.4,0.1,0.5c-0.1-0.1-0.2-0.1-0.3-0.3c-0.1-0.1-0.2-0.2-0.4-0.3
				c-0.1-0.1-0.2-0.1-0.4-0.1c-0.3,0-0.5,0-0.6,0c-2.4,1.3-4.4,3.2-5.9,5.6c0.1,0.1,0.2,0.2,0.3,0.2c0.1,0,0.1,0.1,0.1,0.2
				s0,0.2,0.1,0.3c0,0.1,0.1,0,0.3-0.1c0.2,0.1,0.2,0.3,0.1,0.5c0,0,0.4,0.2,1.1,0.7c0.3,0.3,0.5,0.5,0.5,0.5c0.1,0.2,0,0.3-0.3,0.5
				c0,0-0.1-0.1-0.2-0.2s-0.2-0.2-0.2-0.1s0,0.2,0,0.5c0.1,0.2,0.1,0.3,0.3,0.3c-0.1,0-0.2,0.1-0.2,0.4s-0.1,0.6-0.1,0.9
				s0,0.5,0,0.6l0,0c0,0.2,0,0.5,0.1,0.9c0.1,0.4,0.3,0.5,0.5,0.5c-0.2,0.1,0,0.4,0.5,1.1c0.1,0.1,0.2,0.2,0.2,0.2
				c0.1,0,0.2,0.1,0.3,0.2c0.2,0.1,0.3,0.2,0.4,0.3c0.1,0.1,0.2,0.2,0.3,0.3c0.1,0.1,0.2,0.3,0.3,0.6c0.1,0.3,0.2,0.5,0.4,0.6
				c0,0.1,0,0.3,0.2,0.5c0.2,0.2,0.3,0.4,0.3,0.6c0,0,0,0-0.1,0c-0.1,0,0,0-0.1,0c0,0.1,0.2,0.2,0.4,0.4c0.2,0.1,0.3,0.2,0.4,0.3
				c0,0.1,0,0.1,0,0.3c0,0.1,0,0.2,0.1,0.3c0,0.1,0.1,0.1,0.2,0.1c0-0.3-0.2-0.9-0.6-1.6c-0.3-0.4-0.4-0.7-0.4-0.7
				c-0.1-0.1-0.1-0.2-0.1-0.4s-0.1-0.3-0.1-0.4c0,0,0.1,0,0.2,0c0.1,0,0.1,0.1,0.2,0.1s0.1,0.1,0.2,0.1c0.1,0,0.1,0.1,0.1,0.1
				c-0.1,0.1,0,0.3,0,0.4s0.2,0.3,0.3,0.5c0.1,0.1,0.3,0.3,0.4,0.5c0.2,0.2,0.3,0.3,0.3,0.3c0.1,0.1,0.2,0.3,0.4,0.5
				c0.1,0.2,0.1,0.3,0,0.3c0.2,0,0.3,0.1,0.5,0.3c0.2,0.2,0.3,0.3,0.4,0.5c0.1,0.1,0.2,0.4,0.2,0.7c0,0.3,0.1,0.5,0.1,0.6
				s0.1,0.2,0.2,0.3c0.1,0.1,0.2,0.2,0.3,0.2c0.1,0.1,0.2,0.1,0.4,0.2s0.3,0.1,0.3,0.2c0.1,0,0.2,0.1,0.5,0.3
				c0.2,0.1,0.4,0.2,0.5,0.3c0.2,0.1,0.3,0.1,0.4,0.1c0.1,0,0.2,0,0.4-0.1c0.1,0,0.3-0.1,0.3-0.1c0.3,0,0.5,0.1,0.7,0.4
				s0.4,0.5,0.5,0.5c0.6,0.3,1.1,0.4,1.4,0.3c0,0,0,0.1,0,0.2s0.1,0.2,0.2,0.4c0.1,0.2,0.2,0.3,0.2,0.4c0.1,0.1,0.1,0.2,0.1,0.2
				c0.1,0.1,0.2,0.2,0.5,0.4c0.2,0.2,0.4,0.3,0.5,0.4c0.1-0.1,0.2-0.1,0.2-0.2c0,0.1,0,0.3,0.2,0.5s0.3,0.3,0.5,0.3
				c0.2-0.1,0.4-0.3,0.4-0.8c-0.5,0.3-0.9,0.1-1.2-0.5c0,0,0-0.1-0.1-0.1c0-0.1-0.1-0.1-0.1-0.2s0-0.1-0.1-0.2c0-0.1,0-0.1,0-0.2
				s0.1-0.1,0.1-0.1c0.2,0,0.2,0,0.3-0.1s0-0.2,0-0.3c-0.1-0.2-0.1-0.3-0.1-0.3c0-0.1-0.1-0.3-0.3-0.5c-0.2-0.2-0.3-0.3-0.3-0.4
				c-0.1,0.2-0.2,0.2-0.4,0.2s-0.3-0.1-0.4-0.2v0.1c0,0.1,0,0.1,0,0.2c-0.2,0-0.3,0-0.4,0c0,0,0-0.2,0.1-0.4c0-0.2,0.1-0.4,0.1-0.6
				c0-0.1,0.1-0.2,0.1-0.3c0.1-0.1,0.1-0.3,0.2-0.4s0.1-0.2,0.1-0.3c0-0.1,0-0.2-0.1-0.2c-0.1-0.1-0.2-0.1-0.4-0.1
				c-0.3,0-0.5,0.2-0.7,0.5c0,0.1,0,0.1-0.1,0.3c0,0.1-0.1,0.2-0.1,0.3c0,0.1-0.1,0.1-0.2,0.2c-0.1,0.1-0.3,0.1-0.6,0.1
				s-0.5-0.1-0.6-0.1c-0.2-0.1-0.4-0.4-0.6-0.7s-0.2-0.7-0.2-0.9c0-0.2,0-0.4,0.1-0.7c0.1-0.3,0.1-0.5,0.1-0.6s0-0.3-0.1-0.6
				c0,0,0.1-0.1,0.2-0.2c0.1-0.1,0.2-0.2,0.3-0.3h0.1h0.1h0.1c0,0,0.1-0.1,0.1-0.2c0,0-0.1,0-0.1-0.1c-0.1-0.1-0.1-0.1-0.1-0.1
				c0.1,0.1,0.4,0,0.7,0c0.4-0.1,0.6-0.1,0.7,0c0.3,0.2,0.4,0.2,0.6-0.1c0,0,0-0.1-0.1-0.2c0-0.1,0-0.3,0-0.3
				c0.1,0.5,0.3,0.5,0.7,0.2c0.1,0.1,0.2,0.1,0.4,0.1c0.2,0,0.4,0.1,0.4,0.1s0.1,0.1,0.2,0.1c0.1,0.1,0.1,0.1,0.1,0.1h0.1
				c0.1,0,0.1-0.1,0.2-0.2c0.2,0.2,0.3,0.4,0.3,0.6c0.2,0.7,0.3,1,0.5,1.1c0.1,0.1,0.2,0.1,0.3,0.1c0.1,0,0.1-0.1,0.1-0.2
				s0-0.3,0-0.4s0-0.2,0-0.3v-0.2c0-0.2,0-0.3,0-0.5v-0.2c-0.3-0.1-0.4-0.2-0.5-0.3c-0.1-0.2,0-0.3,0-0.5c0.1-0.2,0.2-0.3,0.4-0.5
				c0,0,0.1,0,0.2-0.1c0.1,0,0.2-0.1,0.4-0.2c0.1-0.1,0.2-0.1,0.3-0.2c0.4-0.3,0.5-0.6,0.4-0.9c0.1,0,0.2-0.1,0.3-0.2
				c0,0-0.1,0-0.1-0.1c-0.1-0.1-0.1-0.1-0.2-0.1s-0.1-0.1-0.1-0.1c0.2-0.1,0.2-0.2,0-0.4c0.1-0.1,0.1-0.1,0.2-0.3s0.1-0.2,0.2-0.3
				c0.2,0.2,0.3,0.2,0.5,0.1c0.1-0.1,0.1-0.3,0-0.4c0.1-0.1,0.3-0.2,0.5-0.3c0.3-0.1,0.4-0.1,0.5-0.2c0.1,0,0.2,0,0.2-0.1
				s0-0.2,0-0.3c0-0.1,0-0.2,0.1-0.3c0.1-0.1,0.2-0.2,0.4-0.2c0.2-0.1,0.3-0.1,0.3-0.1l0.4-0.3c0.1-0.1,0.1-0.1,0-0.1
				c0.3,0,0.6-0.1,0.8-0.3c0.2-0.2,0.1-0.4-0.2-0.5c0.1-0.1,0-0.2-0.1-0.2c-0.1-0.1-0.2-0.1-0.4-0.1c0.1,0,0.1,0,0.3,0
				c0.1,0,0.2,0,0.3,0c0.3-0.2,0.2-0.3-0.2-0.4C-3,415-3.3,415.1-3.8,415.3z M-7.9,437.4c3.4-0.6,6.4-2.2,8.8-4.7
				c-0.1-0.1-0.2-0.1-0.3-0.1c-0.2,0-0.3-0.1-0.3-0.1c-0.3-0.1-0.5-0.2-0.6-0.2c0-0.1,0-0.2-0.1-0.3c-0.1-0.1-0.1-0.2-0.2-0.2
				s-0.2-0.1-0.3-0.2s-0.2-0.1-0.3-0.2c0,0-0.1-0.1-0.2-0.2s-0.1-0.1-0.2-0.1c0,0-0.1-0.1-0.2-0.1s-0.2-0.1-0.2-0.1
				c-0.1,0-0.1,0-0.3,0h-0.1c-0.1,0-0.1,0-0.1,0.1l-0.1,0.1c-0.1,0-0.1,0.1-0.1,0.1s0,0,0,0.1c-0.4-0.3-0.7-0.5-0.9-0.6
				c-0.1,0-0.2-0.1-0.3-0.1c-0.1-0.1-0.2-0.1-0.3-0.2s-0.2-0.1-0.3,0c-0.1,0-0.2,0.1-0.3,0.2s-0.1,0.2-0.2,0.4c0,0.2,0,0.3,0,0.3
				c-0.1-0.1-0.1-0.2,0-0.4c0.1-0.2,0.1-0.4,0-0.5c0-0.1-0.1-0.1-0.3-0.1c-0.1,0-0.2,0.1-0.3,0.1c-0.1,0.1-0.2,0.1-0.3,0.2
				s-0.2,0.1-0.2,0.2c0,0-0.1,0.1-0.2,0.1c-0.1,0.1-0.2,0.1-0.2,0.2s-0.1,0.2-0.2,0.3c0,0.1-0.1,0.2-0.1,0.3c0-0.1-0.1-0.1-0.3-0.2
				c-0.2,0-0.2-0.1-0.2-0.1c0,0.2,0.1,0.5,0.1,0.9s0.1,0.7,0.1,1c0.1,0.5,0,0.9-0.3,1.2c-0.5,0.4-0.7,0.8-0.7,1
				c-0.1,0.4,0,0.6,0.3,0.7c0,0.1-0.1,0.3-0.2,0.5s-0.2,0.4-0.2,0.5C-7.9,437.1-7.9,437.2-7.9,437.4z"/>
		</g>
	</g>
</g>
<g id="Palace_Top">
	<rect id="XMLID_959_" x="22.8" y="387.2" class="gov-color figure-stroke" width="336.4" height="19.6"/>
	<rect id="XMLID_958_" x="1.3" y="373.2" class="gov-color figure-stroke" width="384" height="22.4"/>
	<rect id="XMLID_957_" x="-16.5" y="359.1" class="gov-color figure-stroke" width="419.5" height="24.3"/>
</g>
<g id="Flag">
	<g id="XMLID_4361_">
		<rect id="XMLID_3746_" x="190.2" y="243.6" class="gov-color figure-stroke" width="3.9" height="115.5"/>
		<circle id="XMLID_3744_" class="gov-color figure-stroke" cx="192.1" cy="241.4" r="3.7"/>
	</g>
	<g id="XMLID_3749_" class="flag-movement">
		<path id="XMLID_89_" class="gov-color figure-stroke" d="M136.2,245.4c0,0.9,0,1.7,0,2.6s0,1.7,0,2.6s0,1.7,0,2.6s0,1.7,0,2.6c10-5.2,26.6,0.5,36.6,3
			c0-0.9,0-1.7,0-2.6s0-1.7,0-2.6s0-1.7,0-2.6s0-1.7,0-2.6C162.8,245.8,146.2,240.1,136.2,245.4z"/>
		<path id="XMLID_90_" class="gov-color figure-stroke" d="M136.2,268.5c0,0.9,0,1.7,0,2.6s0,1.7,0,2.6s0,1.7,0,2.6s0,1.7,0,2.6c18-9.4,36,9.4,54.1,0
			c0-0.9,0-1.7,0-2.6s0-1.7,0-2.6s0-1.7,0-2.6s0-1.7,0-2.6C172.2,277.9,154.2,259.2,136.2,268.5z"/>
		<path id="XMLID_88_" class="gov-color figure-stroke" d="M136.2,263.4c0,0.9,0,1.7,0,2.6s0,1.7,0,2.6c12.2-6.3,24.4,0.2,36.6,2.2c0,3.4,0,6.9,0,10.3
			c8.8,1.7,9.5,1.6,17.4-2.2c0-3.4,0-6.8,0-10.3l0,0c0-0.9,0-1.7,0-2.6s0-1.7,0-2.6l0,0c0-6.1,0-12.1,0-18c-6.6,3.3-8.9,5.5-17.4,3
			c0,3.4,0,6.9,0,10.3c-10-2.5-26.6-8.2-36.6-3c0,0.9,0,1.7,0,2.6s0,1.7,0,2.6C136.2,261.7,136.2,262.5,136.2,263.4"/>
		<path id="XMLID_1957_" class="gov-color figure-stroke figure-stroke-flag" d="M184.1,257.9L184.1,257.9c-0.6-0.4-1.2-0.9-2-1.7c-0.2-0.2-0.3-0.3-0.4-0.5
			c0-0.1,0-0.1,0-0.2l0,0l0,0v-0.1l0,0l0,0v-0.1l0,0v-0.1v-0.1c0.1-0.2,0.3-0.3,0.4-0.5h0.1v0.1c0,0.1,0.2,0.3,0.4,0.3
			s0.4-0.1,0.4-0.2h0.2v0.2c0,0.1,0.1,0.2,0.2,0.2h1.6c0.1,0,0.2-0.1,0.2-0.2v-0.8c0-0.1-0.1-0.2-0.2-0.2h-1.6
			c-0.1,0-0.2,0.1-0.2,0.2v0.1H183c0-0.1-0.2-0.2-0.4-0.2l0,0c1.1-1.8,1.8-3.4,1.6-3.5s-1.2,1.3-2.3,3.2h0.1
			c-0.1,0.1-0.1,0.2-0.2,0.3V254v-0.2v-0.2v-0.1v-0.1v-0.2l0,0V253c-0.2,0-0.4-0.1-0.4-0.3h-0.1v-0.3h-0.1v-0.3v-0.3l0,0v-0.4l0,0
			v-0.2h0.1c0.1,0,0.1,0,0.2-0.1l0,0c0.1,0,0.1-0.1,0.1-0.1l0,0c0.1,0,0.2-0.1,0.2-0.1c0-0.1-0.1-0.1-0.2-0.1l0,0
			c0-0.1-0.1-0.1-0.1-0.2l0,0c0,0-0.1-0.1-0.2-0.1c0,0-0.1,0-0.2,0l0,0c0-0.1-0.1-0.1-0.2-0.1s-0.2,0.1-0.2,0.1l0,0
			c-0.1,0-0.1,0-0.2,0s-0.1,0-0.2,0.1l0,0c-0.1,0-0.1,0.1-0.1,0.2l0,0c-0.1,0-0.2,0.1-0.2,0.1c0,0.1,0.1,0.1,0.2,0.1l0,0l0.1,0.1l0,0
			c0,0,0.1,0.1,0.2,0.1l0,0v0.2l0,0v0.4h-0.1v0.3v0.3h-0.1v0.3h-0.1c0,0.1-0.1,0.3-0.4,0.3v0.1v0.1v0.1v0.1v0.1v0.2v0.2v0.1
			c-0.1-0.1-0.2-0.2-0.2-0.3h0.1c-1.1-1.8-2.1-3.3-2.3-3.2c-0.2,0.1,0.5,1.6,1.6,3.5l0,0c-0.2,0-0.4,0.1-0.4,0.2h-0.2v-0.1
			c0-0.1-0.1-0.2-0.2-0.2h-1.6c-0.1,0-0.2,0.1-0.2,0.2v0.8c0,0.1,0.1,0.2,0.2,0.2h1.6c0.1,0,0.2-0.1,0.2-0.2v-0.2h0.2
			c0.1,0.1,0.2,0.2,0.4,0.2s0.4-0.1,0.4-0.2c0,0,0.1,0.1,0.2,0.1l0,0c0.1,0.1,0.1,0.2,0.2,0.3c0,0,0,0,0,0.1s0,0.2-0.1,0.2h-0.2l0,0
			c-0.1,0-0.2,0-0.4,0c-0.1,0-0.2,0-0.3,0s-0.1,0-0.2,0c-0.2,0-0.4,0-0.6,0c-0.1,0-0.2,0-0.2,0h-0.1l0,0h-0.3l0,0
			c-0.4,0.1-0.8,0.1-0.8,0.3c0,0.2,0.3,0.3,0.8,0.5l0,0l0.3,0.1l0,0c0.1,0,0.3,0.1,0.5,0.1c0.1,0,0.1,0,0.2,0c0.1,0,0.2,0,0.3,0.1
			c0.1,0,0.1,0,0.2,0c0.1,0,0.1,0,0.2,0c-0.6,0.6-1.1,1-1.6,1.4h-0.1c-0.6,0.7-1.3,1-1.1,1.1s1.1-0.2,1.9-0.9l0,0
			c0.5-0.4,1.1-0.9,1.7-1.5c0,0,0,0,0.1,0l0,0l0,0h0.1c0.1,0,0.2,0,0.3,0l0,0c0.1,0,0.2-0.1,0.3-0.1l0,0l0,0h0.1
			c0.1,0,0.1-0.1,0.2-0.1c0,0,0,0,0.1,0.1c0.7,0.7,1.3,1.3,1.9,1.7l0,0c0.8,0.8,1.7,1.1,1.9,0.9C185.5,258.9,184.8,258.6,184.1,257.9
			z M180.2,254.1L180.2,254.1L180.2,254.1L180.2,254.1L180.2,254.1z M180.1,256.7C180.1,256.6,180.1,256.6,180.1,256.7
			C180.1,256.6,180.1,256.6,180.1,256.7L180.1,256.7L180.1,256.7z"/>
		<!-- <animateTransform attributeName="transform" type="skewX" from="0" to="-10 20" begin="0s" dur="10s" repeatDur="10"/> -->
	</g>
</g>

</svg>
