<?xml version="1.0" encoding="utf-8"?>
<!-- Generator: Adobe Illustrator 19.0.0, SVG Export Plug-In . SVG Version: 6.00 Build 0)  -->
<svg version="1.1" id="Layer_1" xmlns="http://www.w3.org/2000/svg" xmlns:xlink="http://www.w3.org/1999/xlink" x="0px" y="0px"
	 viewBox="0 0 128.8 63.4" style="enable-background:new 0 0 128.8 63.4;" xml:space="preserve">
<style type="text/css">
	.st0{fill:#56A8BD;}
	.st1{fill:#FFFFFF;}
	.st2{fill:#0E5B70;}
</style>
<g id="XMLID_28_">
	<path id="XMLID_59_" class="st0" d="M-0.2,43.6v-2.8h128.8v2.8H-0.2z M124.6,27c0.3,0.3,0.7,0.4,1.5,0.4c0.7,0,1.3-0.1,1.6-0.2V30
		c-1,0.2-1.9,0.3-2.7,0.3c-1.3,0-2.3-0.3-3-0.9c-0.7-0.6-1-1.4-1-2.5V11.1h-2.9V8.4h2.9V2.7h3.3v5.8h3.4v2.7h-3.4v14.4
		C124.3,26.2,124.4,26.7,124.6,27z M110.9,19c-0.6,0.3-1.4,0.5-2.4,0.7c-1,0.2-1.9,0.3-2.8,0.5c-0.9,0.1-1.7,0.3-2.5,0.6
		c-0.8,0.2-1.5,0.6-2,1.2c-0.5,0.5-0.7,1.3-0.7,2.1c0,1.1,0.4,1.9,1.1,2.5c0.7,0.6,1.7,0.9,3,0.9c1.8,0,3.3-0.5,4.5-1.5
		c1.2-1,1.8-2,1.8-3.2V19z M114.4,30.3c-1.1,0-1.9-0.2-2.4-0.7c-0.5-0.5-0.9-1.3-1-2.3c-1.2,1.1-2.3,1.9-3.5,2.3
		c-1.1,0.5-2.4,0.7-3.7,0.7c-2.1,0-3.8-0.6-5-1.7C97.6,27.5,97,26,97,24.1c0-2.3,0.8-4,2.4-5c1.1-0.7,3-1.2,5.8-1.6
		c0.4,0,1.1-0.1,2.2-0.3c1.3-0.2,2.2-0.4,2.7-0.8c0.5-0.3,0.8-0.9,0.8-1.6V14c0-1-0.4-1.8-1.2-2.3c-0.8-0.5-2-0.8-3.5-0.8
		c-1.6,0-2.7,0.3-3.5,0.9c-0.8,0.6-1.2,1.5-1.4,2.8H98c0-1.1,0.2-2,0.6-2.9c0.4-0.8,0.8-1.5,1.3-2c0.5-0.5,1.2-0.9,1.9-1.2
		c0.8-0.3,1.5-0.5,2.2-0.6c0.7-0.1,1.5-0.2,2.3-0.2c2.6,0,4.6,0.5,5.9,1.5c1.3,1,2,2.4,2,4.3v12.3c0,0.5,0.2,0.9,0.5,1.2
		c0.3,0.3,0.8,0.4,1.3,0.4c0.2,0,0.5,0,0.7-0.1v2.5C115.8,30.2,115.1,30.3,114.4,30.3z M89.2,12.1c-0.9-0.8-2-1.2-3.4-1.2
		c-1.8,0-3.2,0.7-4.3,2.2c-1,1.5-1.5,3.5-1.5,6.1c0,2.5,0.5,4.4,1.6,5.8c1.1,1.4,2.5,2.1,4.3,2.1c2.8,0,4.5-1.7,5.1-5h3.4
		c-0.2,2.6-1.1,4.6-2.6,6c-1.5,1.4-3.5,2.1-6,2.1c-2.8,0-5.1-1-6.8-3c-1.7-2-2.5-4.7-2.5-8.1c0-3.5,0.8-6.2,2.5-8.3
		c1.7-2.1,4-3.1,6.8-3.1c2.4,0,4.4,0.7,5.8,2c1.4,1.3,2.3,3.2,2.5,5.7h-3.4C90.6,14,90.1,12.9,89.2,12.1z M65.2,10.9
		c-1.4,0-2.4,0.3-3.3,0.9c-0.8,0.6-1.2,1.3-1.2,2.3c0,0.7,0.3,1.3,0.9,1.8c0.6,0.5,1.6,0.9,3,1.2l3.2,0.7c2.1,0.5,3.6,1.2,4.5,2.2
		c0.9,0.9,1.4,2.2,1.4,3.7c0,2-0.8,3.6-2.3,4.8c-1.6,1.2-3.7,1.8-6.3,1.8c-2.7,0-4.8-0.6-6.2-1.8c-1.4-1.2-2.1-3-2.2-5.4h3.5
		c0.1,0.5,0.1,0.9,0.2,1.2c0.1,0.3,0.3,0.7,0.5,1.1c0.2,0.4,0.5,0.7,0.9,0.9c0.3,0.2,0.8,0.4,1.4,0.6c0.6,0.2,1.3,0.2,2.1,0.2
		c1.5,0,2.6-0.3,3.5-0.9c0.9-0.6,1.4-1.4,1.4-2.4c0-0.8-0.3-1.4-0.8-1.8C69,21.7,68.1,21.3,67,21l-3.1-0.7c-2.5-0.6-4.2-1.3-5.2-2.2
		c-1-0.9-1.5-2.2-1.5-3.8c0-1.9,0.7-3.5,2.2-4.7c1.5-1.2,3.4-1.7,5.8-1.7c2.4,0,4.3,0.6,5.6,1.7c1.3,1.1,2,2.7,2,4.8h-3.5
		C69.2,12,67.8,10.9,65.2,10.9z M49.4,29.4v-2.9c-1,1.4-2,2.4-3.1,3c-1.1,0.6-2.4,0.9-3.9,0.9c-2,0-3.7-0.5-4.9-1.6
		c-1.2-1-1.8-2.4-1.8-4.2V8.4H39v14.8c0,1.3,0.4,2.3,1.2,3c0.8,0.7,1.8,1.1,3.2,1.1c1.7,0,3.1-0.6,4.2-1.9c1-1.3,1.6-3,1.6-5.1V8.4
		h3.3v21H49.4z M26.8,29.4V4.9l-8.2,24.4h-3.9L6.3,4.9v24.4H2.8V0.2H8l8.6,25.4l8.5-25.4h5.2v29.2H26.8z"/>
	<path id="XMLID_43_" class="st1" d="M57.9,44.2C57.8,44.2,57.8,44.2,57.9,44.2C57.8,44.2,57.8,44.2,57.9,44.2 M53.3,45.8L53.3,45.8
		C53.3,45.8,53.3,45.8,53.3,45.8C53.3,45.8,53.3,45.8,53.3,45.8 M39.8,47.7C39.8,47.7,39.8,47.7,39.8,47.7
		C39.8,47.7,39.8,47.7,39.8,47.7 M61.4,47.8C61.4,47.8,61.4,47.8,61.4,47.8C61.4,47.8,61.4,47.8,61.4,47.8 M35.9,48.1
		C35.9,48.1,35.9,48.1,35.9,48.1C35.9,48.1,35.9,48.1,35.9,48.1L35.9,48.1 M49.5,48.3c-0.1,0.2-0.2,0.4-0.3,0.7
		c-0.1,0.3-0.1,0.7-0.1,1.2c0,0.6,0.1,1,0.1,1.3c0.1-0.2,0.2-0.5,0.3-0.9c0.1-0.4,0.2-0.9,0.2-1.5c0-0.2,0-0.3-0.1-0.5c0,0,0,0,0,0
		C49.6,48.5,49.6,48.4,49.5,48.3L49.5,48.3 M60,52.2C60,52.2,60,52.2,60,52.2C60,52.2,60,52.2,60,52.2 M60,52.2
		C60,52.2,60,52.2,60,52.2C60,52.2,60,52.2,60,52.2 M22.8,51.6C22.8,51.6,22.8,51.6,22.8,51.6C22.8,51.6,22.8,51.6,22.8,51.6 M22,53
		c0.1,0.1,0.2,0.2,0.4,0.2c0.1,0,0.4,0.1,0.8,0.1c0.5,0,0.9,0,1.3-0.1c0.3-0.1,0.6-0.2,0.8-0.3c0.2-0.1,0.3-0.2,0.4-0.3
		c0.1-0.1,0.2-0.2,0.2-0.3c0,0,0,0,0,0c0.1-0.1,0.1-0.3,0.1-0.4l0,0c0-0.2,0-0.3,0-0.4c0-0.4-0.1-0.5-0.1-0.6
		c-0.2-0.3-0.4-0.5-0.7-0.7c-0.3-0.2-0.6-0.5-1-0.7c0,0.1,0,0.1,0,0.2c0,0.8-0.5,1.6-1.3,1.9c0,0-0.1,0.1-0.3,0.1c0,0,0,0,0,0
		c0,0-0.2,0.1-0.4,0.3c-0.1,0.1-0.2,0.2-0.3,0.4c0,0,0,0.1,0,0.2c0,0,0,0.1,0,0.2c0,0,0,0,0,0C21.8,52.9,21.9,52.9,22,53 M20.2,57.6
		C20.2,57.6,20.2,57.6,20.2,57.6c-0.9-0.3-1.6-0.7-2.2-1.2c-0.6-0.5-1.1-1.2-1.3-1.8c-0.2-0.6-0.4-1.2-0.4-1.8
		c0-0.6,0.1-1.3,0.3-1.8c0,0,0,0,0,0c0.2-0.5,0.5-1,0.8-1.4c0,0,0,0,0,0c0.3-0.4,0.7-0.7,1.1-1c0,0,0,0,0,0c0.4-0.3,0.7-0.5,1.1-0.7
		c0,0,0,0,0,0c0.2-0.1,0.4-0.2,0.6-0.3c0,0,0,0,0,0c-0.7-0.4-1.4-0.9-2-1.4c-0.6-0.6-1.2-1.2-1.6-2c-0.4-0.8-0.7-1.8-0.7-2.8
		c0-1.3,0.3-2.5,0.8-3.5c0.5-1,1.2-1.9,2.1-2.7c0.9-0.7,1.9-1.3,3-1.7c1.1-0.4,2.3-0.6,3.5-0.6c1.1,0,2,0.1,2.8,0.4
		c0.8,0.3,1.6,0.7,2.1,1.1c0.6,0.5,1.1,1.1,1.4,1.8c0.3,0.7,0.4,1.3,0.4,2c0,0.8-0.1,1.5-0.4,2.2c-0.2,0.6-0.6,1.1-0.9,1.6
		c-0.3,0.5-0.7,0.9-1.2,1.2c-0.4,0.3-0.8,0.6-1.2,0.7C28.2,44,27.9,44,27.7,44c-0.6,0-1.2-0.3-1.6-0.8l-0.4-0.5
		c-0.3-0.4-0.4-0.8-0.4-1.2c0-0.6,0.3-1.2,0.8-1.6c0,0,0.1,0,0.1-0.1c0.1-0.1,0.1-0.2,0.2-0.3c0-0.1,0.1-0.2,0.1-0.3
		c0-0.1,0-0.2,0-0.3c0-0.2,0-0.3-0.1-0.5c0-0.1-0.1-0.2-0.2-0.3c-0.1-0.1-0.3-0.2-0.5-0.3c0,0,0,0,0,0c-0.2-0.1-0.4-0.1-0.9-0.1
		c-0.5,0-1,0.1-1.4,0.2c-0.5,0.2-0.8,0.4-1.2,0.7c-0.3,0.3-0.5,0.5-0.7,0.8c-0.1,0.3-0.2,0.5-0.2,0.8c0,0.3,0.1,0.5,0.2,0.6
		c0.2,0.3,0.4,0.6,0.7,0.8c0.4,0.3,0.8,0.6,1.3,0.9c0.6,0.3,1.2,0.7,1.8,1c0.7,0.3,1.3,0.7,2,1.1c0.7,0.4,1.4,0.9,2,1.4
		c0,0,0,0,0.1,0.1c0-0.3,0.1-0.5,0.1-0.7c0,0,0,0,0-0.1c0.2-0.6,0.6-1,1.1-1.3l0,0c0.3-0.2,0.5-0.3,0.8-0.4l0,0
		c0.3-0.1,0.5-0.1,0.8-0.1l0.4,0c0.5,0,1,0.2,1.4,0.5c0,0,0,0,0,0c0,0,0,0,0,0c0.6-0.3,1.2-0.4,1.8-0.4c0.7,0,1.4,0.2,2,0.5
		c0,0,0,0,0,0c0.2,0.1,0.4,0.3,0.6,0.5c0.3-0.2,0.7-0.4,1-0.6c0,0,0,0,0,0c0.6-0.3,1.2-0.4,1.9-0.4c1.2,0,2.3,0.5,3,1.4
		c0.2,0.3,0.4,0.7,0.6,1.1c0,0,0,0,0-0.1l0,0c0.5-0.7,1.2-1.3,1.9-1.7c0.8-0.5,1.6-0.7,2.5-0.7c0.6,0,1.3,0.2,1.8,0.4c0,0,0,0,0,0
		c0.1,0,0.1,0.1,0.2,0.1c0.2-0.1,0.3-0.2,0.5-0.2c0.3-0.1,0.5-0.2,0.8-0.2c0.3-0.1,0.5-0.1,0.7-0.1c0.4,0,0.7,0.1,0.9,0.2
		c0.1-0.1,0.1-0.1,0.2-0.2c0.3-0.3,0.6-0.5,1-0.6c0.4-0.1,0.8-0.2,1.2-0.2c0.5,0,1,0.1,1.5,0.4l0,0c0.4,0.2,0.7,0.5,0.9,0.8
		c0.3-0.1,0.6-0.2,0.6-0.2c0,0,0,0,0,0l0,0c0,0,0,0,0,0c0.4-0.1,0.8-0.2,1.2-0.2c0.4,0,0.8,0.1,1.1,0.2c0.1,0,0.2-0.1,0.2-0.1
		c0-0.2,0.1-0.5,0.1-0.5l0-0.3c0.1-0.8,0.2-1.6,0.3-2.5c0.1-1,1-1.8,2-1.8H66c0.6,0,1.1,0.2,1.5,0.7c0.3,0.4,0.5,0.9,0.5,1.4
		c0,0.1,0,0.1,0,0.2l-0.1,0.7l0,0l-0.1,1.2c0,0,0,0.5-0.1,0.9c0,0,0.2,0,0.2,0c0.6,0,1.1,0.3,1.5,0.7c0.3,0.4,0.5,0.8,0.5,1.3
		c0,0.1,0,0.2,0,0.3l-0.1,0.7c-0.2,1-1,1.7-2,1.7c0,0-0.3,0-0.4,0c0,0.4,0,0.7,0,0.7s0,0.4,0,0.7c0.1-0.1,0.1-0.2,0.2-0.4l0,0
		l0.1-0.3c0.3-0.5,0.7-0.9,1.3-1.1c0.2,0,0.3-0.1,0.5-0.1c0.4,0,0.9,0.1,1.2,0.4l0.5,0.4c0.5,0.4,0.8,1,0.8,1.6
		c0,0.3-0.1,0.6-0.2,0.9l-0.1,0.3c0,0,0,0,0,0c-0.4,0.8-0.8,1.5-1.2,2.2c-0.4,0.7-0.9,1.3-1.3,1.8c-0.5,0.6-1,1-1.5,1.3
		c-0.7,0.4-1.4,0.7-2.1,0.7c-0.7,0-1.3-0.2-1.9-0.5l0,0c-0.3-0.2-0.7-0.5-0.9-0.8c-0.4,0.4-0.8,0.7-1.2,0.9
		c-0.6,0.3-1.2,0.4-1.8,0.4c-1.1,0-2-0.5-2.7-1.3c-0.3-0.3-0.5-0.7-0.6-1.2c-0.1,0.2-0.2,0.3-0.3,0.5l0,0c-0.4,0.5-0.8,1-1.2,1.3
		l0,0c-0.8,0.6-1.5,0.7-2,0.7c-0.7,0-1.4-0.2-1.9-0.7c0,0,0,0,0,0c-0.1-0.1-0.1-0.1-0.2-0.2c-0.2,0.2-0.4,0.3-0.6,0.4
		c-0.6,0.3-1.2,0.5-1.8,0.5c-0.7,0-1.4-0.1-2-0.4c-0.5-0.2-1-0.5-1.4-0.9c-0.3,0.4-0.6,0.6-1,0.9c-0.6,0.3-1.2,0.5-1.8,0.5
		c-0.4,0-0.7-0.1-1.1-0.1c0,0,0,0,0,0c-0.5-0.1-0.9-0.4-1.3-0.8l0,0c-0.2-0.2-0.4-0.5-0.6-0.8c-0.1,0.2-0.1,0.3-0.2,0.4
		c0,0,0,0,0,0.1c-0.2,0.3-0.6,0.6-0.9,0.8c-0.2,0.1-0.4,0.2-0.7,0.3c-0.2,0.1-0.4,0.1-0.6,0.1c-0.2,0-0.4,0-0.5,0
		c-0.6,0-1.2-0.2-1.6-0.6c-0.2-0.1-0.4-0.3-0.5-0.6c0,0-0.1,0.1-0.1,0.1c0,0,0,0,0,0c-0.3,0.3-0.6,0.5-0.9,0.6
		c-0.3,0.1-0.6,0.2-0.9,0.3c0,0,0,0,0,0c-0.3,0.1-0.5,0.1-0.8,0.1c-0.5,0-1-0.2-1.5-0.5c-0.3-0.2-0.6-0.5-0.8-1.1
		c0,0-0.1,0.1-0.1,0.1c-0.7,0.6-1.6,1.1-2.6,1.5c-1,0.4-2.1,0.6-3.2,0.6C22.1,58,21.1,57.9,20.2,57.6 M104.8,47.4
		C104.8,47.4,104.8,47.4,104.8,47.4L104.8,47.4L104.8,47.4C104.8,47.4,104.8,47.4,104.8,47.4 M98.7,48.9c0,0,0,0.4,0,0.7
		c0,0,0-0.1,0.1-0.1c0.1-0.5,0.1-0.9,0.2-1.4c0,0-0.1,0-0.2,0C98.7,48.5,98.7,48.9,98.7,48.9 M79.1,46.1c0,1.3,0.1,2.4,0.4,3.2
		c0.3,0.9,0.6,1.6,1,2.1c0.4,0.5,0.8,0.8,1.2,1.1c0.4,0.2,0.8,0.3,1.3,0.3c0.3,0,0.6-0.1,0.9-0.2c0.3-0.1,0.6-0.3,1-0.6
		c0.4-0.3,0.7-0.7,1.1-1.1c0.4-0.5,0.7-1.1,1.1-1.7c0,0,0,0,0,0l0.1-0.3l0,0c0.2-0.3,0.3-0.6,0.4-1c0.1-0.4,0.2-0.7,0.3-1l0.2-0.9
		l0,0c0.1-0.3,0.1-0.6,0.2-0.8c-0.5,0.7-1.2,1.2-1.9,1.6c-0.8,0.5-1.7,0.7-2.6,0.7c-0.6,0-1.2-0.1-1.8-0.3c0,0,0,0,0,0
		c-0.6-0.2-1.1-0.6-1.5-1c-0.4-0.4-0.8-0.9-1-1.5c-0.1-0.3-0.2-0.6-0.3-0.8C79.2,44.6,79.1,45.3,79.1,46.1 M103.9,63.4L103.9,63.4
		c-0.5-0.2-0.9-0.4-1.2-0.8c0,0,0,0,0,0c-0.3-0.3-0.6-0.7-0.8-1.2c-0.2-0.4-0.3-0.9-0.3-1.4c0-0.6,0.1-1.2,0.3-1.8
		c0.1-0.3,0.2-0.6,0.4-0.9c-0.3,0-0.6-0.1-0.8-0.2c-0.6-0.2-1.1-0.5-1.6-0.9c0,0-0.1-0.1-0.1-0.1c-0.3,0.2-0.5,0.5-0.8,0.6
		c-0.7,0.4-1.4,0.7-2.1,0.7c-0.7,0-1.3-0.2-1.9-0.5c-0.3-0.2-0.6-0.4-0.9-0.7c-0.1,0.1-0.2,0.2-0.3,0.3c-0.9,0.8-1.7,0.9-2.3,0.9
		c-0.7,0-1.3-0.2-1.8-0.5c-0.6-0.3-1.1-0.8-1.4-1.5c0,0,0-0.1,0-0.1c-0.3,0.3-0.7,0.6-1,0.9c-0.8,0.6-1.6,1-2.4,1.3
		C84,57.8,83.1,58,82.1,58c-0.8,0-1.5-0.1-2.3-0.3c-0.8-0.2-1.5-0.6-2.2-1c-0.7-0.4-1.3-1-1.9-1.6c-0.6-0.6-1-1.4-1.4-2.3
		C74,51.9,73.7,51,73.5,50c-0.2-1-0.3-2.1-0.3-3.3c0-1.5,0.1-2.9,0.4-4.1c0.3-1.3,0.6-2.4,1.1-3.4c0.5-1,1-1.9,1.7-2.7
		c0.6-0.8,1.3-1.4,2-1.9c0.7-0.5,1.5-0.9,2.3-1.2c0.8-0.3,1.6-0.4,2.4-0.4c1,0,1.9,0.2,2.8,0.5c0.9,0.4,1.6,0.9,2.3,1.5
		c0.6,0.6,1.1,1.4,1.5,2.3c0.3,0.9,0.5,1.8,0.5,2.8c0.3-0.1,0.7-0.2,1.1-0.2c0.8,0,1.6,0.3,2.1,0.9c0,0,0,0,0,0
		c0.3,0.3,0.5,0.6,0.6,1c0.1-0.5,0.1-1.1,0.2-1.6c0.1-1,1-1.8,2-1.8h1.2c0.6,0,1.1,0.2,1.5,0.7c0.3,0.4,0.5,0.9,0.5,1.4
		c0,0.1,0,0.1,0,0.2l-0.1,0.8l0,0.6l0,0.6c0,0,0,0.5-0.1,0.9c0,0,0.2,0,0.2,0c0.5,0,1,0.2,1.3,0.5c0.1-0.1,0.3-0.2,0.4-0.2
		c0,0,0,0,0,0c0.3-0.1,0.5-0.2,0.8-0.2c0.2,0,0.4-0.1,0.6-0.1l0.3,0c0.8,0,1.5,0.4,1.9,1c0,0,0,0,0,0c0,0,0,0,0,0
		c0.1-0.1,0.3-0.3,0.5-0.4c0,0,0,0,0,0c0.3-0.2,0.6-0.4,1-0.5c0,0,0,0,0,0c0.3-0.1,0.5-0.1,0.8-0.2c0.2,0,0.4,0,0.6,0
		c1.4,0,2.4,1,2.4,2.4l0,0.6c0,0,0,0.7,0,0.7l0,0.9c0,0,0,0,0,0c0.1,0,0.1,0,0.2,0c0.1,0,0.3,0,0.4,0c0.4,0,0.9,0.1,1.2,0.4l0.5,0.4
		c0.5,0.4,0.8,1,0.8,1.6c0,0.3-0.1,0.6-0.2,0.9l-0.1,0.3l0,0c-0.2,0.4-0.4,0.8-0.7,1.3c-0.2,0.4-0.5,0.8-0.8,1.2
		c-0.3,0.4-0.5,0.8-0.9,1.2c0,0-0.2,0.2-0.4,0.5c0,0.8,0,2,0,2c0,0.9-0.1,1.7-0.3,2.4c-0.2,0.8-0.5,1.4-0.9,2l0,0
		c-0.4,0.6-1,1.1-1.6,1.4c0,0,0,0,0,0c-0.6,0.3-1.2,0.4-1.9,0.4C104.7,63.6,104.3,63.5,103.9,63.4"/>
	<path id="XMLID_29_" class="st2" d="M106.2,56.3c-0.3,0.3-0.5,0.7-0.8,1c-0.2,0.3-0.4,0.6-0.6,0.9c-0.2,0.3-0.3,0.6-0.4,0.9
		c-0.1,0.3-0.1,0.6-0.1,0.8c0,0.3,0.1,0.5,0.2,0.7c0.1,0.2,0.3,0.3,0.6,0.3c0.1,0,0.3,0,0.4-0.1c0.1-0.1,0.3-0.2,0.4-0.4
		c0.1-0.2,0.2-0.5,0.3-0.8c0.1-0.4,0.1-0.9,0.1-1.5V56.3z M110.8,50.5c-0.2,0.3-0.4,0.7-0.6,1.1c-0.2,0.4-0.5,0.7-0.8,1.1
		c-0.3,0.4-0.5,0.7-0.8,1.1c-0.3,0.4-0.6,0.7-0.8,1v2.7c0,0.7-0.1,1.4-0.2,1.9c-0.1,0.5-0.3,1-0.6,1.3c-0.2,0.3-0.5,0.6-0.8,0.7
		c-0.3,0.1-0.7,0.2-1,0.2c-0.2,0-0.5,0-0.7-0.1c-0.2-0.1-0.4-0.2-0.5-0.3c-0.1-0.1-0.3-0.3-0.3-0.5c-0.1-0.2-0.1-0.4-0.1-0.7
		c0-0.4,0.1-0.7,0.2-1.1c0.1-0.4,0.3-0.7,0.6-1.1c0.2-0.4,0.5-0.8,0.8-1.2c0.3-0.4,0.7-0.8,1-1.3v-3.7c-0.2,0.6-0.4,1.1-0.7,1.5
		c-0.2,0.5-0.5,0.9-0.8,1.2c-0.3,0.3-0.6,0.6-0.9,0.8c-0.3,0.2-0.7,0.3-1,0.3c-0.3,0-0.5,0-0.8-0.1c-0.3-0.1-0.5-0.2-0.8-0.5
		c-0.2-0.2-0.4-0.5-0.6-0.9c-0.1-0.4-0.2-0.9-0.2-1.5c0-0.7,0-1.4,0.1-2.1c0.1-0.7,0.2-1.4,0.3-2c0.1-0.6,0.2-1.1,0.3-1.6
		c0.1-0.5,0.2-0.8,0.3-1c0-0.1,0.1-0.1,0.2-0.2c0.1,0,0.3-0.1,0.4-0.1c0.1,0,0.3,0,0.4,0c0.1,0,0.2,0,0.2,0c0.1,0,0.2,0,0.2,0.1
		c0,0.1,0.1,0.2,0.1,0.3c0,0.1,0,0.2-0.1,0.4c0,0.2-0.1,0.5-0.2,0.8c-0.1,0.3-0.1,0.7-0.2,1.1c-0.1,0.4-0.1,0.9-0.2,1.3
		c-0.1,0.4-0.1,0.9-0.2,1.4c0,0.5-0.1,0.9-0.1,1.3c0,0.7,0.1,1.2,0.4,1.6c0.2,0.4,0.5,0.5,0.8,0.5c0.5,0,1-0.4,1.4-1.2
		c0.4-0.8,0.8-1.9,1.3-3.5V46c0-0.1,0.1-0.2,0.2-0.3c0.1-0.1,0.3-0.2,0.4-0.2c0.2,0,0.3-0.1,0.5-0.1c0.2,0,0.3,0,0.3,0
		c0.3,0,0.4,0.1,0.4,0.4c0,0.1,0,0.2,0,0.4c0,0.2,0,0.4,0,0.7c0,0.3,0,0.6,0,0.9c0,0.3,0,0.7,0,1v5c0.1-0.2,0.3-0.4,0.6-0.7
		c0.2-0.3,0.5-0.6,0.7-1s0.5-0.7,0.7-1c0.2-0.3,0.4-0.7,0.5-0.9l0.1-0.3l0.5,0.4L110.8,50.5z M101.1,50.5c-0.4,0.8-0.7,1.4-1.1,2
		c-0.4,0.6-0.7,1.1-1.1,1.5c-0.4,0.4-0.7,0.7-1,1c-0.3,0.2-0.7,0.3-1,0.3c-0.3,0-0.6-0.1-0.8-0.2c-0.2-0.1-0.5-0.4-0.6-0.7
		c-0.2-0.3-0.3-0.7-0.4-1.2c-0.1-0.5-0.1-1.1-0.1-1.8c0-0.9,0-1.7,0.1-2.6s0.2-1.8,0.3-2.6h-1.1l0.1-0.7h1.1
		c0.1-0.8,0.2-1.7,0.3-2.5c0.1-0.8,0.2-1.7,0.3-2.5h1.2c0,0.2,0,0.4-0.1,0.8c0,0.3-0.1,0.7-0.1,1.2S97,43.2,97,43.8
		c0,0.5-0.1,1.1-0.1,1.6h2.4l-0.1,0.7h-2.3c0,0.5-0.1,0.9-0.1,1.4c0,0.4,0,0.9-0.1,1.3s0,0.8,0,1.1c0,0.3,0,0.6,0,0.9
		c0,0.6,0,1.1,0.1,1.6c0,0.4,0.1,0.7,0.2,1c0.1,0.3,0.2,0.4,0.3,0.5c0.1,0.1,0.3,0.2,0.4,0.2c0.2,0,0.4-0.1,0.7-0.3
		c0.2-0.2,0.5-0.5,0.8-0.8c0.3-0.3,0.5-0.8,0.8-1.2c0.3-0.5,0.5-1,0.8-1.5l0.1-0.3l0.5,0.4L101.1,50.5z M91,43.9
		c-0.3,0-0.5-0.1-0.7-0.3c-0.2-0.2-0.3-0.4-0.3-0.7c0-0.3,0.1-0.5,0.3-0.7c0.2-0.2,0.4-0.3,0.7-0.3c0.3,0,0.5,0.1,0.7,0.3
		c0.2,0.2,0.3,0.4,0.3,0.7c0,0.3-0.1,0.5-0.3,0.7C91.5,43.8,91.3,43.9,91,43.9z M95.3,50.5c-0.3,0.6-0.6,1.2-0.9,1.8
		c-0.3,0.6-0.6,1.1-0.9,1.6c-0.3,0.5-0.6,0.8-0.9,1.1c-0.3,0.3-0.6,0.4-1,0.4c-0.3,0-0.6-0.1-0.9-0.2c-0.2-0.1-0.4-0.4-0.6-0.7
		c-0.2-0.3-0.3-0.7-0.4-1.2c-0.1-0.5-0.1-1.1-0.1-1.9c0-0.2,0-0.4,0-0.7c0-0.2,0-0.5,0-0.7h-0.1l-0.1,0.2l-0.1,0.3l-0.5-0.4l0.1-0.3
		c0.2-0.4,0.4-0.8,0.5-1.3c0.1-0.4,0.2-0.8,0.3-1.2c0.1-0.4,0.2-0.7,0.2-1c0.1-0.3,0.1-0.5,0.2-0.6c0-0.1,0.1-0.2,0.2-0.2
		c0.1-0.1,0.2-0.1,0.3-0.2c0.1,0,0.2-0.1,0.3-0.1c0.1,0,0.2,0,0.2,0c0.2,0,0.3,0,0.4,0.1c0.1,0.1,0.1,0.2,0.1,0.4
		c0,0.1,0,0.3-0.1,0.7c0,0.4-0.1,0.8-0.1,1.3c0,0.5-0.1,1.1-0.1,1.8c0,0.7-0.1,1.3-0.1,2.1c0,0.5,0,0.9,0.1,1.2
		c0,0.3,0.1,0.5,0.2,0.7c0.1,0.1,0.2,0.2,0.3,0.3c0.1,0,0.2,0.1,0.3,0.1c0.1,0,0.3-0.1,0.4-0.2c0.2-0.1,0.4-0.3,0.6-0.6
		c0.2-0.3,0.5-0.7,0.8-1.2c0.3-0.5,0.6-1.1,1-1.9l0.1-0.3l0.5,0.4L95.3,50.5z M89.3,50.5c-0.4,0.9-0.9,1.7-1.5,2.4
		c-0.5,0.7-1.1,1.3-1.7,1.7c-0.6,0.5-1.2,0.8-1.9,1c-0.7,0.2-1.3,0.4-2,0.4c-0.6,0-1.2-0.1-1.7-0.3c-0.6-0.2-1.1-0.4-1.6-0.8
		c-0.5-0.3-1-0.8-1.4-1.3c-0.4-0.5-0.8-1.1-1.2-1.8c-0.3-0.7-0.6-1.5-0.8-2.3c-0.2-0.9-0.3-1.8-0.3-2.9c0-1.4,0.1-2.6,0.3-3.7
		c0.2-1.1,0.5-2.1,0.9-3c0.4-0.9,0.9-1.6,1.4-2.3c0.5-0.6,1.1-1.2,1.7-1.6c0.6-0.4,1.2-0.7,1.8-0.9c0.6-0.2,1.2-0.3,1.7-0.3
		c0.7,0,1.4,0.1,2,0.4c0.6,0.2,1.1,0.6,1.6,1.1c0.4,0.5,0.8,1,1,1.6c0.2,0.6,0.4,1.4,0.4,2.2c0,0.8-0.1,1.5-0.3,2.1
		c-0.2,0.7-0.5,1.3-0.9,1.8c-0.4,0.5-0.8,0.9-1.3,1.2c-0.5,0.3-1,0.4-1.6,0.4c-0.4,0-0.7-0.1-1-0.2c-0.3-0.1-0.6-0.3-0.8-0.6
		c-0.2-0.2-0.4-0.5-0.6-0.9c-0.1-0.3-0.2-0.7-0.2-1.1c0-0.4,0.1-0.8,0.2-1.2c0.1-0.4,0.3-0.7,0.5-1c0.2-0.3,0.4-0.6,0.6-0.8
		c0.2-0.2,0.4-0.4,0.7-0.6l0.3,0.3c-0.2,0.2-0.3,0.4-0.5,0.6c-0.2,0.2-0.3,0.5-0.4,0.7c-0.1,0.3-0.2,0.5-0.3,0.8
		c-0.1,0.3-0.1,0.6-0.1,1c0,0.3,0,0.7,0.1,0.9c0.1,0.3,0.2,0.5,0.4,0.7c0.1,0.2,0.3,0.3,0.5,0.4c0.2,0.1,0.4,0.2,0.6,0.2
		c0.3,0,0.6-0.1,0.9-0.3c0.3-0.2,0.6-0.6,0.8-1c0.2-0.4,0.4-1,0.6-1.6c0.1-0.6,0.2-1.4,0.2-2.2c0-0.7-0.1-1.4-0.2-1.9
		c-0.2-0.5-0.4-1-0.7-1.4c-0.3-0.4-0.6-0.6-1-0.8c-0.4-0.2-0.8-0.3-1.3-0.3c-0.3,0-0.7,0.1-1.1,0.2c-0.4,0.1-0.8,0.4-1.3,0.7
		c-0.4,0.3-0.9,0.8-1.3,1.3c-0.4,0.5-0.8,1.2-1.1,2c-0.3,0.8-0.6,1.7-0.8,2.8c-0.2,1.1-0.3,2.3-0.3,3.7c0,1.5,0.2,2.7,0.5,3.8
		c0.3,1.1,0.8,2,1.3,2.7c0.6,0.7,1.2,1.3,1.9,1.6c0.7,0.4,1.4,0.5,2.2,0.5c0.5,0,1.1-0.1,1.6-0.3c0.5-0.2,1-0.5,1.5-0.9
		c0.5-0.4,1-0.9,1.4-1.5c0.5-0.6,0.9-1.3,1.3-2.1l0.1-0.3l0.5,0.4L89.3,50.5z M69.9,50.5c-0.4,0.8-0.7,1.4-1.1,2
		c-0.4,0.6-0.7,1.1-1.1,1.5c-0.4,0.4-0.7,0.7-1,1c-0.3,0.2-0.7,0.3-1,0.3c-0.3,0-0.6-0.1-0.8-0.2c-0.2-0.1-0.5-0.4-0.6-0.7
		c-0.2-0.3-0.3-0.7-0.4-1.2c-0.1-0.5-0.1-1.1-0.1-1.8c0-0.9,0-1.7,0.1-2.6c0.1-0.9,0.2-1.8,0.3-2.6h-1.1l0.1-0.7h1.1
		c0.1-0.8,0.2-1.7,0.3-2.5c0.1-0.8,0.2-1.7,0.3-2.5H66c0,0.2,0,0.4-0.1,0.8c0,0.3-0.1,0.7-0.1,1.2s-0.1,0.9-0.1,1.5
		c0,0.5-0.1,1.1-0.1,1.6H68l-0.1,0.7h-2.3c0,0.5-0.1,0.9-0.1,1.4c0,0.4,0,0.9-0.1,1.3c0,0.4,0,0.8,0,1.1c0,0.3,0,0.6,0,0.9
		c0,0.6,0,1.1,0.1,1.6c0,0.4,0.1,0.7,0.2,1c0.1,0.3,0.2,0.4,0.3,0.5c0.1,0.1,0.3,0.2,0.4,0.2c0.2,0,0.4-0.1,0.7-0.3
		c0.2-0.2,0.5-0.5,0.8-0.8c0.3-0.3,0.5-0.8,0.8-1.2c0.3-0.5,0.5-1,0.8-1.5l0.1-0.3l0.5,0.4L69.9,50.5z M57.1,45.5
		c-0.1-0.2-0.2-0.2-0.3-0.2c-0.1,0-0.1,0-0.2,0.1c0,0-0.1,0.1-0.1,0.2c0,0.1,0,0.2,0.1,0.3c0,0.1,0.1,0.1,0.2,0.2
		c0.1,0,0.1,0.1,0.2,0.1c0.1,0,0.1,0,0.2,0C57.2,45.8,57.2,45.6,57.1,45.5z M64.1,50.5c-0.5,1-0.9,1.8-1.3,2.4
		c-0.4,0.6-0.7,1.1-1.1,1.5c-0.3,0.4-0.6,0.6-0.9,0.8c-0.3,0.1-0.6,0.2-0.9,0.2c-0.5,0-0.9-0.2-1.2-0.5c-0.3-0.4-0.5-0.9-0.5-1.7
		c0-0.4,0.1-0.8,0.2-1.3c0.1-0.4,0.3-0.9,0.4-1.3c0.2-0.4,0.4-0.9,0.6-1.3c0.2-0.4,0.4-0.8,0.6-1.2c0.2-0.4,0.4-0.7,0.5-1.1
		c0.2-0.3,0.3-0.6,0.3-0.9l-0.1-0.1c-0.1,0-0.3,0.1-0.5,0.2c-0.2,0.1-0.5,0.3-0.7,0.5c-0.3,0.2-0.6,0.3-0.9,0.5
		c-0.3,0.2-0.6,0.2-0.9,0.3c0,0.1-0.1,0.3-0.1,0.5c-0.1,0.2-0.1,0.5-0.2,0.7c-0.1,0.3-0.2,0.5-0.3,0.8c-0.1,0.3-0.2,0.6-0.4,0.8
		l-0.1,0.3l-0.5-0.4l0.1-0.3c0.1-0.2,0.2-0.5,0.3-0.8s0.2-0.5,0.3-0.7c0.1-0.2,0.1-0.4,0.2-0.6c0-0.2,0.1-0.3,0.1-0.4
		c-0.2,0-0.4-0.1-0.6-0.2c-0.2-0.1-0.4-0.2-0.5-0.3c-0.1-0.1-0.3-0.3-0.3-0.5c-0.1-0.2-0.1-0.4-0.1-0.6c0-0.2,0-0.4,0.1-0.5
		c0.1-0.1,0.2-0.3,0.3-0.4c0.1-0.1,0.2-0.2,0.4-0.2c0.1-0.1,0.3-0.1,0.4-0.1c0.2,0,0.4,0,0.5,0.1c0.1,0.1,0.3,0.2,0.4,0.3
		c0.1,0.1,0.2,0.3,0.2,0.5c0,0.2,0.1,0.4,0.1,0.5c0.2,0,0.5,0,0.7-0.1c0.3-0.1,0.5-0.1,0.8-0.2c0.3-0.1,0.5-0.1,0.8-0.2
		c0.3-0.1,0.5-0.1,0.7-0.1c0.2,0,0.3,0,0.5,0.1c0.1,0.1,0.2,0.2,0.2,0.4c0,0.1,0,0.3-0.1,0.6c-0.1,0.3-0.2,0.7-0.3,1
		s-0.2,0.8-0.4,1.3c-0.1,0.5-0.3,0.9-0.4,1.4c-0.1,0.5-0.2,0.9-0.3,1.4c-0.1,0.4-0.1,0.8-0.1,1.2c0,0.4,0,0.7,0.1,0.9
		c0.1,0.2,0.3,0.2,0.5,0.2c0.1,0,0.2,0,0.4-0.1c0.2-0.1,0.4-0.3,0.6-0.5c0.2-0.3,0.5-0.7,0.8-1.2c0.3-0.5,0.7-1.2,1.1-2l0.1-0.3
		l0.5,0.4L64.1,50.5z M51.5,48c-0.1-0.4-0.3-0.7-0.5-1c-0.2-0.3-0.4-0.5-0.7-0.7c-0.3-0.2-0.5-0.3-0.8-0.3c-0.4,0-0.7,0.1-1,0.3
		c-0.3,0.2-0.6,0.5-0.8,0.8c-0.2,0.4-0.4,0.8-0.5,1.3c-0.1,0.5-0.2,1.1-0.2,1.7c0,1.2,0.2,2.1,0.6,2.8c0.4,0.6,0.9,1,1.5,1
		c0.3,0,0.6-0.1,0.9-0.3c0.3-0.2,0.6-0.5,0.8-1c0.2-0.4,0.5-0.9,0.6-1.5c0.2-0.6,0.2-1.3,0.2-2C51.7,48.7,51.7,48.4,51.5,48z
		 M56.5,51c-0.3,0.7-0.7,1.3-1,1.8c-0.3,0.5-0.6,1-0.8,1.4c-0.3,0.4-0.5,0.7-0.8,0.9c-0.3,0.2-0.5,0.3-0.8,0.3
		c-0.3,0-0.5-0.1-0.7-0.2c-0.2-0.1-0.3-0.3-0.5-0.6c-0.1-0.3-0.2-0.6-0.3-0.9c-0.1-0.3-0.1-0.7-0.1-1.1c-0.2,0.4-0.4,0.8-0.6,1.1
		c-0.2,0.3-0.5,0.6-0.7,0.9c-0.3,0.3-0.5,0.5-0.8,0.6c-0.3,0.1-0.6,0.2-0.8,0.2c-0.4,0-0.8-0.1-1.2-0.3c-0.4-0.2-0.7-0.4-1-0.8
		C46,54,45.8,53.5,45.6,53c-0.2-0.5-0.3-1.2-0.3-1.9c0-0.8,0.1-1.6,0.3-2.3c0.2-0.7,0.5-1.3,0.9-1.8c0.4-0.5,0.8-0.9,1.3-1.2
		c0.5-0.3,1-0.4,1.5-0.4c0.3,0,0.6,0.1,0.9,0.2c0.3,0.1,0.5,0.3,0.7,0.5c0.2,0.2,0.4,0.4,0.5,0.7c0.1,0.2,0.2,0.4,0.3,0.6l0.1-1.2
		c0-0.2,0.1-0.3,0.2-0.4c0.1-0.1,0.3-0.2,0.4-0.3c0.2-0.1,0.3-0.1,0.5-0.1c0.2,0,0.3,0,0.3,0c0.1,0,0.2,0,0.2,0c0,0,0,0.1,0,0.2
		c0,0.1,0,0.4-0.1,0.7c-0.1,0.4-0.1,0.8-0.2,1.4c-0.1,0.6-0.2,1.2-0.2,2c-0.1,0.8-0.1,1.6-0.1,2.6c0,0.5,0,0.9,0.1,1.2
		c0.1,0.3,0.2,0.5,0.4,0.5c0.1,0,0.3-0.1,0.4-0.2c0.1-0.1,0.3-0.3,0.5-0.6c0.2-0.3,0.4-0.6,0.6-1c0.2-0.4,0.5-1,0.8-1.6l0.4-0.8
		l0.5,0.4L56.5,51z M46,50.5c-0.5,1-0.9,1.8-1.2,2.4c-0.3,0.6-0.6,1.1-0.9,1.5c-0.3,0.4-0.5,0.6-0.8,0.8c-0.2,0.1-0.5,0.2-0.8,0.2
		c-0.2,0-0.3,0-0.5-0.1c-0.2,0-0.3-0.1-0.4-0.3c-0.1-0.1-0.2-0.3-0.3-0.5C41,54.3,41,54.1,41,53.7c0-0.5,0-1,0.1-1.6
		c0.1-0.6,0.1-1.2,0.2-1.8c0.1-0.6,0.2-1.2,0.2-1.7c0.1-0.5,0.1-1,0.1-1.3c0-0.3-0.1-0.5-0.2-0.7c-0.1-0.2-0.3-0.3-0.6-0.3
		c-0.3,0-0.5,0.1-0.8,0.3c-0.3,0.2-0.6,0.5-0.8,0.8c-0.3,0.3-0.5,0.7-0.7,1.1c-0.2,0.4-0.4,0.8-0.6,1.2c0,0.9,0,1.6,0,2.2
		c0,0.6,0,1.2-0.1,1.6c0,0.4-0.1,0.8-0.1,1c0,0.3-0.1,0.4-0.2,0.5c0,0.1-0.1,0.1-0.2,0.2c-0.1,0-0.2,0.1-0.3,0.1
		c-0.1,0-0.2,0.1-0.3,0.1c-0.1,0-0.2,0-0.3,0c-0.1,0-0.2,0-0.3-0.1s-0.1-0.2-0.1-0.5c0-0.1,0-0.2,0-0.4c0-0.2,0-0.4,0.1-0.6
		c0-0.2,0.1-0.5,0.1-0.7c0-0.3,0.1-0.5,0.1-0.8c0-0.2,0-0.5,0-0.8c0-0.3,0-0.6,0-0.9c0-0.3,0-0.6,0-0.9c0-0.3,0-0.5,0-0.7
		c0-0.4,0-0.8,0-1.1c0-0.3-0.1-0.6-0.1-0.9c-0.1-0.2-0.2-0.4-0.3-0.6c-0.1-0.1-0.3-0.2-0.5-0.2c-0.2,0-0.5,0.1-0.7,0.3
		c-0.2,0.2-0.4,0.4-0.6,0.7c-0.2,0.3-0.4,0.6-0.6,1c-0.2,0.4-0.4,0.8-0.5,1.2v0.1c0,0.7,0,1.5-0.1,2.3c0,0.8,0,1.7,0,2.6
		c0,0.2-0.1,0.3-0.2,0.4c-0.1,0.1-0.2,0.2-0.4,0.3c-0.1,0.1-0.3,0.1-0.5,0.2c-0.2,0-0.3,0-0.4,0c-0.1,0-0.2,0-0.3-0.1
		C31.1,55.2,31,55,31,54.8c0-0.1,0-0.3,0-0.5c0-0.2,0.1-0.4,0.1-0.6c0-0.2,0.1-0.4,0.1-0.7c0-0.2,0.1-0.4,0.1-0.6c0-0.7,0-1.3,0-1.9
		c0-0.6,0-1,0-1.5s0-0.8,0-1.1c0-0.3,0-0.6,0-0.8c0-0.4,0-0.7,0-0.9c0-0.2,0-0.3,0.1-0.4c0-0.1,0.1-0.2,0.2-0.3
		c0.1-0.1,0.2-0.1,0.3-0.2c0.1,0,0.2-0.1,0.4-0.1c0.1,0,0.2,0,0.3,0c0.2,0,0.3,0,0.3,0.1c0,0.1,0.1,0.2,0.1,0.4c0,0.4,0,0.8,0,1.1
		s0,0.7,0,1c0.2-0.4,0.3-0.7,0.5-1c0.2-0.3,0.4-0.6,0.7-0.9c0.3-0.2,0.5-0.4,0.8-0.6c0.3-0.1,0.6-0.2,0.9-0.2c0.4,0,0.7,0.1,0.9,0.2
		c0.2,0.2,0.4,0.4,0.6,0.6c0.1,0.3,0.2,0.6,0.3,0.9c0.1,0.4,0.1,0.8,0.1,1.2c0.2-0.4,0.5-0.8,0.7-1.2c0.3-0.4,0.5-0.7,0.8-0.9
		c0.3-0.3,0.6-0.5,0.9-0.6c0.3-0.2,0.7-0.2,1-0.2c0.6,0,1.1,0.2,1.4,0.6c0.3,0.4,0.4,0.9,0.4,1.6c0,0.4,0,0.9-0.1,1.4
		c-0.1,0.5-0.1,1-0.2,1.6c-0.1,0.5-0.1,1-0.2,1.5c-0.1,0.5-0.1,1-0.1,1.4c0,0.5,0.1,0.8,0.4,0.8c0.1,0,0.3-0.1,0.4-0.2
		c0.2-0.2,0.3-0.4,0.5-0.7c0.2-0.3,0.4-0.7,0.7-1.3c0.3-0.5,0.6-1.1,0.9-1.8l0.1-0.3l0.5,0.4L46,50.5z M29.8,39.6
		c-0.2,0.4-0.4,0.8-0.6,1.1c-0.2,0.3-0.5,0.6-0.8,0.8c-0.3,0.2-0.5,0.4-0.8,0.5l-0.4-0.5c0.2-0.1,0.4-0.3,0.5-0.5
		c0.1-0.2,0.3-0.4,0.4-0.6c0.1-0.2,0.2-0.5,0.2-0.7c0.1-0.3,0.1-0.5,0.1-0.8c0-0.4-0.1-0.8-0.2-1.2c-0.1-0.4-0.4-0.7-0.6-1
		c-0.3-0.3-0.7-0.6-1.2-0.8c-0.5-0.2-1-0.3-1.7-0.3c-0.7,0-1.5,0.1-2.1,0.4c-0.7,0.2-1.2,0.6-1.8,1c-0.5,0.4-0.9,0.9-1.2,1.4
		c-0.3,0.5-0.4,1.1-0.4,1.7c0,0.6,0.1,1.2,0.4,1.7c0.3,0.5,0.7,0.9,1.2,1.3c0.5,0.4,1,0.8,1.7,1.1c0.6,0.3,1.2,0.7,1.9,1
		c0.6,0.3,1.3,0.7,1.9,1c0.6,0.4,1.2,0.8,1.7,1.2c0.5,0.4,0.9,0.9,1.2,1.5c0.3,0.5,0.4,1.2,0.4,1.9c0,0.7-0.2,1.3-0.5,2
		c-0.3,0.6-0.8,1.2-1.3,1.7c-0.6,0.5-1.2,0.9-2,1.2C25,55.8,24.2,56,23.3,56c-1,0-1.8-0.1-2.5-0.3c-0.6-0.2-1.2-0.5-1.5-0.8
		c-0.4-0.3-0.6-0.7-0.8-1.1c-0.1-0.4-0.2-0.7-0.2-1.1c0-0.4,0.1-0.8,0.2-1.1c0.1-0.3,0.3-0.6,0.5-0.9c0.2-0.3,0.5-0.5,0.7-0.7
		c0.3-0.2,0.5-0.4,0.8-0.5c0.3-0.1,0.6-0.2,0.8-0.3c0.3-0.1,0.5-0.1,0.7-0.2l0.1,0.6c-0.1,0-0.3,0.1-0.5,0.2
		c-0.3,0.1-0.5,0.3-0.8,0.5c-0.3,0.2-0.5,0.5-0.7,0.9c-0.2,0.4-0.3,0.8-0.3,1.3c0,0.3,0.1,0.7,0.2,1c0.1,0.3,0.4,0.6,0.6,0.9
		c0.3,0.3,0.6,0.5,1,0.6c0.4,0.2,0.9,0.2,1.5,0.2c0.7,0,1.3-0.1,1.8-0.2c0.5-0.1,0.9-0.3,1.3-0.5c0.4-0.2,0.7-0.4,0.9-0.7
		c0.2-0.3,0.4-0.5,0.5-0.8c0.1-0.3,0.2-0.6,0.3-0.8C28,52,28,51.8,28,51.5c0-0.6-0.1-1.2-0.4-1.6c-0.3-0.5-0.7-0.9-1.1-1.3
		c-0.5-0.4-1-0.7-1.6-1c-0.6-0.3-1.2-0.6-1.8-0.9c-0.6-0.3-1.2-0.6-1.8-0.9c-0.6-0.3-1.1-0.7-1.6-1.1c-0.5-0.4-0.8-0.9-1.1-1.4
		c-0.3-0.5-0.4-1.2-0.4-1.9c0-1,0.2-1.8,0.6-2.6c0.4-0.8,0.9-1.5,1.6-2.1c0.7-0.6,1.5-1,2.4-1.3c0.9-0.3,1.8-0.5,2.8-0.5
		c0.8,0,1.6,0.1,2.1,0.3c0.6,0.2,1.1,0.5,1.5,0.8c0.4,0.3,0.7,0.7,0.8,1.1c0.2,0.4,0.3,0.8,0.3,1.2C30.1,38.8,30,39.2,29.8,39.6z"/>
</g>
</svg>
